%TF.GenerationSoftware,KiCad,Pcbnew,(6.0.10)*%
%TF.CreationDate,2023-01-31T23:24:51+03:00*%
%TF.ProjectId,001_ESC,3030315f-4553-4432-9e6b-696361645f70,rev?*%
%TF.SameCoordinates,Original*%
%TF.FileFunction,Legend,Top*%
%TF.FilePolarity,Positive*%
%FSLAX46Y46*%
G04 Gerber Fmt 4.6, Leading zero omitted, Abs format (unit mm)*
G04 Created by KiCad (PCBNEW (6.0.10)) date 2023-01-31 23:24:51*
%MOMM*%
%LPD*%
G01*
G04 APERTURE LIST*
%ADD10C,0.150000*%
%ADD11C,0.250000*%
%ADD12C,0.125000*%
%ADD13C,0.175000*%
%ADD14C,0.127000*%
%ADD15C,0.200000*%
%ADD16C,0.120000*%
%ADD17C,0.100000*%
G04 APERTURE END LIST*
D10*
X165370000Y-98242380D02*
X165370000Y-97242380D01*
X165750952Y-97242380D01*
X165846190Y-97290000D01*
X165893809Y-97337619D01*
X165941428Y-97432857D01*
X165941428Y-97575714D01*
X165893809Y-97670952D01*
X165846190Y-97718571D01*
X165750952Y-97766190D01*
X165370000Y-97766190D01*
X166370000Y-98147142D02*
X166417619Y-98194761D01*
X166370000Y-98242380D01*
X166322380Y-98194761D01*
X166370000Y-98147142D01*
X166370000Y-98242380D01*
X167417619Y-98147142D02*
X167370000Y-98194761D01*
X167227142Y-98242380D01*
X167131904Y-98242380D01*
X166989047Y-98194761D01*
X166893809Y-98099523D01*
X166846190Y-98004285D01*
X166798571Y-97813809D01*
X166798571Y-97670952D01*
X166846190Y-97480476D01*
X166893809Y-97385238D01*
X166989047Y-97290000D01*
X167131904Y-97242380D01*
X167227142Y-97242380D01*
X167370000Y-97290000D01*
X167417619Y-97337619D01*
X174006000Y-85542380D02*
X174006000Y-84542380D01*
X174386952Y-84542380D01*
X174482190Y-84590000D01*
X174529809Y-84637619D01*
X174577428Y-84732857D01*
X174577428Y-84875714D01*
X174529809Y-84970952D01*
X174482190Y-85018571D01*
X174386952Y-85066190D01*
X174006000Y-85066190D01*
X175006000Y-85447142D02*
X175053619Y-85494761D01*
X175006000Y-85542380D01*
X174958380Y-85494761D01*
X175006000Y-85447142D01*
X175006000Y-85542380D01*
X175815523Y-85018571D02*
X175958380Y-85066190D01*
X176006000Y-85113809D01*
X176053619Y-85209047D01*
X176053619Y-85351904D01*
X176006000Y-85447142D01*
X175958380Y-85494761D01*
X175863142Y-85542380D01*
X175482190Y-85542380D01*
X175482190Y-84542380D01*
X175815523Y-84542380D01*
X175910761Y-84590000D01*
X175958380Y-84637619D01*
X176006000Y-84732857D01*
X176006000Y-84828095D01*
X175958380Y-84923333D01*
X175910761Y-84970952D01*
X175815523Y-85018571D01*
X175482190Y-85018571D01*
X173569428Y-84272380D02*
X173569428Y-83272380D01*
X173950380Y-83272380D01*
X174045619Y-83320000D01*
X174093238Y-83367619D01*
X174140857Y-83462857D01*
X174140857Y-83605714D01*
X174093238Y-83700952D01*
X174045619Y-83748571D01*
X173950380Y-83796190D01*
X173569428Y-83796190D01*
X174569428Y-84177142D02*
X174617047Y-84224761D01*
X174569428Y-84272380D01*
X174521809Y-84224761D01*
X174569428Y-84177142D01*
X174569428Y-84272380D01*
X174998000Y-83986666D02*
X175474190Y-83986666D01*
X174902761Y-84272380D02*
X175236095Y-83272380D01*
X175569428Y-84272380D01*
X172934380Y-80962095D02*
X173934380Y-80628761D01*
X172934380Y-80295428D01*
X173839142Y-79390666D02*
X173886761Y-79438285D01*
X173934380Y-79581142D01*
X173934380Y-79676380D01*
X173886761Y-79819238D01*
X173791523Y-79914476D01*
X173696285Y-79962095D01*
X173505809Y-80009714D01*
X173362952Y-80009714D01*
X173172476Y-79962095D01*
X173077238Y-79914476D01*
X172982000Y-79819238D01*
X172934380Y-79676380D01*
X172934380Y-79581142D01*
X172982000Y-79438285D01*
X173029619Y-79390666D01*
X173839142Y-78390666D02*
X173886761Y-78438285D01*
X173934380Y-78581142D01*
X173934380Y-78676380D01*
X173886761Y-78819238D01*
X173791523Y-78914476D01*
X173696285Y-78962095D01*
X173505809Y-79009714D01*
X173362952Y-79009714D01*
X173172476Y-78962095D01*
X173077238Y-78914476D01*
X172982000Y-78819238D01*
X172934380Y-78676380D01*
X172934380Y-78581142D01*
X172982000Y-78438285D01*
X173029619Y-78390666D01*
X174029619Y-78200190D02*
X174029619Y-77438285D01*
X172982000Y-76676380D02*
X172934380Y-76771619D01*
X172934380Y-76914476D01*
X172982000Y-77057333D01*
X173077238Y-77152571D01*
X173172476Y-77200190D01*
X173362952Y-77247809D01*
X173505809Y-77247809D01*
X173696285Y-77200190D01*
X173791523Y-77152571D01*
X173886761Y-77057333D01*
X173934380Y-76914476D01*
X173934380Y-76819238D01*
X173886761Y-76676380D01*
X173839142Y-76628761D01*
X173505809Y-76628761D01*
X173505809Y-76819238D01*
X173934380Y-76200190D02*
X172934380Y-76200190D01*
X173934380Y-75628761D01*
X172934380Y-75628761D01*
X173934380Y-75152571D02*
X172934380Y-75152571D01*
X172934380Y-74914476D01*
X172982000Y-74771619D01*
X173077238Y-74676380D01*
X173172476Y-74628761D01*
X173362952Y-74581142D01*
X173505809Y-74581142D01*
X173696285Y-74628761D01*
X173791523Y-74676380D01*
X173886761Y-74771619D01*
X173934380Y-74914476D01*
X173934380Y-75152571D01*
X152003619Y-78430380D02*
X152003619Y-77430380D01*
X152384571Y-77430380D01*
X152479809Y-77478000D01*
X152527428Y-77525619D01*
X152575047Y-77620857D01*
X152575047Y-77763714D01*
X152527428Y-77858952D01*
X152479809Y-77906571D01*
X152384571Y-77954190D01*
X152003619Y-77954190D01*
X152908380Y-77430380D02*
X153146476Y-78430380D01*
X153336952Y-77716095D01*
X153527428Y-78430380D01*
X153765523Y-77430380D01*
X154146476Y-78430380D02*
X154146476Y-77430380D01*
X154479809Y-78144666D01*
X154813142Y-77430380D01*
X154813142Y-78430380D01*
X155051238Y-78525619D02*
X155813142Y-78525619D01*
X156051238Y-78430380D02*
X156051238Y-77430380D01*
X156527428Y-78430380D02*
X156527428Y-77430380D01*
X157098857Y-78430380D01*
X157098857Y-77430380D01*
X157575047Y-78430380D02*
X157575047Y-77430380D01*
X157956000Y-77430380D01*
X158051238Y-77478000D01*
X158098857Y-77525619D01*
X158146476Y-77620857D01*
X158146476Y-77763714D01*
X158098857Y-77858952D01*
X158051238Y-77906571D01*
X157956000Y-77954190D01*
X157575047Y-77954190D01*
X158575047Y-77430380D02*
X158575047Y-78239904D01*
X158622666Y-78335142D01*
X158670285Y-78382761D01*
X158765523Y-78430380D01*
X158956000Y-78430380D01*
X159051238Y-78382761D01*
X159098857Y-78335142D01*
X159146476Y-78239904D01*
X159146476Y-77430380D01*
X159479809Y-77430380D02*
X160051238Y-77430380D01*
X159765523Y-78430380D02*
X159765523Y-77430380D01*
X119729714Y-74382380D02*
X119729714Y-75191904D01*
X119777333Y-75287142D01*
X119824952Y-75334761D01*
X119920190Y-75382380D01*
X120110666Y-75382380D01*
X120205904Y-75334761D01*
X120253523Y-75287142D01*
X120301142Y-75191904D01*
X120301142Y-74382380D01*
X120729714Y-75096666D02*
X121205904Y-75096666D01*
X120634476Y-75382380D02*
X120967809Y-74382380D01*
X121301142Y-75382380D01*
X122205904Y-75382380D02*
X121872571Y-74906190D01*
X121634476Y-75382380D02*
X121634476Y-74382380D01*
X122015428Y-74382380D01*
X122110666Y-74430000D01*
X122158285Y-74477619D01*
X122205904Y-74572857D01*
X122205904Y-74715714D01*
X122158285Y-74810952D01*
X122110666Y-74858571D01*
X122015428Y-74906190D01*
X121634476Y-74906190D01*
X122491619Y-74382380D02*
X123063047Y-74382380D01*
X122777333Y-75382380D02*
X122777333Y-74382380D01*
X123158285Y-75477619D02*
X123920190Y-75477619D01*
X124158285Y-75382380D02*
X124158285Y-74382380D01*
X124539238Y-74382380D01*
X124634476Y-74430000D01*
X124682095Y-74477619D01*
X124729714Y-74572857D01*
X124729714Y-74715714D01*
X124682095Y-74810952D01*
X124634476Y-74858571D01*
X124539238Y-74906190D01*
X124158285Y-74906190D01*
X125158285Y-75382380D02*
X125158285Y-74382380D01*
X125634476Y-75382380D02*
X125634476Y-74382380D01*
X126205904Y-75382380D01*
X126205904Y-74382380D01*
X126634476Y-75334761D02*
X126777333Y-75382380D01*
X127015428Y-75382380D01*
X127110666Y-75334761D01*
X127158285Y-75287142D01*
X127205904Y-75191904D01*
X127205904Y-75096666D01*
X127158285Y-75001428D01*
X127110666Y-74953809D01*
X127015428Y-74906190D01*
X126824952Y-74858571D01*
X126729714Y-74810952D01*
X126682095Y-74763333D01*
X126634476Y-74668095D01*
X126634476Y-74572857D01*
X126682095Y-74477619D01*
X126729714Y-74430000D01*
X126824952Y-74382380D01*
X127063047Y-74382380D01*
X127205904Y-74430000D01*
%TO.C,Q6*%
X166976761Y-116804619D02*
X166881523Y-116757000D01*
X166786285Y-116661761D01*
X166643428Y-116518904D01*
X166548190Y-116471285D01*
X166452952Y-116471285D01*
X166500571Y-116709380D02*
X166405333Y-116661761D01*
X166310095Y-116566523D01*
X166262476Y-116376047D01*
X166262476Y-116042714D01*
X166310095Y-115852238D01*
X166405333Y-115757000D01*
X166500571Y-115709380D01*
X166691047Y-115709380D01*
X166786285Y-115757000D01*
X166881523Y-115852238D01*
X166929142Y-116042714D01*
X166929142Y-116376047D01*
X166881523Y-116566523D01*
X166786285Y-116661761D01*
X166691047Y-116709380D01*
X166500571Y-116709380D01*
X167786285Y-115709380D02*
X167595809Y-115709380D01*
X167500571Y-115757000D01*
X167452952Y-115804619D01*
X167357714Y-115947476D01*
X167310095Y-116137952D01*
X167310095Y-116518904D01*
X167357714Y-116614142D01*
X167405333Y-116661761D01*
X167500571Y-116709380D01*
X167691047Y-116709380D01*
X167786285Y-116661761D01*
X167833904Y-116614142D01*
X167881523Y-116518904D01*
X167881523Y-116280809D01*
X167833904Y-116185571D01*
X167786285Y-116137952D01*
X167691047Y-116090333D01*
X167500571Y-116090333D01*
X167405333Y-116137952D01*
X167357714Y-116185571D01*
X167310095Y-116280809D01*
%TO.C,Q5*%
X167106761Y-100290619D02*
X167011523Y-100243000D01*
X166916285Y-100147761D01*
X166773428Y-100004904D01*
X166678190Y-99957285D01*
X166582952Y-99957285D01*
X166630571Y-100195380D02*
X166535333Y-100147761D01*
X166440095Y-100052523D01*
X166392476Y-99862047D01*
X166392476Y-99528714D01*
X166440095Y-99338238D01*
X166535333Y-99243000D01*
X166630571Y-99195380D01*
X166821047Y-99195380D01*
X166916285Y-99243000D01*
X167011523Y-99338238D01*
X167059142Y-99528714D01*
X167059142Y-99862047D01*
X167011523Y-100052523D01*
X166916285Y-100147761D01*
X166821047Y-100195380D01*
X166630571Y-100195380D01*
X167963904Y-99195380D02*
X167487714Y-99195380D01*
X167440095Y-99671571D01*
X167487714Y-99623952D01*
X167582952Y-99576333D01*
X167821047Y-99576333D01*
X167916285Y-99623952D01*
X167963904Y-99671571D01*
X168011523Y-99766809D01*
X168011523Y-100004904D01*
X167963904Y-100100142D01*
X167916285Y-100147761D01*
X167821047Y-100195380D01*
X167582952Y-100195380D01*
X167487714Y-100147761D01*
X167440095Y-100100142D01*
%TO.C,Q4*%
X144894619Y-119067238D02*
X144847000Y-119162476D01*
X144751761Y-119257714D01*
X144608904Y-119400571D01*
X144561285Y-119495809D01*
X144561285Y-119591047D01*
X144799380Y-119543428D02*
X144751761Y-119638666D01*
X144656523Y-119733904D01*
X144466047Y-119781523D01*
X144132714Y-119781523D01*
X143942238Y-119733904D01*
X143847000Y-119638666D01*
X143799380Y-119543428D01*
X143799380Y-119352952D01*
X143847000Y-119257714D01*
X143942238Y-119162476D01*
X144132714Y-119114857D01*
X144466047Y-119114857D01*
X144656523Y-119162476D01*
X144751761Y-119257714D01*
X144799380Y-119352952D01*
X144799380Y-119543428D01*
X144132714Y-118257714D02*
X144799380Y-118257714D01*
X143751761Y-118495809D02*
X144466047Y-118733904D01*
X144466047Y-118114857D01*
%TO.C,Q3*%
X161150619Y-119161238D02*
X161103000Y-119256476D01*
X161007761Y-119351714D01*
X160864904Y-119494571D01*
X160817285Y-119589809D01*
X160817285Y-119685047D01*
X161055380Y-119637428D02*
X161007761Y-119732666D01*
X160912523Y-119827904D01*
X160722047Y-119875523D01*
X160388714Y-119875523D01*
X160198238Y-119827904D01*
X160103000Y-119732666D01*
X160055380Y-119637428D01*
X160055380Y-119446952D01*
X160103000Y-119351714D01*
X160198238Y-119256476D01*
X160388714Y-119208857D01*
X160722047Y-119208857D01*
X160912523Y-119256476D01*
X161007761Y-119351714D01*
X161055380Y-119446952D01*
X161055380Y-119637428D01*
X160055380Y-118875523D02*
X160055380Y-118256476D01*
X160436333Y-118589809D01*
X160436333Y-118446952D01*
X160483952Y-118351714D01*
X160531571Y-118304095D01*
X160626809Y-118256476D01*
X160864904Y-118256476D01*
X160960142Y-118304095D01*
X161007761Y-118351714D01*
X161055380Y-118446952D01*
X161055380Y-118732666D01*
X161007761Y-118827904D01*
X160960142Y-118875523D01*
%TO.C,Q2*%
X150332619Y-107597238D02*
X150285000Y-107692476D01*
X150189761Y-107787714D01*
X150046904Y-107930571D01*
X149999285Y-108025809D01*
X149999285Y-108121047D01*
X150237380Y-108073428D02*
X150189761Y-108168666D01*
X150094523Y-108263904D01*
X149904047Y-108311523D01*
X149570714Y-108311523D01*
X149380238Y-108263904D01*
X149285000Y-108168666D01*
X149237380Y-108073428D01*
X149237380Y-107882952D01*
X149285000Y-107787714D01*
X149380238Y-107692476D01*
X149570714Y-107644857D01*
X149904047Y-107644857D01*
X150094523Y-107692476D01*
X150189761Y-107787714D01*
X150237380Y-107882952D01*
X150237380Y-108073428D01*
X149332619Y-107263904D02*
X149285000Y-107216285D01*
X149237380Y-107121047D01*
X149237380Y-106882952D01*
X149285000Y-106787714D01*
X149332619Y-106740095D01*
X149427857Y-106692476D01*
X149523095Y-106692476D01*
X149665952Y-106740095D01*
X150237380Y-107311523D01*
X150237380Y-106692476D01*
%TO.C,Q1*%
X133060619Y-107851238D02*
X133013000Y-107946476D01*
X132917761Y-108041714D01*
X132774904Y-108184571D01*
X132727285Y-108279809D01*
X132727285Y-108375047D01*
X132965380Y-108327428D02*
X132917761Y-108422666D01*
X132822523Y-108517904D01*
X132632047Y-108565523D01*
X132298714Y-108565523D01*
X132108238Y-108517904D01*
X132013000Y-108422666D01*
X131965380Y-108327428D01*
X131965380Y-108136952D01*
X132013000Y-108041714D01*
X132108238Y-107946476D01*
X132298714Y-107898857D01*
X132632047Y-107898857D01*
X132822523Y-107946476D01*
X132917761Y-108041714D01*
X132965380Y-108136952D01*
X132965380Y-108327428D01*
X132965380Y-106946476D02*
X132965380Y-107517904D01*
X132965380Y-107232190D02*
X131965380Y-107232190D01*
X132108238Y-107327428D01*
X132203476Y-107422666D01*
X132251095Y-107517904D01*
%TO.C,U1*%
X126720666Y-94162666D02*
X126720666Y-94729333D01*
X126754000Y-94796000D01*
X126787333Y-94829333D01*
X126854000Y-94862666D01*
X126987333Y-94862666D01*
X127054000Y-94829333D01*
X127087333Y-94796000D01*
X127120666Y-94729333D01*
X127120666Y-94162666D01*
X127820666Y-94862666D02*
X127420666Y-94862666D01*
X127620666Y-94862666D02*
X127620666Y-94162666D01*
X127554000Y-94262666D01*
X127487333Y-94329333D01*
X127420666Y-94362666D01*
%TO.C,C8*%
X113421333Y-129028000D02*
X113388000Y-129061333D01*
X113288000Y-129094666D01*
X113221333Y-129094666D01*
X113121333Y-129061333D01*
X113054666Y-128994666D01*
X113021333Y-128928000D01*
X112988000Y-128794666D01*
X112988000Y-128694666D01*
X113021333Y-128561333D01*
X113054666Y-128494666D01*
X113121333Y-128428000D01*
X113221333Y-128394666D01*
X113288000Y-128394666D01*
X113388000Y-128428000D01*
X113421333Y-128461333D01*
X113821333Y-128694666D02*
X113754666Y-128661333D01*
X113721333Y-128628000D01*
X113688000Y-128561333D01*
X113688000Y-128528000D01*
X113721333Y-128461333D01*
X113754666Y-128428000D01*
X113821333Y-128394666D01*
X113954666Y-128394666D01*
X114021333Y-128428000D01*
X114054666Y-128461333D01*
X114088000Y-128528000D01*
X114088000Y-128561333D01*
X114054666Y-128628000D01*
X114021333Y-128661333D01*
X113954666Y-128694666D01*
X113821333Y-128694666D01*
X113754666Y-128728000D01*
X113721333Y-128761333D01*
X113688000Y-128828000D01*
X113688000Y-128961333D01*
X113721333Y-129028000D01*
X113754666Y-129061333D01*
X113821333Y-129094666D01*
X113954666Y-129094666D01*
X114021333Y-129061333D01*
X114054666Y-129028000D01*
X114088000Y-128961333D01*
X114088000Y-128828000D01*
X114054666Y-128761333D01*
X114021333Y-128728000D01*
X113954666Y-128694666D01*
%TO.C,R11*%
X166178666Y-91382000D02*
X165845333Y-91615333D01*
X166178666Y-91782000D02*
X165478666Y-91782000D01*
X165478666Y-91515333D01*
X165512000Y-91448666D01*
X165545333Y-91415333D01*
X165612000Y-91382000D01*
X165712000Y-91382000D01*
X165778666Y-91415333D01*
X165812000Y-91448666D01*
X165845333Y-91515333D01*
X165845333Y-91782000D01*
X166178666Y-90715333D02*
X166178666Y-91115333D01*
X166178666Y-90915333D02*
X165478666Y-90915333D01*
X165578666Y-90982000D01*
X165645333Y-91048666D01*
X165678666Y-91115333D01*
X166178666Y-90048666D02*
X166178666Y-90448666D01*
X166178666Y-90248666D02*
X165478666Y-90248666D01*
X165578666Y-90315333D01*
X165645333Y-90382000D01*
X165678666Y-90448666D01*
%TO.C,C14*%
X155252000Y-91436000D02*
X155218666Y-91469333D01*
X155118666Y-91502666D01*
X155052000Y-91502666D01*
X154952000Y-91469333D01*
X154885333Y-91402666D01*
X154852000Y-91336000D01*
X154818666Y-91202666D01*
X154818666Y-91102666D01*
X154852000Y-90969333D01*
X154885333Y-90902666D01*
X154952000Y-90836000D01*
X155052000Y-90802666D01*
X155118666Y-90802666D01*
X155218666Y-90836000D01*
X155252000Y-90869333D01*
X155918666Y-91502666D02*
X155518666Y-91502666D01*
X155718666Y-91502666D02*
X155718666Y-90802666D01*
X155652000Y-90902666D01*
X155585333Y-90969333D01*
X155518666Y-91002666D01*
X156518666Y-91036000D02*
X156518666Y-91502666D01*
X156352000Y-90769333D02*
X156185333Y-91269333D01*
X156618666Y-91269333D01*
%TO.C,C13*%
X138488000Y-94992000D02*
X138454666Y-95025333D01*
X138354666Y-95058666D01*
X138288000Y-95058666D01*
X138188000Y-95025333D01*
X138121333Y-94958666D01*
X138088000Y-94892000D01*
X138054666Y-94758666D01*
X138054666Y-94658666D01*
X138088000Y-94525333D01*
X138121333Y-94458666D01*
X138188000Y-94392000D01*
X138288000Y-94358666D01*
X138354666Y-94358666D01*
X138454666Y-94392000D01*
X138488000Y-94425333D01*
X139154666Y-95058666D02*
X138754666Y-95058666D01*
X138954666Y-95058666D02*
X138954666Y-94358666D01*
X138888000Y-94458666D01*
X138821333Y-94525333D01*
X138754666Y-94558666D01*
X139388000Y-94358666D02*
X139821333Y-94358666D01*
X139588000Y-94625333D01*
X139688000Y-94625333D01*
X139754666Y-94658666D01*
X139788000Y-94692000D01*
X139821333Y-94758666D01*
X139821333Y-94925333D01*
X139788000Y-94992000D01*
X139754666Y-95025333D01*
X139688000Y-95058666D01*
X139488000Y-95058666D01*
X139421333Y-95025333D01*
X139388000Y-94992000D01*
%TO.C,C16*%
X144330000Y-100580000D02*
X144296666Y-100613333D01*
X144196666Y-100646666D01*
X144130000Y-100646666D01*
X144030000Y-100613333D01*
X143963333Y-100546666D01*
X143930000Y-100480000D01*
X143896666Y-100346666D01*
X143896666Y-100246666D01*
X143930000Y-100113333D01*
X143963333Y-100046666D01*
X144030000Y-99980000D01*
X144130000Y-99946666D01*
X144196666Y-99946666D01*
X144296666Y-99980000D01*
X144330000Y-100013333D01*
X144996666Y-100646666D02*
X144596666Y-100646666D01*
X144796666Y-100646666D02*
X144796666Y-99946666D01*
X144730000Y-100046666D01*
X144663333Y-100113333D01*
X144596666Y-100146666D01*
X145596666Y-99946666D02*
X145463333Y-99946666D01*
X145396666Y-99980000D01*
X145363333Y-100013333D01*
X145296666Y-100113333D01*
X145263333Y-100246666D01*
X145263333Y-100513333D01*
X145296666Y-100580000D01*
X145330000Y-100613333D01*
X145396666Y-100646666D01*
X145530000Y-100646666D01*
X145596666Y-100613333D01*
X145630000Y-100580000D01*
X145663333Y-100513333D01*
X145663333Y-100346666D01*
X145630000Y-100280000D01*
X145596666Y-100246666D01*
X145530000Y-100213333D01*
X145396666Y-100213333D01*
X145330000Y-100246666D01*
X145296666Y-100280000D01*
X145263333Y-100346666D01*
%TO.C,J3*%
X165020666Y-76986380D02*
X165020666Y-77700666D01*
X164973047Y-77843523D01*
X164877809Y-77938761D01*
X164734952Y-77986380D01*
X164639714Y-77986380D01*
X165401619Y-76986380D02*
X166020666Y-76986380D01*
X165687333Y-77367333D01*
X165830190Y-77367333D01*
X165925428Y-77414952D01*
X165973047Y-77462571D01*
X166020666Y-77557809D01*
X166020666Y-77795904D01*
X165973047Y-77891142D01*
X165925428Y-77938761D01*
X165830190Y-77986380D01*
X165544476Y-77986380D01*
X165449238Y-77938761D01*
X165401619Y-77891142D01*
D11*
%TO.C,IC4*%
X160567809Y-111450380D02*
X160567809Y-110450380D01*
X161615428Y-111355142D02*
X161567809Y-111402761D01*
X161424952Y-111450380D01*
X161329714Y-111450380D01*
X161186857Y-111402761D01*
X161091619Y-111307523D01*
X161044000Y-111212285D01*
X160996380Y-111021809D01*
X160996380Y-110878952D01*
X161044000Y-110688476D01*
X161091619Y-110593238D01*
X161186857Y-110498000D01*
X161329714Y-110450380D01*
X161424952Y-110450380D01*
X161567809Y-110498000D01*
X161615428Y-110545619D01*
X162472571Y-110783714D02*
X162472571Y-111450380D01*
X162234476Y-110402761D02*
X161996380Y-111117047D01*
X162615428Y-111117047D01*
D10*
%TO.C,BZ1*%
X129939333Y-117298000D02*
X130039333Y-117331333D01*
X130072666Y-117364666D01*
X130106000Y-117431333D01*
X130106000Y-117531333D01*
X130072666Y-117598000D01*
X130039333Y-117631333D01*
X129972666Y-117664666D01*
X129706000Y-117664666D01*
X129706000Y-116964666D01*
X129939333Y-116964666D01*
X130006000Y-116998000D01*
X130039333Y-117031333D01*
X130072666Y-117098000D01*
X130072666Y-117164666D01*
X130039333Y-117231333D01*
X130006000Y-117264666D01*
X129939333Y-117298000D01*
X129706000Y-117298000D01*
X130339333Y-116964666D02*
X130806000Y-116964666D01*
X130339333Y-117664666D01*
X130806000Y-117664666D01*
X131439333Y-117664666D02*
X131039333Y-117664666D01*
X131239333Y-117664666D02*
X131239333Y-116964666D01*
X131172666Y-117064666D01*
X131106000Y-117131333D01*
X131039333Y-117164666D01*
%TO.C,R12*%
X166178666Y-96208000D02*
X165845333Y-96441333D01*
X166178666Y-96608000D02*
X165478666Y-96608000D01*
X165478666Y-96341333D01*
X165512000Y-96274666D01*
X165545333Y-96241333D01*
X165612000Y-96208000D01*
X165712000Y-96208000D01*
X165778666Y-96241333D01*
X165812000Y-96274666D01*
X165845333Y-96341333D01*
X165845333Y-96608000D01*
X166178666Y-95541333D02*
X166178666Y-95941333D01*
X166178666Y-95741333D02*
X165478666Y-95741333D01*
X165578666Y-95808000D01*
X165645333Y-95874666D01*
X165678666Y-95941333D01*
X165545333Y-95274666D02*
X165512000Y-95241333D01*
X165478666Y-95174666D01*
X165478666Y-95008000D01*
X165512000Y-94941333D01*
X165545333Y-94908000D01*
X165612000Y-94874666D01*
X165678666Y-94874666D01*
X165778666Y-94908000D01*
X166178666Y-95308000D01*
X166178666Y-94874666D01*
%TO.C,C12*%
X151950000Y-82546000D02*
X151916666Y-82579333D01*
X151816666Y-82612666D01*
X151750000Y-82612666D01*
X151650000Y-82579333D01*
X151583333Y-82512666D01*
X151550000Y-82446000D01*
X151516666Y-82312666D01*
X151516666Y-82212666D01*
X151550000Y-82079333D01*
X151583333Y-82012666D01*
X151650000Y-81946000D01*
X151750000Y-81912666D01*
X151816666Y-81912666D01*
X151916666Y-81946000D01*
X151950000Y-81979333D01*
X152616666Y-82612666D02*
X152216666Y-82612666D01*
X152416666Y-82612666D02*
X152416666Y-81912666D01*
X152350000Y-82012666D01*
X152283333Y-82079333D01*
X152216666Y-82112666D01*
X152883333Y-81979333D02*
X152916666Y-81946000D01*
X152983333Y-81912666D01*
X153150000Y-81912666D01*
X153216666Y-81946000D01*
X153250000Y-81979333D01*
X153283333Y-82046000D01*
X153283333Y-82112666D01*
X153250000Y-82212666D01*
X152850000Y-82612666D01*
X153283333Y-82612666D01*
%TO.C,D4*%
X145025333Y-127742666D02*
X145025333Y-127042666D01*
X145192000Y-127042666D01*
X145292000Y-127076000D01*
X145358666Y-127142666D01*
X145392000Y-127209333D01*
X145425333Y-127342666D01*
X145425333Y-127442666D01*
X145392000Y-127576000D01*
X145358666Y-127642666D01*
X145292000Y-127709333D01*
X145192000Y-127742666D01*
X145025333Y-127742666D01*
X146025333Y-127276000D02*
X146025333Y-127742666D01*
X145858666Y-127009333D02*
X145692000Y-127509333D01*
X146125333Y-127509333D01*
%TO.C,U2*%
X155168666Y-83436666D02*
X155168666Y-84003333D01*
X155202000Y-84070000D01*
X155235333Y-84103333D01*
X155302000Y-84136666D01*
X155435333Y-84136666D01*
X155502000Y-84103333D01*
X155535333Y-84070000D01*
X155568666Y-84003333D01*
X155568666Y-83436666D01*
X155868666Y-83503333D02*
X155902000Y-83470000D01*
X155968666Y-83436666D01*
X156135333Y-83436666D01*
X156202000Y-83470000D01*
X156235333Y-83503333D01*
X156268666Y-83570000D01*
X156268666Y-83636666D01*
X156235333Y-83736666D01*
X155835333Y-84136666D01*
X156268666Y-84136666D01*
%TO.C,D5*%
X175114666Y-115832666D02*
X174414666Y-115832666D01*
X174414666Y-115666000D01*
X174448000Y-115566000D01*
X174514666Y-115499333D01*
X174581333Y-115466000D01*
X174714666Y-115432666D01*
X174814666Y-115432666D01*
X174948000Y-115466000D01*
X175014666Y-115499333D01*
X175081333Y-115566000D01*
X175114666Y-115666000D01*
X175114666Y-115832666D01*
X174414666Y-114799333D02*
X174414666Y-115132666D01*
X174748000Y-115166000D01*
X174714666Y-115132666D01*
X174681333Y-115066000D01*
X174681333Y-114899333D01*
X174714666Y-114832666D01*
X174748000Y-114799333D01*
X174814666Y-114766000D01*
X174981333Y-114766000D01*
X175048000Y-114799333D01*
X175081333Y-114832666D01*
X175114666Y-114899333D01*
X175114666Y-115066000D01*
X175081333Y-115132666D01*
X175048000Y-115166000D01*
%TO.C,R8*%
X134503333Y-91248666D02*
X134270000Y-90915333D01*
X134103333Y-91248666D02*
X134103333Y-90548666D01*
X134370000Y-90548666D01*
X134436666Y-90582000D01*
X134470000Y-90615333D01*
X134503333Y-90682000D01*
X134503333Y-90782000D01*
X134470000Y-90848666D01*
X134436666Y-90882000D01*
X134370000Y-90915333D01*
X134103333Y-90915333D01*
X134903333Y-90848666D02*
X134836666Y-90815333D01*
X134803333Y-90782000D01*
X134770000Y-90715333D01*
X134770000Y-90682000D01*
X134803333Y-90615333D01*
X134836666Y-90582000D01*
X134903333Y-90548666D01*
X135036666Y-90548666D01*
X135103333Y-90582000D01*
X135136666Y-90615333D01*
X135170000Y-90682000D01*
X135170000Y-90715333D01*
X135136666Y-90782000D01*
X135103333Y-90815333D01*
X135036666Y-90848666D01*
X134903333Y-90848666D01*
X134836666Y-90882000D01*
X134803333Y-90915333D01*
X134770000Y-90982000D01*
X134770000Y-91115333D01*
X134803333Y-91182000D01*
X134836666Y-91215333D01*
X134903333Y-91248666D01*
X135036666Y-91248666D01*
X135103333Y-91215333D01*
X135136666Y-91182000D01*
X135170000Y-91115333D01*
X135170000Y-90982000D01*
X135136666Y-90915333D01*
X135103333Y-90882000D01*
X135036666Y-90848666D01*
%TO.C,C18*%
X147316000Y-123468000D02*
X147349333Y-123501333D01*
X147382666Y-123601333D01*
X147382666Y-123668000D01*
X147349333Y-123768000D01*
X147282666Y-123834666D01*
X147216000Y-123868000D01*
X147082666Y-123901333D01*
X146982666Y-123901333D01*
X146849333Y-123868000D01*
X146782666Y-123834666D01*
X146716000Y-123768000D01*
X146682666Y-123668000D01*
X146682666Y-123601333D01*
X146716000Y-123501333D01*
X146749333Y-123468000D01*
X147382666Y-122801333D02*
X147382666Y-123201333D01*
X147382666Y-123001333D02*
X146682666Y-123001333D01*
X146782666Y-123068000D01*
X146849333Y-123134666D01*
X146882666Y-123201333D01*
X146982666Y-122401333D02*
X146949333Y-122468000D01*
X146916000Y-122501333D01*
X146849333Y-122534666D01*
X146816000Y-122534666D01*
X146749333Y-122501333D01*
X146716000Y-122468000D01*
X146682666Y-122401333D01*
X146682666Y-122268000D01*
X146716000Y-122201333D01*
X146749333Y-122168000D01*
X146816000Y-122134666D01*
X146849333Y-122134666D01*
X146916000Y-122168000D01*
X146949333Y-122201333D01*
X146982666Y-122268000D01*
X146982666Y-122401333D01*
X147016000Y-122468000D01*
X147049333Y-122501333D01*
X147116000Y-122534666D01*
X147249333Y-122534666D01*
X147316000Y-122501333D01*
X147349333Y-122468000D01*
X147382666Y-122401333D01*
X147382666Y-122268000D01*
X147349333Y-122201333D01*
X147316000Y-122168000D01*
X147249333Y-122134666D01*
X147116000Y-122134666D01*
X147049333Y-122168000D01*
X147016000Y-122201333D01*
X146982666Y-122268000D01*
%TO.C,R16*%
X138488000Y-113092666D02*
X138254666Y-112759333D01*
X138088000Y-113092666D02*
X138088000Y-112392666D01*
X138354666Y-112392666D01*
X138421333Y-112426000D01*
X138454666Y-112459333D01*
X138488000Y-112526000D01*
X138488000Y-112626000D01*
X138454666Y-112692666D01*
X138421333Y-112726000D01*
X138354666Y-112759333D01*
X138088000Y-112759333D01*
X139154666Y-113092666D02*
X138754666Y-113092666D01*
X138954666Y-113092666D02*
X138954666Y-112392666D01*
X138888000Y-112492666D01*
X138821333Y-112559333D01*
X138754666Y-112592666D01*
X139754666Y-112392666D02*
X139621333Y-112392666D01*
X139554666Y-112426000D01*
X139521333Y-112459333D01*
X139454666Y-112559333D01*
X139421333Y-112692666D01*
X139421333Y-112959333D01*
X139454666Y-113026000D01*
X139488000Y-113059333D01*
X139554666Y-113092666D01*
X139688000Y-113092666D01*
X139754666Y-113059333D01*
X139788000Y-113026000D01*
X139821333Y-112959333D01*
X139821333Y-112792666D01*
X139788000Y-112726000D01*
X139754666Y-112692666D01*
X139688000Y-112659333D01*
X139554666Y-112659333D01*
X139488000Y-112692666D01*
X139454666Y-112726000D01*
X139421333Y-112792666D01*
%TO.C,C20*%
X174556000Y-110740000D02*
X174522666Y-110773333D01*
X174422666Y-110806666D01*
X174356000Y-110806666D01*
X174256000Y-110773333D01*
X174189333Y-110706666D01*
X174156000Y-110640000D01*
X174122666Y-110506666D01*
X174122666Y-110406666D01*
X174156000Y-110273333D01*
X174189333Y-110206666D01*
X174256000Y-110140000D01*
X174356000Y-110106666D01*
X174422666Y-110106666D01*
X174522666Y-110140000D01*
X174556000Y-110173333D01*
X174822666Y-110173333D02*
X174856000Y-110140000D01*
X174922666Y-110106666D01*
X175089333Y-110106666D01*
X175156000Y-110140000D01*
X175189333Y-110173333D01*
X175222666Y-110240000D01*
X175222666Y-110306666D01*
X175189333Y-110406666D01*
X174789333Y-110806666D01*
X175222666Y-110806666D01*
X175656000Y-110106666D02*
X175722666Y-110106666D01*
X175789333Y-110140000D01*
X175822666Y-110173333D01*
X175856000Y-110240000D01*
X175889333Y-110373333D01*
X175889333Y-110540000D01*
X175856000Y-110673333D01*
X175822666Y-110740000D01*
X175789333Y-110773333D01*
X175722666Y-110806666D01*
X175656000Y-110806666D01*
X175589333Y-110773333D01*
X175556000Y-110740000D01*
X175522666Y-110673333D01*
X175489333Y-110540000D01*
X175489333Y-110373333D01*
X175522666Y-110240000D01*
X175556000Y-110173333D01*
X175589333Y-110140000D01*
X175656000Y-110106666D01*
%TO.C,C6*%
X122932000Y-122544666D02*
X122965333Y-122578000D01*
X122998666Y-122678000D01*
X122998666Y-122744666D01*
X122965333Y-122844666D01*
X122898666Y-122911333D01*
X122832000Y-122944666D01*
X122698666Y-122978000D01*
X122598666Y-122978000D01*
X122465333Y-122944666D01*
X122398666Y-122911333D01*
X122332000Y-122844666D01*
X122298666Y-122744666D01*
X122298666Y-122678000D01*
X122332000Y-122578000D01*
X122365333Y-122544666D01*
X122298666Y-121944666D02*
X122298666Y-122078000D01*
X122332000Y-122144666D01*
X122365333Y-122178000D01*
X122465333Y-122244666D01*
X122598666Y-122278000D01*
X122865333Y-122278000D01*
X122932000Y-122244666D01*
X122965333Y-122211333D01*
X122998666Y-122144666D01*
X122998666Y-122011333D01*
X122965333Y-121944666D01*
X122932000Y-121911333D01*
X122865333Y-121878000D01*
X122698666Y-121878000D01*
X122632000Y-121911333D01*
X122598666Y-121944666D01*
X122565333Y-122011333D01*
X122565333Y-122144666D01*
X122598666Y-122211333D01*
X122632000Y-122244666D01*
X122698666Y-122278000D01*
%TO.C,R4*%
X123581333Y-114870666D02*
X123348000Y-114537333D01*
X123181333Y-114870666D02*
X123181333Y-114170666D01*
X123448000Y-114170666D01*
X123514666Y-114204000D01*
X123548000Y-114237333D01*
X123581333Y-114304000D01*
X123581333Y-114404000D01*
X123548000Y-114470666D01*
X123514666Y-114504000D01*
X123448000Y-114537333D01*
X123181333Y-114537333D01*
X124181333Y-114404000D02*
X124181333Y-114870666D01*
X124014666Y-114137333D02*
X123848000Y-114637333D01*
X124281333Y-114637333D01*
%TO.C,C10*%
X112834000Y-116074000D02*
X112800666Y-116107333D01*
X112700666Y-116140666D01*
X112634000Y-116140666D01*
X112534000Y-116107333D01*
X112467333Y-116040666D01*
X112434000Y-115974000D01*
X112400666Y-115840666D01*
X112400666Y-115740666D01*
X112434000Y-115607333D01*
X112467333Y-115540666D01*
X112534000Y-115474000D01*
X112634000Y-115440666D01*
X112700666Y-115440666D01*
X112800666Y-115474000D01*
X112834000Y-115507333D01*
X113500666Y-116140666D02*
X113100666Y-116140666D01*
X113300666Y-116140666D02*
X113300666Y-115440666D01*
X113234000Y-115540666D01*
X113167333Y-115607333D01*
X113100666Y-115640666D01*
X113934000Y-115440666D02*
X114000666Y-115440666D01*
X114067333Y-115474000D01*
X114100666Y-115507333D01*
X114134000Y-115574000D01*
X114167333Y-115707333D01*
X114167333Y-115874000D01*
X114134000Y-116007333D01*
X114100666Y-116074000D01*
X114067333Y-116107333D01*
X114000666Y-116140666D01*
X113934000Y-116140666D01*
X113867333Y-116107333D01*
X113834000Y-116074000D01*
X113800666Y-116007333D01*
X113767333Y-115874000D01*
X113767333Y-115707333D01*
X113800666Y-115574000D01*
X113834000Y-115507333D01*
X113867333Y-115474000D01*
X113934000Y-115440666D01*
%TO.C,R10*%
X166178666Y-86810000D02*
X165845333Y-87043333D01*
X166178666Y-87210000D02*
X165478666Y-87210000D01*
X165478666Y-86943333D01*
X165512000Y-86876666D01*
X165545333Y-86843333D01*
X165612000Y-86810000D01*
X165712000Y-86810000D01*
X165778666Y-86843333D01*
X165812000Y-86876666D01*
X165845333Y-86943333D01*
X165845333Y-87210000D01*
X166178666Y-86143333D02*
X166178666Y-86543333D01*
X166178666Y-86343333D02*
X165478666Y-86343333D01*
X165578666Y-86410000D01*
X165645333Y-86476666D01*
X165678666Y-86543333D01*
X165478666Y-85710000D02*
X165478666Y-85643333D01*
X165512000Y-85576666D01*
X165545333Y-85543333D01*
X165612000Y-85510000D01*
X165745333Y-85476666D01*
X165912000Y-85476666D01*
X166045333Y-85510000D01*
X166112000Y-85543333D01*
X166145333Y-85576666D01*
X166178666Y-85643333D01*
X166178666Y-85710000D01*
X166145333Y-85776666D01*
X166112000Y-85810000D01*
X166045333Y-85843333D01*
X165912000Y-85876666D01*
X165745333Y-85876666D01*
X165612000Y-85843333D01*
X165545333Y-85810000D01*
X165512000Y-85776666D01*
X165478666Y-85710000D01*
%TO.C,C2*%
X130947333Y-101850000D02*
X130914000Y-101883333D01*
X130814000Y-101916666D01*
X130747333Y-101916666D01*
X130647333Y-101883333D01*
X130580666Y-101816666D01*
X130547333Y-101750000D01*
X130514000Y-101616666D01*
X130514000Y-101516666D01*
X130547333Y-101383333D01*
X130580666Y-101316666D01*
X130647333Y-101250000D01*
X130747333Y-101216666D01*
X130814000Y-101216666D01*
X130914000Y-101250000D01*
X130947333Y-101283333D01*
X131214000Y-101283333D02*
X131247333Y-101250000D01*
X131314000Y-101216666D01*
X131480666Y-101216666D01*
X131547333Y-101250000D01*
X131580666Y-101283333D01*
X131614000Y-101350000D01*
X131614000Y-101416666D01*
X131580666Y-101516666D01*
X131180666Y-101916666D01*
X131614000Y-101916666D01*
%TO.C,R13*%
X167194666Y-86810000D02*
X166861333Y-87043333D01*
X167194666Y-87210000D02*
X166494666Y-87210000D01*
X166494666Y-86943333D01*
X166528000Y-86876666D01*
X166561333Y-86843333D01*
X166628000Y-86810000D01*
X166728000Y-86810000D01*
X166794666Y-86843333D01*
X166828000Y-86876666D01*
X166861333Y-86943333D01*
X166861333Y-87210000D01*
X167194666Y-86143333D02*
X167194666Y-86543333D01*
X167194666Y-86343333D02*
X166494666Y-86343333D01*
X166594666Y-86410000D01*
X166661333Y-86476666D01*
X166694666Y-86543333D01*
X166494666Y-85910000D02*
X166494666Y-85476666D01*
X166761333Y-85710000D01*
X166761333Y-85610000D01*
X166794666Y-85543333D01*
X166828000Y-85510000D01*
X166894666Y-85476666D01*
X167061333Y-85476666D01*
X167128000Y-85510000D01*
X167161333Y-85543333D01*
X167194666Y-85610000D01*
X167194666Y-85810000D01*
X167161333Y-85876666D01*
X167128000Y-85910000D01*
%TO.C,R18*%
X168210666Y-86810000D02*
X167877333Y-87043333D01*
X168210666Y-87210000D02*
X167510666Y-87210000D01*
X167510666Y-86943333D01*
X167544000Y-86876666D01*
X167577333Y-86843333D01*
X167644000Y-86810000D01*
X167744000Y-86810000D01*
X167810666Y-86843333D01*
X167844000Y-86876666D01*
X167877333Y-86943333D01*
X167877333Y-87210000D01*
X168210666Y-86143333D02*
X168210666Y-86543333D01*
X168210666Y-86343333D02*
X167510666Y-86343333D01*
X167610666Y-86410000D01*
X167677333Y-86476666D01*
X167710666Y-86543333D01*
X167810666Y-85743333D02*
X167777333Y-85810000D01*
X167744000Y-85843333D01*
X167677333Y-85876666D01*
X167644000Y-85876666D01*
X167577333Y-85843333D01*
X167544000Y-85810000D01*
X167510666Y-85743333D01*
X167510666Y-85610000D01*
X167544000Y-85543333D01*
X167577333Y-85510000D01*
X167644000Y-85476666D01*
X167677333Y-85476666D01*
X167744000Y-85510000D01*
X167777333Y-85543333D01*
X167810666Y-85610000D01*
X167810666Y-85743333D01*
X167844000Y-85810000D01*
X167877333Y-85843333D01*
X167944000Y-85876666D01*
X168077333Y-85876666D01*
X168144000Y-85843333D01*
X168177333Y-85810000D01*
X168210666Y-85743333D01*
X168210666Y-85610000D01*
X168177333Y-85543333D01*
X168144000Y-85510000D01*
X168077333Y-85476666D01*
X167944000Y-85476666D01*
X167877333Y-85510000D01*
X167844000Y-85543333D01*
X167810666Y-85610000D01*
D11*
%TO.C,IC2*%
X146089809Y-109594380D02*
X146089809Y-108594380D01*
X147137428Y-109499142D02*
X147089809Y-109546761D01*
X146946952Y-109594380D01*
X146851714Y-109594380D01*
X146708857Y-109546761D01*
X146613619Y-109451523D01*
X146566000Y-109356285D01*
X146518380Y-109165809D01*
X146518380Y-109022952D01*
X146566000Y-108832476D01*
X146613619Y-108737238D01*
X146708857Y-108642000D01*
X146851714Y-108594380D01*
X146946952Y-108594380D01*
X147089809Y-108642000D01*
X147137428Y-108689619D01*
X147518380Y-108689619D02*
X147566000Y-108642000D01*
X147661238Y-108594380D01*
X147899333Y-108594380D01*
X147994571Y-108642000D01*
X148042190Y-108689619D01*
X148089809Y-108784857D01*
X148089809Y-108880095D01*
X148042190Y-109022952D01*
X147470761Y-109594380D01*
X148089809Y-109594380D01*
D10*
%TO.C,R22*%
X138488000Y-114362666D02*
X138254666Y-114029333D01*
X138088000Y-114362666D02*
X138088000Y-113662666D01*
X138354666Y-113662666D01*
X138421333Y-113696000D01*
X138454666Y-113729333D01*
X138488000Y-113796000D01*
X138488000Y-113896000D01*
X138454666Y-113962666D01*
X138421333Y-113996000D01*
X138354666Y-114029333D01*
X138088000Y-114029333D01*
X138754666Y-113729333D02*
X138788000Y-113696000D01*
X138854666Y-113662666D01*
X139021333Y-113662666D01*
X139088000Y-113696000D01*
X139121333Y-113729333D01*
X139154666Y-113796000D01*
X139154666Y-113862666D01*
X139121333Y-113962666D01*
X138721333Y-114362666D01*
X139154666Y-114362666D01*
X139421333Y-113729333D02*
X139454666Y-113696000D01*
X139521333Y-113662666D01*
X139688000Y-113662666D01*
X139754666Y-113696000D01*
X139788000Y-113729333D01*
X139821333Y-113796000D01*
X139821333Y-113862666D01*
X139788000Y-113962666D01*
X139388000Y-114362666D01*
X139821333Y-114362666D01*
%TO.C,J1*%
X119146666Y-94612666D02*
X119146666Y-95112666D01*
X119113333Y-95212666D01*
X119046666Y-95279333D01*
X118946666Y-95312666D01*
X118880000Y-95312666D01*
X119846666Y-95312666D02*
X119446666Y-95312666D01*
X119646666Y-95312666D02*
X119646666Y-94612666D01*
X119580000Y-94712666D01*
X119513333Y-94779333D01*
X119446666Y-94812666D01*
%TO.C,R21*%
X152458000Y-114312666D02*
X152224666Y-113979333D01*
X152058000Y-114312666D02*
X152058000Y-113612666D01*
X152324666Y-113612666D01*
X152391333Y-113646000D01*
X152424666Y-113679333D01*
X152458000Y-113746000D01*
X152458000Y-113846000D01*
X152424666Y-113912666D01*
X152391333Y-113946000D01*
X152324666Y-113979333D01*
X152058000Y-113979333D01*
X152724666Y-113679333D02*
X152758000Y-113646000D01*
X152824666Y-113612666D01*
X152991333Y-113612666D01*
X153058000Y-113646000D01*
X153091333Y-113679333D01*
X153124666Y-113746000D01*
X153124666Y-113812666D01*
X153091333Y-113912666D01*
X152691333Y-114312666D01*
X153124666Y-114312666D01*
X153791333Y-114312666D02*
X153391333Y-114312666D01*
X153591333Y-114312666D02*
X153591333Y-113612666D01*
X153524666Y-113712666D01*
X153458000Y-113779333D01*
X153391333Y-113812666D01*
%TO.C,R14*%
X167194666Y-91382000D02*
X166861333Y-91615333D01*
X167194666Y-91782000D02*
X166494666Y-91782000D01*
X166494666Y-91515333D01*
X166528000Y-91448666D01*
X166561333Y-91415333D01*
X166628000Y-91382000D01*
X166728000Y-91382000D01*
X166794666Y-91415333D01*
X166828000Y-91448666D01*
X166861333Y-91515333D01*
X166861333Y-91782000D01*
X167194666Y-90715333D02*
X167194666Y-91115333D01*
X167194666Y-90915333D02*
X166494666Y-90915333D01*
X166594666Y-90982000D01*
X166661333Y-91048666D01*
X166694666Y-91115333D01*
X166728000Y-90115333D02*
X167194666Y-90115333D01*
X166461333Y-90282000D02*
X166961333Y-90448666D01*
X166961333Y-90015333D01*
%TO.C,C9*%
X112264000Y-122544666D02*
X112297333Y-122578000D01*
X112330666Y-122678000D01*
X112330666Y-122744666D01*
X112297333Y-122844666D01*
X112230666Y-122911333D01*
X112164000Y-122944666D01*
X112030666Y-122978000D01*
X111930666Y-122978000D01*
X111797333Y-122944666D01*
X111730666Y-122911333D01*
X111664000Y-122844666D01*
X111630666Y-122744666D01*
X111630666Y-122678000D01*
X111664000Y-122578000D01*
X111697333Y-122544666D01*
X112330666Y-122211333D02*
X112330666Y-122078000D01*
X112297333Y-122011333D01*
X112264000Y-121978000D01*
X112164000Y-121911333D01*
X112030666Y-121878000D01*
X111764000Y-121878000D01*
X111697333Y-121911333D01*
X111664000Y-121944666D01*
X111630666Y-122011333D01*
X111630666Y-122144666D01*
X111664000Y-122211333D01*
X111697333Y-122244666D01*
X111764000Y-122278000D01*
X111930666Y-122278000D01*
X111997333Y-122244666D01*
X112030666Y-122211333D01*
X112064000Y-122144666D01*
X112064000Y-122011333D01*
X112030666Y-121944666D01*
X111997333Y-121911333D01*
X111930666Y-121878000D01*
%TO.C,D1*%
X130547333Y-106996666D02*
X130547333Y-106296666D01*
X130714000Y-106296666D01*
X130814000Y-106330000D01*
X130880666Y-106396666D01*
X130914000Y-106463333D01*
X130947333Y-106596666D01*
X130947333Y-106696666D01*
X130914000Y-106830000D01*
X130880666Y-106896666D01*
X130814000Y-106963333D01*
X130714000Y-106996666D01*
X130547333Y-106996666D01*
X131614000Y-106996666D02*
X131214000Y-106996666D01*
X131414000Y-106996666D02*
X131414000Y-106296666D01*
X131347333Y-106396666D01*
X131280666Y-106463333D01*
X131214000Y-106496666D01*
%TO.C,C5*%
X123186000Y-126354666D02*
X123219333Y-126388000D01*
X123252666Y-126488000D01*
X123252666Y-126554666D01*
X123219333Y-126654666D01*
X123152666Y-126721333D01*
X123086000Y-126754666D01*
X122952666Y-126788000D01*
X122852666Y-126788000D01*
X122719333Y-126754666D01*
X122652666Y-126721333D01*
X122586000Y-126654666D01*
X122552666Y-126554666D01*
X122552666Y-126488000D01*
X122586000Y-126388000D01*
X122619333Y-126354666D01*
X122552666Y-125721333D02*
X122552666Y-126054666D01*
X122886000Y-126088000D01*
X122852666Y-126054666D01*
X122819333Y-125988000D01*
X122819333Y-125821333D01*
X122852666Y-125754666D01*
X122886000Y-125721333D01*
X122952666Y-125688000D01*
X123119333Y-125688000D01*
X123186000Y-125721333D01*
X123219333Y-125754666D01*
X123252666Y-125821333D01*
X123252666Y-125988000D01*
X123219333Y-126054666D01*
X123186000Y-126088000D01*
%TO.C,R23*%
X162622666Y-107638000D02*
X162289333Y-107871333D01*
X162622666Y-108038000D02*
X161922666Y-108038000D01*
X161922666Y-107771333D01*
X161956000Y-107704666D01*
X161989333Y-107671333D01*
X162056000Y-107638000D01*
X162156000Y-107638000D01*
X162222666Y-107671333D01*
X162256000Y-107704666D01*
X162289333Y-107771333D01*
X162289333Y-108038000D01*
X161989333Y-107371333D02*
X161956000Y-107338000D01*
X161922666Y-107271333D01*
X161922666Y-107104666D01*
X161956000Y-107038000D01*
X161989333Y-107004666D01*
X162056000Y-106971333D01*
X162122666Y-106971333D01*
X162222666Y-107004666D01*
X162622666Y-107404666D01*
X162622666Y-106971333D01*
X161922666Y-106738000D02*
X161922666Y-106304666D01*
X162189333Y-106538000D01*
X162189333Y-106438000D01*
X162222666Y-106371333D01*
X162256000Y-106338000D01*
X162322666Y-106304666D01*
X162489333Y-106304666D01*
X162556000Y-106338000D01*
X162589333Y-106371333D01*
X162622666Y-106438000D01*
X162622666Y-106638000D01*
X162589333Y-106704666D01*
X162556000Y-106738000D01*
%TO.C,XTAL1*%
X140315333Y-89024666D02*
X140782000Y-89724666D01*
X140782000Y-89024666D02*
X140315333Y-89724666D01*
X140948666Y-89024666D02*
X141348666Y-89024666D01*
X141148666Y-89724666D02*
X141148666Y-89024666D01*
X141548666Y-89524666D02*
X141882000Y-89524666D01*
X141482000Y-89724666D02*
X141715333Y-89024666D01*
X141948666Y-89724666D01*
X142515333Y-89724666D02*
X142182000Y-89724666D01*
X142182000Y-89024666D01*
X143115333Y-89724666D02*
X142715333Y-89724666D01*
X142915333Y-89724666D02*
X142915333Y-89024666D01*
X142848666Y-89124666D01*
X142782000Y-89191333D01*
X142715333Y-89224666D01*
%TO.C,R9*%
X123506666Y-117718666D02*
X123173333Y-117952000D01*
X123506666Y-118118666D02*
X122806666Y-118118666D01*
X122806666Y-117852000D01*
X122840000Y-117785333D01*
X122873333Y-117752000D01*
X122940000Y-117718666D01*
X123040000Y-117718666D01*
X123106666Y-117752000D01*
X123140000Y-117785333D01*
X123173333Y-117852000D01*
X123173333Y-118118666D01*
X123506666Y-117385333D02*
X123506666Y-117252000D01*
X123473333Y-117185333D01*
X123440000Y-117152000D01*
X123340000Y-117085333D01*
X123206666Y-117052000D01*
X122940000Y-117052000D01*
X122873333Y-117085333D01*
X122840000Y-117118666D01*
X122806666Y-117185333D01*
X122806666Y-117318666D01*
X122840000Y-117385333D01*
X122873333Y-117418666D01*
X122940000Y-117452000D01*
X123106666Y-117452000D01*
X123173333Y-117418666D01*
X123206666Y-117385333D01*
X123240000Y-117318666D01*
X123240000Y-117185333D01*
X123206666Y-117118666D01*
X123173333Y-117085333D01*
X123106666Y-117052000D01*
%TO.C,C21*%
X169222000Y-114296000D02*
X169188666Y-114329333D01*
X169088666Y-114362666D01*
X169022000Y-114362666D01*
X168922000Y-114329333D01*
X168855333Y-114262666D01*
X168822000Y-114196000D01*
X168788666Y-114062666D01*
X168788666Y-113962666D01*
X168822000Y-113829333D01*
X168855333Y-113762666D01*
X168922000Y-113696000D01*
X169022000Y-113662666D01*
X169088666Y-113662666D01*
X169188666Y-113696000D01*
X169222000Y-113729333D01*
X169488666Y-113729333D02*
X169522000Y-113696000D01*
X169588666Y-113662666D01*
X169755333Y-113662666D01*
X169822000Y-113696000D01*
X169855333Y-113729333D01*
X169888666Y-113796000D01*
X169888666Y-113862666D01*
X169855333Y-113962666D01*
X169455333Y-114362666D01*
X169888666Y-114362666D01*
X170555333Y-114362666D02*
X170155333Y-114362666D01*
X170355333Y-114362666D02*
X170355333Y-113662666D01*
X170288666Y-113762666D01*
X170222000Y-113829333D01*
X170155333Y-113862666D01*
%TO.C,C7*%
X122932000Y-119496666D02*
X122965333Y-119530000D01*
X122998666Y-119630000D01*
X122998666Y-119696666D01*
X122965333Y-119796666D01*
X122898666Y-119863333D01*
X122832000Y-119896666D01*
X122698666Y-119930000D01*
X122598666Y-119930000D01*
X122465333Y-119896666D01*
X122398666Y-119863333D01*
X122332000Y-119796666D01*
X122298666Y-119696666D01*
X122298666Y-119630000D01*
X122332000Y-119530000D01*
X122365333Y-119496666D01*
X122298666Y-119263333D02*
X122298666Y-118796666D01*
X122998666Y-119096666D01*
%TO.C,C11*%
X138234000Y-89912000D02*
X138200666Y-89945333D01*
X138100666Y-89978666D01*
X138034000Y-89978666D01*
X137934000Y-89945333D01*
X137867333Y-89878666D01*
X137834000Y-89812000D01*
X137800666Y-89678666D01*
X137800666Y-89578666D01*
X137834000Y-89445333D01*
X137867333Y-89378666D01*
X137934000Y-89312000D01*
X138034000Y-89278666D01*
X138100666Y-89278666D01*
X138200666Y-89312000D01*
X138234000Y-89345333D01*
X138900666Y-89978666D02*
X138500666Y-89978666D01*
X138700666Y-89978666D02*
X138700666Y-89278666D01*
X138634000Y-89378666D01*
X138567333Y-89445333D01*
X138500666Y-89478666D01*
X139567333Y-89978666D02*
X139167333Y-89978666D01*
X139367333Y-89978666D02*
X139367333Y-89278666D01*
X139300666Y-89378666D01*
X139234000Y-89445333D01*
X139167333Y-89478666D01*
%TO.C,D2*%
X127245333Y-116394666D02*
X127245333Y-115694666D01*
X127412000Y-115694666D01*
X127512000Y-115728000D01*
X127578666Y-115794666D01*
X127612000Y-115861333D01*
X127645333Y-115994666D01*
X127645333Y-116094666D01*
X127612000Y-116228000D01*
X127578666Y-116294666D01*
X127512000Y-116361333D01*
X127412000Y-116394666D01*
X127245333Y-116394666D01*
X127912000Y-115761333D02*
X127945333Y-115728000D01*
X128012000Y-115694666D01*
X128178666Y-115694666D01*
X128245333Y-115728000D01*
X128278666Y-115761333D01*
X128312000Y-115828000D01*
X128312000Y-115894666D01*
X128278666Y-115994666D01*
X127878666Y-116394666D01*
X128312000Y-116394666D01*
%TO.C,R24*%
X161856000Y-121474666D02*
X161622666Y-121141333D01*
X161456000Y-121474666D02*
X161456000Y-120774666D01*
X161722666Y-120774666D01*
X161789333Y-120808000D01*
X161822666Y-120841333D01*
X161856000Y-120908000D01*
X161856000Y-121008000D01*
X161822666Y-121074666D01*
X161789333Y-121108000D01*
X161722666Y-121141333D01*
X161456000Y-121141333D01*
X162122666Y-120841333D02*
X162156000Y-120808000D01*
X162222666Y-120774666D01*
X162389333Y-120774666D01*
X162456000Y-120808000D01*
X162489333Y-120841333D01*
X162522666Y-120908000D01*
X162522666Y-120974666D01*
X162489333Y-121074666D01*
X162089333Y-121474666D01*
X162522666Y-121474666D01*
X163122666Y-121008000D02*
X163122666Y-121474666D01*
X162956000Y-120741333D02*
X162789333Y-121241333D01*
X163222666Y-121241333D01*
%TO.C,R3*%
X121803333Y-114870666D02*
X121570000Y-114537333D01*
X121403333Y-114870666D02*
X121403333Y-114170666D01*
X121670000Y-114170666D01*
X121736666Y-114204000D01*
X121770000Y-114237333D01*
X121803333Y-114304000D01*
X121803333Y-114404000D01*
X121770000Y-114470666D01*
X121736666Y-114504000D01*
X121670000Y-114537333D01*
X121403333Y-114537333D01*
X122036666Y-114170666D02*
X122470000Y-114170666D01*
X122236666Y-114437333D01*
X122336666Y-114437333D01*
X122403333Y-114470666D01*
X122436666Y-114504000D01*
X122470000Y-114570666D01*
X122470000Y-114737333D01*
X122436666Y-114804000D01*
X122403333Y-114837333D01*
X122336666Y-114870666D01*
X122136666Y-114870666D01*
X122070000Y-114837333D01*
X122036666Y-114804000D01*
%TO.C,C1*%
X130693333Y-103882000D02*
X130660000Y-103915333D01*
X130560000Y-103948666D01*
X130493333Y-103948666D01*
X130393333Y-103915333D01*
X130326666Y-103848666D01*
X130293333Y-103782000D01*
X130260000Y-103648666D01*
X130260000Y-103548666D01*
X130293333Y-103415333D01*
X130326666Y-103348666D01*
X130393333Y-103282000D01*
X130493333Y-103248666D01*
X130560000Y-103248666D01*
X130660000Y-103282000D01*
X130693333Y-103315333D01*
X131360000Y-103948666D02*
X130960000Y-103948666D01*
X131160000Y-103948666D02*
X131160000Y-103248666D01*
X131093333Y-103348666D01*
X131026666Y-103415333D01*
X130960000Y-103448666D01*
%TO.C,C19*%
X149217142Y-128627142D02*
X149169523Y-128674761D01*
X149026666Y-128722380D01*
X148931428Y-128722380D01*
X148788571Y-128674761D01*
X148693333Y-128579523D01*
X148645714Y-128484285D01*
X148598095Y-128293809D01*
X148598095Y-128150952D01*
X148645714Y-127960476D01*
X148693333Y-127865238D01*
X148788571Y-127770000D01*
X148931428Y-127722380D01*
X149026666Y-127722380D01*
X149169523Y-127770000D01*
X149217142Y-127817619D01*
X150169523Y-128722380D02*
X149598095Y-128722380D01*
X149883809Y-128722380D02*
X149883809Y-127722380D01*
X149788571Y-127865238D01*
X149693333Y-127960476D01*
X149598095Y-128008095D01*
X150645714Y-128722380D02*
X150836190Y-128722380D01*
X150931428Y-128674761D01*
X150979047Y-128627142D01*
X151074285Y-128484285D01*
X151121904Y-128293809D01*
X151121904Y-127912857D01*
X151074285Y-127817619D01*
X151026666Y-127770000D01*
X150931428Y-127722380D01*
X150740952Y-127722380D01*
X150645714Y-127770000D01*
X150598095Y-127817619D01*
X150550476Y-127912857D01*
X150550476Y-128150952D01*
X150598095Y-128246190D01*
X150645714Y-128293809D01*
X150740952Y-128341428D01*
X150931428Y-128341428D01*
X151026666Y-128293809D01*
X151074285Y-128246190D01*
X151121904Y-128150952D01*
D12*
%TO.C,R19*%
X168210666Y-91382000D02*
X167877333Y-91615333D01*
X168210666Y-91782000D02*
X167510666Y-91782000D01*
X167510666Y-91515333D01*
X167544000Y-91448666D01*
X167577333Y-91415333D01*
X167644000Y-91382000D01*
X167744000Y-91382000D01*
X167810666Y-91415333D01*
X167844000Y-91448666D01*
X167877333Y-91515333D01*
X167877333Y-91782000D01*
X168210666Y-90715333D02*
X168210666Y-91115333D01*
X168210666Y-90915333D02*
X167510666Y-90915333D01*
X167610666Y-90982000D01*
X167677333Y-91048666D01*
X167710666Y-91115333D01*
X168210666Y-90382000D02*
X168210666Y-90248666D01*
X168177333Y-90182000D01*
X168144000Y-90148666D01*
X168044000Y-90082000D01*
X167910666Y-90048666D01*
X167644000Y-90048666D01*
X167577333Y-90082000D01*
X167544000Y-90115333D01*
X167510666Y-90182000D01*
X167510666Y-90315333D01*
X167544000Y-90382000D01*
X167577333Y-90415333D01*
X167644000Y-90448666D01*
X167810666Y-90448666D01*
X167877333Y-90415333D01*
X167910666Y-90382000D01*
X167944000Y-90315333D01*
X167944000Y-90182000D01*
X167910666Y-90115333D01*
X167877333Y-90082000D01*
X167810666Y-90048666D01*
D11*
%TO.C,IC3*%
X146597809Y-117862380D02*
X146597809Y-116862380D01*
X147645428Y-117767142D02*
X147597809Y-117814761D01*
X147454952Y-117862380D01*
X147359714Y-117862380D01*
X147216857Y-117814761D01*
X147121619Y-117719523D01*
X147074000Y-117624285D01*
X147026380Y-117433809D01*
X147026380Y-117290952D01*
X147074000Y-117100476D01*
X147121619Y-117005238D01*
X147216857Y-116910000D01*
X147359714Y-116862380D01*
X147454952Y-116862380D01*
X147597809Y-116910000D01*
X147645428Y-116957619D01*
X147978761Y-116862380D02*
X148597809Y-116862380D01*
X148264476Y-117243333D01*
X148407333Y-117243333D01*
X148502571Y-117290952D01*
X148550190Y-117338571D01*
X148597809Y-117433809D01*
X148597809Y-117671904D01*
X148550190Y-117767142D01*
X148502571Y-117814761D01*
X148407333Y-117862380D01*
X148121619Y-117862380D01*
X148026380Y-117814761D01*
X147978761Y-117767142D01*
D13*
%TO.C,IC1*%
X121998666Y-102170666D02*
X121998666Y-101470666D01*
X122732000Y-102104000D02*
X122698666Y-102137333D01*
X122598666Y-102170666D01*
X122532000Y-102170666D01*
X122432000Y-102137333D01*
X122365333Y-102070666D01*
X122332000Y-102004000D01*
X122298666Y-101870666D01*
X122298666Y-101770666D01*
X122332000Y-101637333D01*
X122365333Y-101570666D01*
X122432000Y-101504000D01*
X122532000Y-101470666D01*
X122598666Y-101470666D01*
X122698666Y-101504000D01*
X122732000Y-101537333D01*
X123398666Y-102170666D02*
X122998666Y-102170666D01*
X123198666Y-102170666D02*
X123198666Y-101470666D01*
X123132000Y-101570666D01*
X123065333Y-101637333D01*
X122998666Y-101670666D01*
D10*
%TO.C,C3*%
X131201333Y-108708000D02*
X131168000Y-108741333D01*
X131068000Y-108774666D01*
X131001333Y-108774666D01*
X130901333Y-108741333D01*
X130834666Y-108674666D01*
X130801333Y-108608000D01*
X130768000Y-108474666D01*
X130768000Y-108374666D01*
X130801333Y-108241333D01*
X130834666Y-108174666D01*
X130901333Y-108108000D01*
X131001333Y-108074666D01*
X131068000Y-108074666D01*
X131168000Y-108108000D01*
X131201333Y-108141333D01*
X131434666Y-108074666D02*
X131868000Y-108074666D01*
X131634666Y-108341333D01*
X131734666Y-108341333D01*
X131801333Y-108374666D01*
X131834666Y-108408000D01*
X131868000Y-108474666D01*
X131868000Y-108641333D01*
X131834666Y-108708000D01*
X131801333Y-108741333D01*
X131734666Y-108774666D01*
X131534666Y-108774666D01*
X131468000Y-108741333D01*
X131434666Y-108708000D01*
%TO.C,R6*%
X152029333Y-81342666D02*
X151796000Y-81009333D01*
X151629333Y-81342666D02*
X151629333Y-80642666D01*
X151896000Y-80642666D01*
X151962666Y-80676000D01*
X151996000Y-80709333D01*
X152029333Y-80776000D01*
X152029333Y-80876000D01*
X151996000Y-80942666D01*
X151962666Y-80976000D01*
X151896000Y-81009333D01*
X151629333Y-81009333D01*
X152629333Y-80642666D02*
X152496000Y-80642666D01*
X152429333Y-80676000D01*
X152396000Y-80709333D01*
X152329333Y-80809333D01*
X152296000Y-80942666D01*
X152296000Y-81209333D01*
X152329333Y-81276000D01*
X152362666Y-81309333D01*
X152429333Y-81342666D01*
X152562666Y-81342666D01*
X152629333Y-81309333D01*
X152662666Y-81276000D01*
X152696000Y-81209333D01*
X152696000Y-81042666D01*
X152662666Y-80976000D01*
X152629333Y-80942666D01*
X152562666Y-80909333D01*
X152429333Y-80909333D01*
X152362666Y-80942666D01*
X152329333Y-80976000D01*
X152296000Y-81042666D01*
%TO.C,XTAL2*%
X127869333Y-79626666D02*
X128336000Y-80326666D01*
X128336000Y-79626666D02*
X127869333Y-80326666D01*
X128502666Y-79626666D02*
X128902666Y-79626666D01*
X128702666Y-80326666D02*
X128702666Y-79626666D01*
X129102666Y-80126666D02*
X129436000Y-80126666D01*
X129036000Y-80326666D02*
X129269333Y-79626666D01*
X129502666Y-80326666D01*
X130069333Y-80326666D02*
X129736000Y-80326666D01*
X129736000Y-79626666D01*
X130269333Y-79693333D02*
X130302666Y-79660000D01*
X130369333Y-79626666D01*
X130536000Y-79626666D01*
X130602666Y-79660000D01*
X130636000Y-79693333D01*
X130669333Y-79760000D01*
X130669333Y-79826666D01*
X130636000Y-79926666D01*
X130236000Y-80326666D01*
X130669333Y-80326666D01*
%TO.C,C17*%
X147824000Y-105352000D02*
X147857333Y-105385333D01*
X147890666Y-105485333D01*
X147890666Y-105552000D01*
X147857333Y-105652000D01*
X147790666Y-105718666D01*
X147724000Y-105752000D01*
X147590666Y-105785333D01*
X147490666Y-105785333D01*
X147357333Y-105752000D01*
X147290666Y-105718666D01*
X147224000Y-105652000D01*
X147190666Y-105552000D01*
X147190666Y-105485333D01*
X147224000Y-105385333D01*
X147257333Y-105352000D01*
X147890666Y-104685333D02*
X147890666Y-105085333D01*
X147890666Y-104885333D02*
X147190666Y-104885333D01*
X147290666Y-104952000D01*
X147357333Y-105018666D01*
X147390666Y-105085333D01*
X147190666Y-104452000D02*
X147190666Y-103985333D01*
X147890666Y-104285333D01*
%TO.C,D3*%
X148327333Y-101408666D02*
X148327333Y-100708666D01*
X148494000Y-100708666D01*
X148594000Y-100742000D01*
X148660666Y-100808666D01*
X148694000Y-100875333D01*
X148727333Y-101008666D01*
X148727333Y-101108666D01*
X148694000Y-101242000D01*
X148660666Y-101308666D01*
X148594000Y-101375333D01*
X148494000Y-101408666D01*
X148327333Y-101408666D01*
X148960666Y-100708666D02*
X149394000Y-100708666D01*
X149160666Y-100975333D01*
X149260666Y-100975333D01*
X149327333Y-101008666D01*
X149360666Y-101042000D01*
X149394000Y-101108666D01*
X149394000Y-101275333D01*
X149360666Y-101342000D01*
X149327333Y-101375333D01*
X149260666Y-101408666D01*
X149060666Y-101408666D01*
X148994000Y-101375333D01*
X148960666Y-101342000D01*
%TO.C,R20*%
X168210666Y-96208000D02*
X167877333Y-96441333D01*
X168210666Y-96608000D02*
X167510666Y-96608000D01*
X167510666Y-96341333D01*
X167544000Y-96274666D01*
X167577333Y-96241333D01*
X167644000Y-96208000D01*
X167744000Y-96208000D01*
X167810666Y-96241333D01*
X167844000Y-96274666D01*
X167877333Y-96341333D01*
X167877333Y-96608000D01*
X167577333Y-95941333D02*
X167544000Y-95908000D01*
X167510666Y-95841333D01*
X167510666Y-95674666D01*
X167544000Y-95608000D01*
X167577333Y-95574666D01*
X167644000Y-95541333D01*
X167710666Y-95541333D01*
X167810666Y-95574666D01*
X168210666Y-95974666D01*
X168210666Y-95541333D01*
X167510666Y-95108000D02*
X167510666Y-95041333D01*
X167544000Y-94974666D01*
X167577333Y-94941333D01*
X167644000Y-94908000D01*
X167777333Y-94874666D01*
X167944000Y-94874666D01*
X168077333Y-94908000D01*
X168144000Y-94941333D01*
X168177333Y-94974666D01*
X168210666Y-95041333D01*
X168210666Y-95108000D01*
X168177333Y-95174666D01*
X168144000Y-95208000D01*
X168077333Y-95241333D01*
X167944000Y-95274666D01*
X167777333Y-95274666D01*
X167644000Y-95241333D01*
X167577333Y-95208000D01*
X167544000Y-95174666D01*
X167510666Y-95108000D01*
%TO.C,C23*%
X133854000Y-81938000D02*
X133887333Y-81971333D01*
X133920666Y-82071333D01*
X133920666Y-82138000D01*
X133887333Y-82238000D01*
X133820666Y-82304666D01*
X133754000Y-82338000D01*
X133620666Y-82371333D01*
X133520666Y-82371333D01*
X133387333Y-82338000D01*
X133320666Y-82304666D01*
X133254000Y-82238000D01*
X133220666Y-82138000D01*
X133220666Y-82071333D01*
X133254000Y-81971333D01*
X133287333Y-81938000D01*
X133287333Y-81671333D02*
X133254000Y-81638000D01*
X133220666Y-81571333D01*
X133220666Y-81404666D01*
X133254000Y-81338000D01*
X133287333Y-81304666D01*
X133354000Y-81271333D01*
X133420666Y-81271333D01*
X133520666Y-81304666D01*
X133920666Y-81704666D01*
X133920666Y-81271333D01*
X133220666Y-81038000D02*
X133220666Y-80604666D01*
X133487333Y-80838000D01*
X133487333Y-80738000D01*
X133520666Y-80671333D01*
X133554000Y-80638000D01*
X133620666Y-80604666D01*
X133787333Y-80604666D01*
X133854000Y-80638000D01*
X133887333Y-80671333D01*
X133920666Y-80738000D01*
X133920666Y-80938000D01*
X133887333Y-81004666D01*
X133854000Y-81038000D01*
%TO.C,R1*%
X126883333Y-112838666D02*
X126650000Y-112505333D01*
X126483333Y-112838666D02*
X126483333Y-112138666D01*
X126750000Y-112138666D01*
X126816666Y-112172000D01*
X126850000Y-112205333D01*
X126883333Y-112272000D01*
X126883333Y-112372000D01*
X126850000Y-112438666D01*
X126816666Y-112472000D01*
X126750000Y-112505333D01*
X126483333Y-112505333D01*
X127550000Y-112838666D02*
X127150000Y-112838666D01*
X127350000Y-112838666D02*
X127350000Y-112138666D01*
X127283333Y-112238666D01*
X127216666Y-112305333D01*
X127150000Y-112338666D01*
%TO.C,R7*%
X132725333Y-93534666D02*
X132492000Y-93201333D01*
X132325333Y-93534666D02*
X132325333Y-92834666D01*
X132592000Y-92834666D01*
X132658666Y-92868000D01*
X132692000Y-92901333D01*
X132725333Y-92968000D01*
X132725333Y-93068000D01*
X132692000Y-93134666D01*
X132658666Y-93168000D01*
X132592000Y-93201333D01*
X132325333Y-93201333D01*
X132958666Y-92834666D02*
X133425333Y-92834666D01*
X133125333Y-93534666D01*
%TO.C,J5*%
X167660666Y-81368666D02*
X167660666Y-81868666D01*
X167627333Y-81968666D01*
X167560666Y-82035333D01*
X167460666Y-82068666D01*
X167394000Y-82068666D01*
X168327333Y-81368666D02*
X167994000Y-81368666D01*
X167960666Y-81702000D01*
X167994000Y-81668666D01*
X168060666Y-81635333D01*
X168227333Y-81635333D01*
X168294000Y-81668666D01*
X168327333Y-81702000D01*
X168360666Y-81768666D01*
X168360666Y-81935333D01*
X168327333Y-82002000D01*
X168294000Y-82035333D01*
X168227333Y-82068666D01*
X168060666Y-82068666D01*
X167994000Y-82035333D01*
X167960666Y-82002000D01*
%TO.C,C4*%
X125359333Y-113534000D02*
X125326000Y-113567333D01*
X125226000Y-113600666D01*
X125159333Y-113600666D01*
X125059333Y-113567333D01*
X124992666Y-113500666D01*
X124959333Y-113434000D01*
X124926000Y-113300666D01*
X124926000Y-113200666D01*
X124959333Y-113067333D01*
X124992666Y-113000666D01*
X125059333Y-112934000D01*
X125159333Y-112900666D01*
X125226000Y-112900666D01*
X125326000Y-112934000D01*
X125359333Y-112967333D01*
X125959333Y-113134000D02*
X125959333Y-113600666D01*
X125792666Y-112867333D02*
X125626000Y-113367333D01*
X126059333Y-113367333D01*
%TO.C,R15*%
X167194666Y-96208000D02*
X166861333Y-96441333D01*
X167194666Y-96608000D02*
X166494666Y-96608000D01*
X166494666Y-96341333D01*
X166528000Y-96274666D01*
X166561333Y-96241333D01*
X166628000Y-96208000D01*
X166728000Y-96208000D01*
X166794666Y-96241333D01*
X166828000Y-96274666D01*
X166861333Y-96341333D01*
X166861333Y-96608000D01*
X167194666Y-95541333D02*
X167194666Y-95941333D01*
X167194666Y-95741333D02*
X166494666Y-95741333D01*
X166594666Y-95808000D01*
X166661333Y-95874666D01*
X166694666Y-95941333D01*
X166494666Y-94908000D02*
X166494666Y-95241333D01*
X166828000Y-95274666D01*
X166794666Y-95241333D01*
X166761333Y-95174666D01*
X166761333Y-95008000D01*
X166794666Y-94941333D01*
X166828000Y-94908000D01*
X166894666Y-94874666D01*
X167061333Y-94874666D01*
X167128000Y-94908000D01*
X167161333Y-94941333D01*
X167194666Y-95008000D01*
X167194666Y-95174666D01*
X167161333Y-95241333D01*
X167128000Y-95274666D01*
%TO.C,R2*%
X119009333Y-113092666D02*
X118776000Y-112759333D01*
X118609333Y-113092666D02*
X118609333Y-112392666D01*
X118876000Y-112392666D01*
X118942666Y-112426000D01*
X118976000Y-112459333D01*
X119009333Y-112526000D01*
X119009333Y-112626000D01*
X118976000Y-112692666D01*
X118942666Y-112726000D01*
X118876000Y-112759333D01*
X118609333Y-112759333D01*
X119276000Y-112459333D02*
X119309333Y-112426000D01*
X119376000Y-112392666D01*
X119542666Y-112392666D01*
X119609333Y-112426000D01*
X119642666Y-112459333D01*
X119676000Y-112526000D01*
X119676000Y-112592666D01*
X119642666Y-112692666D01*
X119242666Y-113092666D01*
X119676000Y-113092666D01*
%TO.C,R5*%
X130439333Y-105472666D02*
X130206000Y-105139333D01*
X130039333Y-105472666D02*
X130039333Y-104772666D01*
X130306000Y-104772666D01*
X130372666Y-104806000D01*
X130406000Y-104839333D01*
X130439333Y-104906000D01*
X130439333Y-105006000D01*
X130406000Y-105072666D01*
X130372666Y-105106000D01*
X130306000Y-105139333D01*
X130039333Y-105139333D01*
X131072666Y-104772666D02*
X130739333Y-104772666D01*
X130706000Y-105106000D01*
X130739333Y-105072666D01*
X130806000Y-105039333D01*
X130972666Y-105039333D01*
X131039333Y-105072666D01*
X131072666Y-105106000D01*
X131106000Y-105172666D01*
X131106000Y-105339333D01*
X131072666Y-105406000D01*
X131039333Y-105439333D01*
X130972666Y-105472666D01*
X130806000Y-105472666D01*
X130739333Y-105439333D01*
X130706000Y-105406000D01*
%TO.C,R17*%
X151950000Y-112794666D02*
X151716666Y-112461333D01*
X151550000Y-112794666D02*
X151550000Y-112094666D01*
X151816666Y-112094666D01*
X151883333Y-112128000D01*
X151916666Y-112161333D01*
X151950000Y-112228000D01*
X151950000Y-112328000D01*
X151916666Y-112394666D01*
X151883333Y-112428000D01*
X151816666Y-112461333D01*
X151550000Y-112461333D01*
X152616666Y-112794666D02*
X152216666Y-112794666D01*
X152416666Y-112794666D02*
X152416666Y-112094666D01*
X152350000Y-112194666D01*
X152283333Y-112261333D01*
X152216666Y-112294666D01*
X152850000Y-112094666D02*
X153316666Y-112094666D01*
X153016666Y-112794666D01*
%TO.C,C22*%
X124264000Y-79752000D02*
X124230666Y-79785333D01*
X124130666Y-79818666D01*
X124064000Y-79818666D01*
X123964000Y-79785333D01*
X123897333Y-79718666D01*
X123864000Y-79652000D01*
X123830666Y-79518666D01*
X123830666Y-79418666D01*
X123864000Y-79285333D01*
X123897333Y-79218666D01*
X123964000Y-79152000D01*
X124064000Y-79118666D01*
X124130666Y-79118666D01*
X124230666Y-79152000D01*
X124264000Y-79185333D01*
X124530666Y-79185333D02*
X124564000Y-79152000D01*
X124630666Y-79118666D01*
X124797333Y-79118666D01*
X124864000Y-79152000D01*
X124897333Y-79185333D01*
X124930666Y-79252000D01*
X124930666Y-79318666D01*
X124897333Y-79418666D01*
X124497333Y-79818666D01*
X124930666Y-79818666D01*
X125197333Y-79185333D02*
X125230666Y-79152000D01*
X125297333Y-79118666D01*
X125464000Y-79118666D01*
X125530666Y-79152000D01*
X125564000Y-79185333D01*
X125597333Y-79252000D01*
X125597333Y-79318666D01*
X125564000Y-79418666D01*
X125164000Y-79818666D01*
X125597333Y-79818666D01*
%TO.C,J4*%
X169184666Y-96898666D02*
X169184666Y-97398666D01*
X169151333Y-97498666D01*
X169084666Y-97565333D01*
X168984666Y-97598666D01*
X168918000Y-97598666D01*
X169818000Y-97132000D02*
X169818000Y-97598666D01*
X169651333Y-96865333D02*
X169484666Y-97365333D01*
X169918000Y-97365333D01*
%TO.C,L1*%
X112842380Y-107354666D02*
X112842380Y-107830857D01*
X111842380Y-107830857D01*
X112842380Y-106497523D02*
X112842380Y-107068952D01*
X112842380Y-106783238D02*
X111842380Y-106783238D01*
X111985238Y-106878476D01*
X112080476Y-106973714D01*
X112128095Y-107068952D01*
%TO.C,C15*%
X132392000Y-88134000D02*
X132358666Y-88167333D01*
X132258666Y-88200666D01*
X132192000Y-88200666D01*
X132092000Y-88167333D01*
X132025333Y-88100666D01*
X131992000Y-88034000D01*
X131958666Y-87900666D01*
X131958666Y-87800666D01*
X131992000Y-87667333D01*
X132025333Y-87600666D01*
X132092000Y-87534000D01*
X132192000Y-87500666D01*
X132258666Y-87500666D01*
X132358666Y-87534000D01*
X132392000Y-87567333D01*
X133058666Y-88200666D02*
X132658666Y-88200666D01*
X132858666Y-88200666D02*
X132858666Y-87500666D01*
X132792000Y-87600666D01*
X132725333Y-87667333D01*
X132658666Y-87700666D01*
X133692000Y-87500666D02*
X133358666Y-87500666D01*
X133325333Y-87834000D01*
X133358666Y-87800666D01*
X133425333Y-87767333D01*
X133592000Y-87767333D01*
X133658666Y-87800666D01*
X133692000Y-87834000D01*
X133725333Y-87900666D01*
X133725333Y-88067333D01*
X133692000Y-88134000D01*
X133658666Y-88167333D01*
X133592000Y-88200666D01*
X133425333Y-88200666D01*
X133358666Y-88167333D01*
X133325333Y-88134000D01*
%TO.C,J2*%
X128798666Y-77340666D02*
X128798666Y-77840666D01*
X128765333Y-77940666D01*
X128698666Y-78007333D01*
X128598666Y-78040666D01*
X128532000Y-78040666D01*
X129098666Y-77407333D02*
X129132000Y-77374000D01*
X129198666Y-77340666D01*
X129365333Y-77340666D01*
X129432000Y-77374000D01*
X129465333Y-77407333D01*
X129498666Y-77474000D01*
X129498666Y-77540666D01*
X129465333Y-77640666D01*
X129065333Y-78040666D01*
X129498666Y-78040666D01*
D14*
%TO.C,Q6*%
X173574500Y-118142000D02*
X173574500Y-118277000D01*
X173574500Y-124682000D02*
X173574500Y-124547000D01*
X167479500Y-124682000D02*
X167479500Y-118142000D01*
X167479500Y-118142000D02*
X173574500Y-118142000D01*
X173574500Y-124682000D02*
X167479500Y-124682000D01*
D15*
X163247000Y-119122000D02*
G75*
G03*
X163247000Y-119122000I-100000J0D01*
G01*
D14*
%TO.C,Q5*%
X173704500Y-101628000D02*
X173704500Y-101763000D01*
X173704500Y-108168000D02*
X173704500Y-108033000D01*
X167609500Y-108168000D02*
X167609500Y-101628000D01*
X167609500Y-101628000D02*
X173704500Y-101628000D01*
X173704500Y-108168000D02*
X167609500Y-108168000D01*
D15*
X163377000Y-102608000D02*
G75*
G03*
X163377000Y-102608000I-100000J0D01*
G01*
D14*
%TO.C,Q4*%
X142462000Y-125474500D02*
X142327000Y-125474500D01*
X135922000Y-125474500D02*
X136057000Y-125474500D01*
X135922000Y-119379500D02*
X142462000Y-119379500D01*
X142462000Y-119379500D02*
X142462000Y-125474500D01*
X135922000Y-125474500D02*
X135922000Y-119379500D01*
D15*
X141582000Y-115047000D02*
G75*
G03*
X141582000Y-115047000I-100000J0D01*
G01*
D14*
%TO.C,Q3*%
X158718000Y-125568500D02*
X158583000Y-125568500D01*
X152178000Y-125568500D02*
X152313000Y-125568500D01*
X152178000Y-119473500D02*
X158718000Y-119473500D01*
X158718000Y-119473500D02*
X158718000Y-125568500D01*
X152178000Y-125568500D02*
X152178000Y-119473500D01*
D15*
X157838000Y-115141000D02*
G75*
G03*
X157838000Y-115141000I-100000J0D01*
G01*
D14*
%TO.C,Q2*%
X151670000Y-100999500D02*
X151805000Y-100999500D01*
X158210000Y-100999500D02*
X158075000Y-100999500D01*
X158210000Y-107094500D02*
X151670000Y-107094500D01*
X151670000Y-107094500D02*
X151670000Y-100999500D01*
X158210000Y-100999500D02*
X158210000Y-107094500D01*
D15*
X152750000Y-111427000D02*
G75*
G03*
X152750000Y-111427000I-100000J0D01*
G01*
D14*
%TO.C,Q1*%
X134398000Y-101253500D02*
X134533000Y-101253500D01*
X140938000Y-101253500D02*
X140803000Y-101253500D01*
X140938000Y-107348500D02*
X134398000Y-107348500D01*
X134398000Y-107348500D02*
X134398000Y-101253500D01*
X140938000Y-101253500D02*
X140938000Y-107348500D01*
D15*
X135478000Y-111681000D02*
G75*
G03*
X135478000Y-111681000I-100000J0D01*
G01*
D16*
%TO.C,U1*%
X127254000Y-93706000D02*
X130704000Y-93706000D01*
X127254000Y-83586000D02*
X125304000Y-83586000D01*
X127254000Y-93706000D02*
X125304000Y-93706000D01*
X127254000Y-83586000D02*
X129204000Y-83586000D01*
D17*
%TO.C,C8*%
X115148000Y-124878000D02*
X114508000Y-124878000D01*
X115148000Y-127618000D02*
X114498000Y-127618000D01*
D16*
%TO.C,C14*%
X156002000Y-89708000D02*
X155402000Y-89708000D01*
X156002000Y-89108000D02*
X155402000Y-89108000D01*
%TO.C,C13*%
X138892000Y-93772000D02*
X139492000Y-93772000D01*
X138892000Y-93172000D02*
X139492000Y-93172000D01*
D17*
%TO.C,C16*%
X143654000Y-103640000D02*
X143654000Y-102990000D01*
X146394000Y-103640000D02*
X146394000Y-103000000D01*
D15*
%TO.C,IC4*%
X168012000Y-114880000D02*
X163112000Y-114880000D01*
X168167000Y-109805000D02*
X168167000Y-111330000D01*
X163112000Y-111680000D02*
X168012000Y-111680000D01*
X168012000Y-111680000D02*
X168012000Y-114880000D01*
X163112000Y-114880000D02*
X163112000Y-111680000D01*
D16*
%TO.C,BZ1*%
X133632000Y-118590000D02*
X133632000Y-120790000D01*
X124432000Y-118590000D02*
X133632000Y-118590000D01*
X124432000Y-125590000D02*
X124432000Y-127790000D01*
X133632000Y-127790000D02*
X124432000Y-127790000D01*
X133632000Y-125590000D02*
X133632000Y-127790000D01*
X124432000Y-118590000D02*
X124432000Y-120790000D01*
X124432000Y-120790000D02*
X124032000Y-120790000D01*
%TO.C,C12*%
X149052000Y-82850000D02*
X149652000Y-82850000D01*
X149052000Y-82250000D02*
X149652000Y-82250000D01*
%TO.C,D4*%
X143788000Y-126580000D02*
X146338000Y-126580000D01*
X143788000Y-124880000D02*
X146338000Y-124880000D01*
X143788000Y-124880000D02*
X143788000Y-126580000D01*
D17*
%TO.C,U2*%
X152444000Y-92500000D02*
X152444000Y-92050000D01*
X152444000Y-85300000D02*
X151994000Y-85300000D01*
X152444000Y-85300000D02*
X152444000Y-85750000D01*
X145594000Y-85300000D02*
X145244000Y-85650000D01*
X145244000Y-92500000D02*
X145244000Y-92050000D01*
X145244000Y-85650000D02*
X145244000Y-85750000D01*
X145694000Y-85300000D02*
X145594000Y-85300000D01*
X152444000Y-92500000D02*
X151994000Y-92500000D01*
X145244000Y-85750000D02*
X143944000Y-85750000D01*
X145244000Y-92500000D02*
X145694000Y-92500000D01*
D16*
%TO.C,D5*%
X172170000Y-117036000D02*
X173870000Y-117036000D01*
X172170000Y-117036000D02*
X172170000Y-114486000D01*
X173870000Y-117036000D02*
X173870000Y-114486000D01*
%TO.C,C18*%
X144734000Y-123490000D02*
X145334000Y-123490000D01*
X144734000Y-122890000D02*
X145334000Y-122890000D01*
D17*
%TO.C,C20*%
X170810000Y-112862000D02*
X171450000Y-112862000D01*
X170810000Y-110122000D02*
X171460000Y-110122000D01*
%TO.C,C6*%
X119294000Y-123788000D02*
X119934000Y-123788000D01*
X119294000Y-121048000D02*
X119944000Y-121048000D01*
%TO.C,C10*%
X115148000Y-117258000D02*
X114508000Y-117258000D01*
X115148000Y-119998000D02*
X114498000Y-119998000D01*
%TO.C,C2*%
X127422000Y-102198000D02*
X128062000Y-102198000D01*
X127422000Y-99458000D02*
X128072000Y-99458000D01*
D15*
%TO.C,IC2*%
X143591000Y-106537000D02*
X145116000Y-106537000D01*
X148666000Y-106692000D02*
X148666000Y-111592000D01*
X145466000Y-111592000D02*
X145466000Y-106692000D01*
X145466000Y-106692000D02*
X148666000Y-106692000D01*
X148666000Y-111592000D02*
X145466000Y-111592000D01*
D16*
%TO.C,J1*%
X115862000Y-84482000D02*
X119092000Y-84482000D01*
X121012000Y-85202000D02*
X121012000Y-86282000D01*
X115862000Y-92302000D02*
X119092000Y-92302000D01*
X121012000Y-86282000D02*
X121442000Y-86282000D01*
X111692000Y-92302000D02*
X111692000Y-84482000D01*
X121012000Y-90502000D02*
X121012000Y-91582000D01*
X111692000Y-84482000D02*
X113642000Y-84482000D01*
X111692000Y-92302000D02*
X113642000Y-92302000D01*
D17*
%TO.C,C9*%
X115148000Y-121068000D02*
X114508000Y-121068000D01*
X115148000Y-123808000D02*
X114498000Y-123808000D01*
D16*
%TO.C,D1*%
X128224000Y-106980000D02*
X128824000Y-106980000D01*
X128224000Y-106380000D02*
X128824000Y-106380000D01*
D17*
%TO.C,C5*%
X119294000Y-124858000D02*
X119944000Y-124858000D01*
X119294000Y-127598000D02*
X119934000Y-127598000D01*
%TO.C,XTAL1*%
X142886000Y-92202000D02*
X142886000Y-92502000D01*
X141086000Y-92202000D02*
X141086000Y-92502000D01*
X142686000Y-90302000D02*
X141286000Y-90302000D01*
X142886000Y-92202000D02*
X142886000Y-91902000D01*
X141086000Y-92202000D02*
X141086000Y-91902000D01*
D16*
%TO.C,C21*%
X170134000Y-116120000D02*
X170134000Y-115520000D01*
X170734000Y-116120000D02*
X170734000Y-115520000D01*
D17*
%TO.C,C7*%
X119294000Y-119978000D02*
X119934000Y-119978000D01*
X119294000Y-117238000D02*
X119944000Y-117238000D01*
D16*
%TO.C,C11*%
X138892000Y-90632000D02*
X139492000Y-90632000D01*
X138892000Y-91232000D02*
X139492000Y-91232000D01*
%TO.C,D2*%
X127208000Y-117902000D02*
X127808000Y-117902000D01*
X127208000Y-117302000D02*
X127808000Y-117302000D01*
%TO.C,C1*%
X128224000Y-103332000D02*
X128824000Y-103332000D01*
X128224000Y-103932000D02*
X128824000Y-103932000D01*
D17*
%TO.C,C19*%
X150732000Y-124628000D02*
X150732000Y-125278000D01*
X147992000Y-124628000D02*
X147992000Y-125268000D01*
D15*
%TO.C,IC3*%
X149174000Y-114960000D02*
X149174000Y-119860000D01*
X145974000Y-119860000D02*
X145974000Y-114960000D01*
X151049000Y-120015000D02*
X149524000Y-120015000D01*
X145974000Y-114960000D02*
X149174000Y-114960000D01*
X149174000Y-119860000D02*
X145974000Y-119860000D01*
%TO.C,IC1*%
X126811000Y-103205000D02*
X126811000Y-104730000D01*
D16*
%TO.C,C3*%
X128224000Y-108758000D02*
X128824000Y-108758000D01*
X128224000Y-108158000D02*
X128824000Y-108158000D01*
D17*
%TO.C,XTAL2*%
X129032000Y-82688000D02*
X129332000Y-82688000D01*
X129032000Y-80888000D02*
X129332000Y-80888000D01*
X129032000Y-82688000D02*
X128732000Y-82688000D01*
X127132000Y-81088000D02*
X127132000Y-82488000D01*
X129032000Y-80888000D02*
X128732000Y-80888000D01*
D16*
%TO.C,C17*%
X149652000Y-105378000D02*
X149052000Y-105378000D01*
X149652000Y-104778000D02*
X149052000Y-104778000D01*
%TO.C,D3*%
X150852000Y-103642000D02*
X150852000Y-101942000D01*
X150852000Y-101942000D02*
X148302000Y-101942000D01*
X150852000Y-103642000D02*
X148302000Y-103642000D01*
%TO.C,C23*%
X131780000Y-82088000D02*
X131780000Y-81488000D01*
X132380000Y-82088000D02*
X132380000Y-81488000D01*
%TO.C,C4*%
X123652000Y-111714000D02*
X123652000Y-112314000D01*
X124252000Y-111714000D02*
X124252000Y-112314000D01*
%TO.C,C22*%
X124668000Y-81072000D02*
X125268000Y-81072000D01*
X124668000Y-80472000D02*
X125268000Y-80472000D01*
%TO.C,L1*%
X118240000Y-103488000D02*
X120540000Y-103488000D01*
X113140000Y-110888000D02*
X113140000Y-103488000D01*
X120540000Y-103488000D02*
X120540000Y-110888000D01*
X120540000Y-110888000D02*
X118240000Y-110888000D01*
X115440000Y-110888000D02*
X113140000Y-110888000D01*
X113140000Y-103488000D02*
X115440000Y-103488000D01*
%TO.C,C15*%
X133142000Y-89454000D02*
X132542000Y-89454000D01*
X133142000Y-88854000D02*
X132542000Y-88854000D01*
%TD*%
M02*
