%TF.GenerationSoftware,KiCad,Pcbnew,(6.0.10)*%
%TF.CreationDate,2023-01-31T23:24:51+03:00*%
%TF.ProjectId,001_ESC,3030315f-4553-4432-9e6b-696361645f70,rev?*%
%TF.SameCoordinates,Original*%
%TF.FileFunction,Soldermask,Top*%
%TF.FilePolarity,Negative*%
%FSLAX46Y46*%
G04 Gerber Fmt 4.6, Leading zero omitted, Abs format (unit mm)*
G04 Created by KiCad (PCBNEW (6.0.10)) date 2023-01-31 23:24:51*
%MOMM*%
%LPD*%
G01*
G04 APERTURE LIST*
G04 Aperture macros list*
%AMRoundRect*
0 Rectangle with rounded corners*
0 $1 Rounding radius*
0 $2 $3 $4 $5 $6 $7 $8 $9 X,Y pos of 4 corners*
0 Add a 4 corners polygon primitive as box body*
4,1,4,$2,$3,$4,$5,$6,$7,$8,$9,$2,$3,0*
0 Add four circle primitives for the rounded corners*
1,1,$1+$1,$2,$3*
1,1,$1+$1,$4,$5*
1,1,$1+$1,$6,$7*
1,1,$1+$1,$8,$9*
0 Add four rect primitives between the rounded corners*
20,1,$1+$1,$2,$3,$4,$5,0*
20,1,$1+$1,$4,$5,$6,$7,0*
20,1,$1+$1,$6,$7,$8,$9,0*
20,1,$1+$1,$8,$9,$2,$3,0*%
G04 Aperture macros list end*
%ADD10RoundRect,0.167200X-1.298600X-0.368600X1.298600X-0.368600X1.298600X0.368600X-1.298600X0.368600X0*%
%ADD11RoundRect,0.050800X-3.050000X-2.815000X3.050000X-2.815000X3.050000X2.815000X-3.050000X2.815000X0*%
%ADD12RoundRect,0.167200X-0.368600X1.298600X-0.368600X-1.298600X0.368600X-1.298600X0.368600X1.298600X0*%
%ADD13RoundRect,0.050800X-2.815000X3.050000X-2.815000X-3.050000X2.815000X-3.050000X2.815000X3.050000X0*%
%ADD14RoundRect,0.167200X0.368600X-1.298600X0.368600X1.298600X-0.368600X1.298600X-0.368600X-1.298600X0*%
%ADD15RoundRect,0.050800X2.815000X-3.050000X2.815000X3.050000X-2.815000X3.050000X-2.815000X-3.050000X0*%
%ADD16RoundRect,0.200800X0.825000X0.150000X-0.825000X0.150000X-0.825000X-0.150000X0.825000X-0.150000X0*%
%ADD17RoundRect,0.050800X0.760000X1.525000X-0.760000X1.525000X-0.760000X-1.525000X0.760000X-1.525000X0*%
%ADD18RoundRect,0.150800X-0.100000X0.217500X-0.100000X-0.217500X0.100000X-0.217500X0.100000X0.217500X0*%
%ADD19RoundRect,0.050800X0.300000X0.400000X-0.300000X0.400000X-0.300000X-0.400000X0.300000X-0.400000X0*%
%ADD20RoundRect,0.050800X-0.300000X-0.400000X0.300000X-0.400000X0.300000X0.400000X-0.300000X0.400000X0*%
%ADD21RoundRect,0.050800X1.525000X-0.760000X1.525000X0.760000X-1.525000X0.760000X-1.525000X-0.760000X0*%
%ADD22RoundRect,0.300801X0.899999X0.899999X-0.899999X0.899999X-0.899999X-0.899999X0.899999X-0.899999X0*%
%ADD23C,2.401600*%
%ADD24RoundRect,0.050800X-0.350000X-0.762500X0.350000X-0.762500X0.350000X0.762500X-0.350000X0.762500X0*%
%ADD25RoundRect,0.050800X-1.000000X-2.100000X1.000000X-2.100000X1.000000X2.100000X-1.000000X2.100000X0*%
%ADD26RoundRect,0.050800X-0.300000X-0.225000X0.300000X-0.225000X0.300000X0.225000X-0.300000X0.225000X0*%
%ADD27RoundRect,0.050800X-0.750000X-0.275000X0.750000X-0.275000X0.750000X0.275000X-0.750000X0.275000X0*%
%ADD28RoundRect,0.050800X-0.275000X-0.750000X0.275000X-0.750000X0.275000X0.750000X-0.275000X0.750000X0*%
%ADD29RoundRect,0.050800X0.225000X-0.300000X0.225000X0.300000X-0.225000X0.300000X-0.225000X-0.300000X0*%
%ADD30RoundRect,0.150800X0.217500X0.100000X-0.217500X0.100000X-0.217500X-0.100000X0.217500X-0.100000X0*%
%ADD31RoundRect,0.050800X-0.760000X-1.525000X0.760000X-1.525000X0.760000X1.525000X-0.760000X1.525000X0*%
%ADD32RoundRect,0.150800X-0.217500X-0.100000X0.217500X-0.100000X0.217500X0.100000X-0.217500X0.100000X0*%
%ADD33RoundRect,0.150800X0.100000X-0.217500X0.100000X0.217500X-0.100000X0.217500X-0.100000X-0.217500X0*%
%ADD34RoundRect,0.050800X0.762500X-0.350000X0.762500X0.350000X-0.762500X0.350000X-0.762500X-0.350000X0*%
%ADD35C,1.101600*%
%ADD36RoundRect,0.050800X-1.000000X0.250000X-1.000000X-0.250000X1.000000X-0.250000X1.000000X0.250000X0*%
%ADD37RoundRect,0.050800X-0.850000X1.000000X-0.850000X-1.000000X0.850000X-1.000000X0.850000X1.000000X0*%
%ADD38RoundRect,0.050800X-0.950000X0.550000X-0.950000X-0.550000X0.950000X-0.550000X0.950000X0.550000X0*%
%ADD39RoundRect,0.050800X0.400000X-0.300000X0.400000X0.300000X-0.400000X0.300000X-0.400000X-0.300000X0*%
%ADD40RoundRect,0.050800X-1.525000X0.760000X-1.525000X-0.760000X1.525000X-0.760000X1.525000X0.760000X0*%
%ADD41RoundRect,0.050800X-0.762500X0.350000X-0.762500X-0.350000X0.762500X-0.350000X0.762500X0.350000X0*%
%ADD42RoundRect,0.050800X-1.725000X1.280000X-1.725000X-1.280000X1.725000X-1.280000X1.725000X1.280000X0*%
%ADD43RoundRect,0.050800X-0.550000X-0.950000X0.550000X-0.950000X0.550000X0.950000X-0.550000X0.950000X0*%
%ADD44RoundRect,0.050800X0.300000X0.225000X-0.300000X0.225000X-0.300000X-0.225000X0.300000X-0.225000X0*%
%ADD45RoundRect,0.300801X0.799999X0.799999X-0.799999X0.799999X-0.799999X-0.799999X0.799999X-0.799999X0*%
%ADD46C,2.201600*%
%ADD47RoundRect,0.050800X-0.400000X0.300000X-0.400000X-0.300000X0.400000X-0.300000X0.400000X0.300000X0*%
%ADD48RoundRect,0.300801X0.899999X-0.899999X0.899999X0.899999X-0.899999X0.899999X-0.899999X-0.899999X0*%
%ADD49RoundRect,0.050800X1.100000X-0.750000X1.100000X0.750000X-1.100000X0.750000X-1.100000X-0.750000X0*%
%ADD50RoundRect,0.300799X-1.300001X-1.300001X1.300001X-1.300001X1.300001X1.300001X-1.300001X1.300001X0*%
%ADD51C,3.201600*%
G04 APERTURE END LIST*
D10*
%TO.C,Q6*%
X165562000Y-119122000D03*
X165562000Y-123702000D03*
D11*
X172212000Y-121412000D03*
%TD*%
D10*
%TO.C,Q5*%
X165692000Y-102608000D03*
X165692000Y-107188000D03*
D11*
X172342000Y-104898000D03*
%TD*%
D12*
%TO.C,Q4*%
X141482000Y-117462000D03*
X136902000Y-117462000D03*
D13*
X139192000Y-124112000D03*
%TD*%
D12*
%TO.C,Q3*%
X157738000Y-117556000D03*
X153158000Y-117556000D03*
D13*
X155448000Y-124206000D03*
%TD*%
D14*
%TO.C,Q2*%
X152650000Y-109012000D03*
X157230000Y-109012000D03*
D15*
X154940000Y-102362000D03*
%TD*%
D14*
%TO.C,Q1*%
X135378000Y-109266000D03*
X139958000Y-109266000D03*
D15*
X137668000Y-102616000D03*
%TD*%
D16*
%TO.C,U1*%
X129729000Y-93091000D03*
X129729000Y-91821000D03*
X129729000Y-90551000D03*
X129729000Y-89281000D03*
X129729000Y-88011000D03*
X129729000Y-86741000D03*
X129729000Y-85471000D03*
X129729000Y-84201000D03*
X124779000Y-84201000D03*
X124779000Y-85471000D03*
X124779000Y-86741000D03*
X124779000Y-88011000D03*
X124779000Y-89281000D03*
X124779000Y-90551000D03*
X124779000Y-91821000D03*
X124779000Y-93091000D03*
%TD*%
D17*
%TO.C,C8*%
X115953000Y-126238000D03*
X113663000Y-126238000D03*
%TD*%
D18*
%TO.C,R11*%
X165862000Y-88238500D03*
X165862000Y-89053500D03*
%TD*%
D19*
%TO.C,C14*%
X156402000Y-89408000D03*
X155002000Y-89408000D03*
%TD*%
D20*
%TO.C,C13*%
X138492000Y-93472000D03*
X139892000Y-93472000D03*
%TD*%
D21*
%TO.C,C16*%
X145034000Y-104445000D03*
X145034000Y-102155000D03*
%TD*%
D22*
%TO.C,J3*%
X170154000Y-75184000D03*
D23*
X165354000Y-75184000D03*
X160554000Y-75184000D03*
%TD*%
D24*
%TO.C,IC4*%
X167467000Y-110568000D03*
X166197000Y-110568000D03*
X164927000Y-110568000D03*
X163657000Y-110568000D03*
X163657000Y-115992000D03*
X164927000Y-115992000D03*
X166197000Y-115992000D03*
X167467000Y-115992000D03*
%TD*%
D25*
%TO.C,BZ1*%
X125032000Y-123190000D03*
X133032000Y-123190000D03*
%TD*%
D18*
%TO.C,R12*%
X165862000Y-93064500D03*
X165862000Y-93879500D03*
%TD*%
D20*
%TO.C,C12*%
X148652000Y-82550000D03*
X150052000Y-82550000D03*
%TD*%
D26*
%TO.C,D4*%
X144238000Y-125730000D03*
X146338000Y-125730000D03*
%TD*%
D27*
%TO.C,U2*%
X144644000Y-86100000D03*
X144644000Y-86900000D03*
X144644000Y-87700000D03*
X144644000Y-88500000D03*
X144644000Y-89300000D03*
X144644000Y-90100000D03*
X144644000Y-90900000D03*
X144644000Y-91700000D03*
D28*
X146044000Y-93100000D03*
X146844000Y-93100000D03*
X147644000Y-93100000D03*
X148444000Y-93100000D03*
X149244000Y-93100000D03*
X150044000Y-93100000D03*
X150844000Y-93100000D03*
X151644000Y-93100000D03*
D27*
X153044000Y-91700000D03*
X153044000Y-90900000D03*
X153044000Y-90100000D03*
X153044000Y-89300000D03*
X153044000Y-88500000D03*
X153044000Y-87700000D03*
X153044000Y-86900000D03*
X153044000Y-86100000D03*
D28*
X151644000Y-84700000D03*
X150844000Y-84700000D03*
X150044000Y-84700000D03*
X149244000Y-84700000D03*
X148444000Y-84700000D03*
X147644000Y-84700000D03*
X146844000Y-84700000D03*
X146044000Y-84700000D03*
%TD*%
D29*
%TO.C,D5*%
X173020000Y-116586000D03*
X173020000Y-114486000D03*
%TD*%
D30*
%TO.C,R8*%
X132995500Y-90678000D03*
X132180500Y-90678000D03*
%TD*%
D20*
%TO.C,C18*%
X144334000Y-123190000D03*
X145734000Y-123190000D03*
%TD*%
D30*
%TO.C,R16*%
X140615500Y-111682000D03*
X139800500Y-111682000D03*
%TD*%
D31*
%TO.C,C20*%
X170005000Y-111502000D03*
X172295000Y-111502000D03*
%TD*%
%TO.C,C6*%
X118489000Y-122428000D03*
X120779000Y-122428000D03*
%TD*%
D32*
%TO.C,R4*%
X121766500Y-110998000D03*
X122581500Y-110998000D03*
%TD*%
D17*
%TO.C,C10*%
X115953000Y-118618000D03*
X113663000Y-118618000D03*
%TD*%
D18*
%TO.C,R10*%
X165862000Y-83920500D03*
X165862000Y-84735500D03*
%TD*%
D31*
%TO.C,C2*%
X126617000Y-100838000D03*
X128907000Y-100838000D03*
%TD*%
D33*
%TO.C,R13*%
X166878000Y-84735500D03*
X166878000Y-83920500D03*
%TD*%
%TO.C,R18*%
X167894000Y-84735500D03*
X167894000Y-83920500D03*
%TD*%
D34*
%TO.C,IC2*%
X144354000Y-107237000D03*
X144354000Y-108507000D03*
X144354000Y-109777000D03*
X144354000Y-111047000D03*
X149778000Y-111047000D03*
X149778000Y-109777000D03*
X149778000Y-108507000D03*
X149778000Y-107237000D03*
%TD*%
D32*
%TO.C,R22*%
X141578500Y-114347000D03*
X142393500Y-114347000D03*
%TD*%
D35*
%TO.C,J1*%
X117602000Y-86192000D03*
X117602000Y-90592000D03*
D36*
X120302000Y-86792000D03*
X120302000Y-87592000D03*
X120302000Y-88392000D03*
X120302000Y-89192000D03*
X120302000Y-89992000D03*
D37*
X114752000Y-83942000D03*
X120202000Y-92842000D03*
X114752000Y-92842000D03*
X120202000Y-83942000D03*
%TD*%
D32*
%TO.C,R21*%
X152500500Y-115046000D03*
X153315500Y-115046000D03*
%TD*%
D33*
%TO.C,R14*%
X166878000Y-89053500D03*
X166878000Y-88238500D03*
%TD*%
D17*
%TO.C,C9*%
X115953000Y-122428000D03*
X113663000Y-122428000D03*
%TD*%
D20*
%TO.C,D1*%
X127824000Y-106680000D03*
X129224000Y-106680000D03*
%TD*%
D31*
%TO.C,C5*%
X118489000Y-126238000D03*
X120779000Y-126238000D03*
%TD*%
D33*
%TO.C,R23*%
X163276000Y-107667000D03*
X163276000Y-106852000D03*
%TD*%
D38*
%TO.C,XTAL1*%
X141986000Y-90997000D03*
X141986000Y-93407000D03*
%TD*%
D32*
%TO.C,R9*%
X124560500Y-117856000D03*
X125375500Y-117856000D03*
%TD*%
D39*
%TO.C,C21*%
X170434000Y-116520000D03*
X170434000Y-115120000D03*
%TD*%
D31*
%TO.C,C7*%
X118489000Y-118618000D03*
X120779000Y-118618000D03*
%TD*%
D20*
%TO.C,C11*%
X138492000Y-90932000D03*
X139892000Y-90932000D03*
%TD*%
%TO.C,D2*%
X126808000Y-117602000D03*
X128208000Y-117602000D03*
%TD*%
D18*
%TO.C,R24*%
X162306000Y-118618000D03*
X162306000Y-119433000D03*
%TD*%
D32*
%TO.C,R3*%
X121766500Y-112014000D03*
X122581500Y-112014000D03*
%TD*%
D20*
%TO.C,C1*%
X127824000Y-103632000D03*
X129224000Y-103632000D03*
%TD*%
D40*
%TO.C,C19*%
X149352000Y-123823000D03*
X149352000Y-126113000D03*
%TD*%
D33*
%TO.C,R19*%
X167894000Y-89053500D03*
X167894000Y-88238500D03*
%TD*%
D41*
%TO.C,IC3*%
X150286000Y-119315000D03*
X150286000Y-118045000D03*
X150286000Y-116775000D03*
X150286000Y-115505000D03*
X144862000Y-115505000D03*
X144862000Y-116775000D03*
X144862000Y-118045000D03*
X144862000Y-119315000D03*
%TD*%
D24*
%TO.C,IC1*%
X126111000Y-103968000D03*
X124841000Y-103968000D03*
X123571000Y-103968000D03*
X122301000Y-103968000D03*
X122301000Y-109392000D03*
X123571000Y-109392000D03*
X124841000Y-109392000D03*
X126111000Y-109392000D03*
D42*
X124206000Y-106680000D03*
%TD*%
D20*
%TO.C,C3*%
X127824000Y-108458000D03*
X129224000Y-108458000D03*
%TD*%
D32*
%TO.C,R6*%
X149198500Y-81280000D03*
X150013500Y-81280000D03*
%TD*%
D43*
%TO.C,XTAL2*%
X127827000Y-81788000D03*
X130237000Y-81788000D03*
%TD*%
D19*
%TO.C,C17*%
X150052000Y-105078000D03*
X148652000Y-105078000D03*
%TD*%
D44*
%TO.C,D3*%
X150402000Y-102792000D03*
X148302000Y-102792000D03*
%TD*%
D33*
%TO.C,R20*%
X167894000Y-93804000D03*
X167894000Y-92989000D03*
%TD*%
D39*
%TO.C,C23*%
X132080000Y-82488000D03*
X132080000Y-81088000D03*
%TD*%
D32*
%TO.C,R1*%
X125322500Y-111252000D03*
X126137500Y-111252000D03*
%TD*%
D30*
%TO.C,R7*%
X132995500Y-91694000D03*
X132180500Y-91694000D03*
%TD*%
D45*
%TO.C,J5*%
X170194000Y-79502000D03*
D46*
X165594000Y-79502000D03*
%TD*%
D47*
%TO.C,C4*%
X123952000Y-111314000D03*
X123952000Y-112714000D03*
%TD*%
D33*
%TO.C,R15*%
X166878000Y-93879500D03*
X166878000Y-93064500D03*
%TD*%
D32*
%TO.C,R2*%
X121766500Y-113030000D03*
X122581500Y-113030000D03*
%TD*%
%TO.C,R5*%
X127862500Y-105156000D03*
X128677500Y-105156000D03*
%TD*%
D30*
%TO.C,R17*%
X152807500Y-111428000D03*
X151992500Y-111428000D03*
%TD*%
D20*
%TO.C,C22*%
X124268000Y-80772000D03*
X125668000Y-80772000D03*
%TD*%
D48*
%TO.C,J4*%
X170688000Y-94716000D03*
D23*
X170688000Y-89916000D03*
X170688000Y-85116000D03*
%TD*%
D49*
%TO.C,L1*%
X116840000Y-110388000D03*
X116840000Y-103988000D03*
%TD*%
D19*
%TO.C,C15*%
X133542000Y-89154000D03*
X132142000Y-89154000D03*
%TD*%
D50*
%TO.C,J2*%
X130748000Y-74930000D03*
D51*
X136748000Y-74930000D03*
X142748000Y-74930000D03*
X148748000Y-74930000D03*
X154748000Y-74930000D03*
%TD*%
G36*
X166913133Y-124229606D02*
G01*
X166913523Y-124231568D01*
X166912441Y-124232753D01*
X166896963Y-124239628D01*
X166896151Y-124239800D01*
X164228001Y-124239800D01*
X164227192Y-124239629D01*
X164211707Y-124232783D01*
X164210528Y-124231168D01*
X164211336Y-124229339D01*
X164212906Y-124228992D01*
X164247130Y-124235800D01*
X166876869Y-124235799D01*
X166911239Y-124228963D01*
X166913133Y-124229606D01*
G37*
G36*
X166896808Y-123164371D02*
G01*
X166912293Y-123171217D01*
X166913472Y-123172832D01*
X166912664Y-123174661D01*
X166911094Y-123175008D01*
X166876870Y-123168200D01*
X164247131Y-123168201D01*
X164212761Y-123175037D01*
X164210867Y-123174394D01*
X164210477Y-123172432D01*
X164211559Y-123171247D01*
X164227037Y-123164372D01*
X164227849Y-123164200D01*
X166895999Y-123164200D01*
X166896808Y-123164371D01*
G37*
G36*
X166913133Y-119649606D02*
G01*
X166913523Y-119651568D01*
X166912441Y-119652753D01*
X166896963Y-119659628D01*
X166896151Y-119659800D01*
X164228001Y-119659800D01*
X164227192Y-119659629D01*
X164211707Y-119652783D01*
X164210528Y-119651168D01*
X164211336Y-119649339D01*
X164212906Y-119648992D01*
X164247130Y-119655800D01*
X166876869Y-119655799D01*
X166911239Y-119648963D01*
X166913133Y-119649606D01*
G37*
G36*
X162105699Y-118943957D02*
G01*
X162149070Y-118972936D01*
X162206199Y-118984300D01*
X162405801Y-118984300D01*
X162462930Y-118972936D01*
X162506301Y-118943957D01*
X162508297Y-118943826D01*
X162509408Y-118945489D01*
X162509075Y-118946731D01*
X162502264Y-118956925D01*
X162481484Y-119023289D01*
X162502273Y-119094089D01*
X162509075Y-119104269D01*
X162509206Y-119106265D01*
X162507543Y-119107376D01*
X162506301Y-119107043D01*
X162462930Y-119078064D01*
X162405801Y-119066700D01*
X162206199Y-119066700D01*
X162149070Y-119078064D01*
X162105699Y-119107043D01*
X162103703Y-119107174D01*
X162102592Y-119105511D01*
X162102925Y-119104269D01*
X162109736Y-119094075D01*
X162130516Y-119027711D01*
X162109727Y-118956911D01*
X162102925Y-118946731D01*
X162102794Y-118944735D01*
X162104457Y-118943624D01*
X162105699Y-118943957D01*
G37*
G36*
X166896808Y-118584371D02*
G01*
X166912293Y-118591217D01*
X166913472Y-118592832D01*
X166912664Y-118594661D01*
X166911094Y-118595008D01*
X166876870Y-118588200D01*
X164247131Y-118588201D01*
X164212761Y-118595037D01*
X164210867Y-118594394D01*
X164210477Y-118592432D01*
X164211559Y-118591247D01*
X164227037Y-118584372D01*
X164227849Y-118584200D01*
X166895999Y-118584200D01*
X166896808Y-118584371D01*
G37*
G36*
X124889231Y-117652925D02*
G01*
X124899425Y-117659736D01*
X124965789Y-117680516D01*
X125036589Y-117659727D01*
X125046769Y-117652925D01*
X125048765Y-117652794D01*
X125049876Y-117654457D01*
X125049543Y-117655699D01*
X125020564Y-117699070D01*
X125009200Y-117756199D01*
X125009200Y-117955801D01*
X125020564Y-118012930D01*
X125049543Y-118056301D01*
X125049674Y-118058297D01*
X125048011Y-118059408D01*
X125046769Y-118059075D01*
X125036575Y-118052264D01*
X124970211Y-118031484D01*
X124899411Y-118052273D01*
X124889231Y-118059075D01*
X124887235Y-118059206D01*
X124886124Y-118057543D01*
X124886457Y-118056301D01*
X124915436Y-118012930D01*
X124926800Y-117955801D01*
X124926800Y-117756199D01*
X124915436Y-117699070D01*
X124886457Y-117655699D01*
X124886326Y-117653703D01*
X124887989Y-117652592D01*
X124889231Y-117652925D01*
G37*
G36*
X152829231Y-114842925D02*
G01*
X152839425Y-114849736D01*
X152905789Y-114870516D01*
X152976589Y-114849727D01*
X152986769Y-114842925D01*
X152988765Y-114842794D01*
X152989876Y-114844457D01*
X152989543Y-114845699D01*
X152960564Y-114889070D01*
X152949200Y-114946199D01*
X152949200Y-115145801D01*
X152960564Y-115202930D01*
X152989543Y-115246301D01*
X152989674Y-115248297D01*
X152988011Y-115249408D01*
X152986769Y-115249075D01*
X152976575Y-115242264D01*
X152910211Y-115221484D01*
X152839411Y-115242273D01*
X152829231Y-115249075D01*
X152827235Y-115249206D01*
X152826124Y-115247543D01*
X152826457Y-115246301D01*
X152855436Y-115202930D01*
X152866800Y-115145801D01*
X152866800Y-114946199D01*
X152855436Y-114889070D01*
X152826457Y-114845699D01*
X152826326Y-114843703D01*
X152827989Y-114842592D01*
X152829231Y-114842925D01*
G37*
G36*
X141907231Y-114143925D02*
G01*
X141917425Y-114150736D01*
X141983789Y-114171516D01*
X142054589Y-114150727D01*
X142064769Y-114143925D01*
X142066765Y-114143794D01*
X142067876Y-114145457D01*
X142067543Y-114146699D01*
X142038564Y-114190070D01*
X142027200Y-114247199D01*
X142027200Y-114446801D01*
X142038564Y-114503930D01*
X142067543Y-114547301D01*
X142067674Y-114549297D01*
X142066011Y-114550408D01*
X142064769Y-114550075D01*
X142054575Y-114543264D01*
X141988211Y-114522484D01*
X141917411Y-114543273D01*
X141907231Y-114550075D01*
X141905235Y-114550206D01*
X141904124Y-114548543D01*
X141904457Y-114547301D01*
X141933436Y-114503930D01*
X141944800Y-114446801D01*
X141944800Y-114247199D01*
X141933436Y-114190070D01*
X141904457Y-114146699D01*
X141904326Y-114144703D01*
X141905989Y-114143592D01*
X141907231Y-114143925D01*
G37*
G36*
X122095231Y-112826925D02*
G01*
X122105425Y-112833736D01*
X122171789Y-112854516D01*
X122242589Y-112833727D01*
X122252769Y-112826925D01*
X122254765Y-112826794D01*
X122255876Y-112828457D01*
X122255543Y-112829699D01*
X122226564Y-112873070D01*
X122215200Y-112930199D01*
X122215200Y-113129801D01*
X122226564Y-113186930D01*
X122255543Y-113230301D01*
X122255674Y-113232297D01*
X122254011Y-113233408D01*
X122252769Y-113233075D01*
X122242575Y-113226264D01*
X122176211Y-113205484D01*
X122105411Y-113226273D01*
X122095231Y-113233075D01*
X122093235Y-113233206D01*
X122092124Y-113231543D01*
X122092457Y-113230301D01*
X122121436Y-113186930D01*
X122132800Y-113129801D01*
X122132800Y-112930199D01*
X122121436Y-112873070D01*
X122092457Y-112829699D01*
X122092326Y-112827703D01*
X122093989Y-112826592D01*
X122095231Y-112826925D01*
G37*
G36*
X122095231Y-111810925D02*
G01*
X122105425Y-111817736D01*
X122171789Y-111838516D01*
X122242589Y-111817727D01*
X122252769Y-111810925D01*
X122254765Y-111810794D01*
X122255876Y-111812457D01*
X122255543Y-111813699D01*
X122226564Y-111857070D01*
X122215200Y-111914199D01*
X122215200Y-112113801D01*
X122226564Y-112170930D01*
X122255543Y-112214301D01*
X122255674Y-112216297D01*
X122254011Y-112217408D01*
X122252769Y-112217075D01*
X122242575Y-112210264D01*
X122176211Y-112189484D01*
X122105411Y-112210273D01*
X122095231Y-112217075D01*
X122093235Y-112217206D01*
X122092124Y-112215543D01*
X122092457Y-112214301D01*
X122121436Y-112170930D01*
X122132800Y-112113801D01*
X122132800Y-111914199D01*
X122121436Y-111857070D01*
X122092457Y-111813699D01*
X122092326Y-111811703D01*
X122093989Y-111810592D01*
X122095231Y-111810925D01*
G37*
G36*
X140129231Y-111478925D02*
G01*
X140139425Y-111485736D01*
X140205789Y-111506516D01*
X140276589Y-111485727D01*
X140286769Y-111478925D01*
X140288765Y-111478794D01*
X140289876Y-111480457D01*
X140289543Y-111481699D01*
X140260564Y-111525070D01*
X140249200Y-111582199D01*
X140249200Y-111781801D01*
X140260564Y-111838930D01*
X140289543Y-111882301D01*
X140289674Y-111884297D01*
X140288011Y-111885408D01*
X140286769Y-111885075D01*
X140276575Y-111878264D01*
X140210211Y-111857484D01*
X140139411Y-111878273D01*
X140129231Y-111885075D01*
X140127235Y-111885206D01*
X140126124Y-111883543D01*
X140126457Y-111882301D01*
X140155436Y-111838930D01*
X140166800Y-111781801D01*
X140166800Y-111582199D01*
X140155436Y-111525070D01*
X140126457Y-111481699D01*
X140126326Y-111479703D01*
X140127989Y-111478592D01*
X140129231Y-111478925D01*
G37*
G36*
X152321231Y-111224925D02*
G01*
X152331425Y-111231736D01*
X152397789Y-111252516D01*
X152468589Y-111231727D01*
X152478769Y-111224925D01*
X152480765Y-111224794D01*
X152481876Y-111226457D01*
X152481543Y-111227699D01*
X152452564Y-111271070D01*
X152441200Y-111328199D01*
X152441200Y-111527801D01*
X152452564Y-111584930D01*
X152481543Y-111628301D01*
X152481674Y-111630297D01*
X152480011Y-111631408D01*
X152478769Y-111631075D01*
X152468575Y-111624264D01*
X152402211Y-111603484D01*
X152331411Y-111624273D01*
X152321231Y-111631075D01*
X152319235Y-111631206D01*
X152318124Y-111629543D01*
X152318457Y-111628301D01*
X152347436Y-111584930D01*
X152358800Y-111527801D01*
X152358800Y-111328199D01*
X152347436Y-111271070D01*
X152318457Y-111227699D01*
X152318326Y-111225703D01*
X152319989Y-111224592D01*
X152321231Y-111224925D01*
G37*
G36*
X125651231Y-111048925D02*
G01*
X125661425Y-111055736D01*
X125727789Y-111076516D01*
X125798589Y-111055727D01*
X125808769Y-111048925D01*
X125810765Y-111048794D01*
X125811876Y-111050457D01*
X125811543Y-111051699D01*
X125782564Y-111095070D01*
X125771200Y-111152199D01*
X125771200Y-111351801D01*
X125782564Y-111408930D01*
X125811543Y-111452301D01*
X125811674Y-111454297D01*
X125810011Y-111455408D01*
X125808769Y-111455075D01*
X125798575Y-111448264D01*
X125732211Y-111427484D01*
X125661411Y-111448273D01*
X125651231Y-111455075D01*
X125649235Y-111455206D01*
X125648124Y-111453543D01*
X125648457Y-111452301D01*
X125677436Y-111408930D01*
X125688800Y-111351801D01*
X125688800Y-111152199D01*
X125677436Y-111095070D01*
X125648457Y-111051699D01*
X125648326Y-111049703D01*
X125649989Y-111048592D01*
X125651231Y-111048925D01*
G37*
G36*
X122095231Y-110794925D02*
G01*
X122105425Y-110801736D01*
X122171789Y-110822516D01*
X122242589Y-110801727D01*
X122252769Y-110794925D01*
X122254765Y-110794794D01*
X122255876Y-110796457D01*
X122255543Y-110797699D01*
X122226564Y-110841070D01*
X122215200Y-110898199D01*
X122215200Y-111097801D01*
X122226564Y-111154930D01*
X122255543Y-111198301D01*
X122255674Y-111200297D01*
X122254011Y-111201408D01*
X122252769Y-111201075D01*
X122242575Y-111194264D01*
X122176211Y-111173484D01*
X122105411Y-111194273D01*
X122095231Y-111201075D01*
X122093235Y-111201206D01*
X122092124Y-111199543D01*
X122092457Y-111198301D01*
X122121436Y-111154930D01*
X122132800Y-111097801D01*
X122132800Y-110898199D01*
X122121436Y-110841070D01*
X122092457Y-110797699D01*
X122092326Y-110795703D01*
X122093989Y-110794592D01*
X122095231Y-110794925D01*
G37*
G36*
X167043133Y-107715606D02*
G01*
X167043523Y-107717568D01*
X167042441Y-107718753D01*
X167026963Y-107725628D01*
X167026151Y-107725800D01*
X164358001Y-107725800D01*
X164357192Y-107725629D01*
X164341707Y-107718783D01*
X164340528Y-107717168D01*
X164341336Y-107715339D01*
X164342906Y-107714992D01*
X164377130Y-107721800D01*
X167006869Y-107721799D01*
X167041239Y-107714963D01*
X167043133Y-107715606D01*
G37*
G36*
X163075699Y-107177957D02*
G01*
X163119070Y-107206936D01*
X163176199Y-107218300D01*
X163375801Y-107218300D01*
X163432930Y-107206936D01*
X163476301Y-107177957D01*
X163478297Y-107177826D01*
X163479408Y-107179489D01*
X163479075Y-107180731D01*
X163472264Y-107190925D01*
X163451484Y-107257289D01*
X163472273Y-107328089D01*
X163479075Y-107338269D01*
X163479206Y-107340265D01*
X163477543Y-107341376D01*
X163476301Y-107341043D01*
X163432930Y-107312064D01*
X163375801Y-107300700D01*
X163176199Y-107300700D01*
X163119070Y-107312064D01*
X163075699Y-107341043D01*
X163073703Y-107341174D01*
X163072592Y-107339511D01*
X163072925Y-107338269D01*
X163079736Y-107328075D01*
X163100516Y-107261711D01*
X163079727Y-107190911D01*
X163072925Y-107180731D01*
X163072794Y-107178735D01*
X163074457Y-107177624D01*
X163075699Y-107177957D01*
G37*
G36*
X167026808Y-106650371D02*
G01*
X167042293Y-106657217D01*
X167043472Y-106658832D01*
X167042664Y-106660661D01*
X167041094Y-106661008D01*
X167006870Y-106654200D01*
X164377131Y-106654201D01*
X164342761Y-106661037D01*
X164340867Y-106660394D01*
X164340477Y-106658432D01*
X164341559Y-106657247D01*
X164357037Y-106650372D01*
X164357849Y-106650200D01*
X167025999Y-106650200D01*
X167026808Y-106650371D01*
G37*
G36*
X128191231Y-104952925D02*
G01*
X128201425Y-104959736D01*
X128267789Y-104980516D01*
X128338589Y-104959727D01*
X128348769Y-104952925D01*
X128350765Y-104952794D01*
X128351876Y-104954457D01*
X128351543Y-104955699D01*
X128322564Y-104999070D01*
X128311200Y-105056199D01*
X128311200Y-105255801D01*
X128322564Y-105312930D01*
X128351543Y-105356301D01*
X128351674Y-105358297D01*
X128350011Y-105359408D01*
X128348769Y-105359075D01*
X128338575Y-105352264D01*
X128272211Y-105331484D01*
X128201411Y-105352273D01*
X128191231Y-105359075D01*
X128189235Y-105359206D01*
X128188124Y-105357543D01*
X128188457Y-105356301D01*
X128217436Y-105312930D01*
X128228800Y-105255801D01*
X128228800Y-105056199D01*
X128217436Y-104999070D01*
X128188457Y-104955699D01*
X128188326Y-104953703D01*
X128189989Y-104952592D01*
X128191231Y-104952925D01*
G37*
G36*
X167043133Y-103135606D02*
G01*
X167043523Y-103137568D01*
X167042441Y-103138753D01*
X167026963Y-103145628D01*
X167026151Y-103145800D01*
X164358001Y-103145800D01*
X164357192Y-103145629D01*
X164341707Y-103138783D01*
X164340528Y-103137168D01*
X164341336Y-103135339D01*
X164342906Y-103134992D01*
X164377130Y-103141800D01*
X167006869Y-103141799D01*
X167041239Y-103134963D01*
X167043133Y-103135606D01*
G37*
G36*
X167026808Y-102070371D02*
G01*
X167042293Y-102077217D01*
X167043472Y-102078832D01*
X167042664Y-102080661D01*
X167041094Y-102081008D01*
X167006870Y-102074200D01*
X164377131Y-102074201D01*
X164342761Y-102081037D01*
X164340867Y-102080394D01*
X164340477Y-102078432D01*
X164341559Y-102077247D01*
X164357037Y-102070372D01*
X164357849Y-102070200D01*
X167025999Y-102070200D01*
X167026808Y-102070371D01*
G37*
G36*
X150359519Y-92317635D02*
G01*
X150373312Y-92326851D01*
X150374435Y-92325171D01*
X150376229Y-92324286D01*
X150377380Y-92324747D01*
X150394951Y-92339429D01*
X150463669Y-92348056D01*
X150511500Y-92325168D01*
X150513494Y-92325322D01*
X150514026Y-92325861D01*
X150514688Y-92326851D01*
X150528481Y-92317634D01*
X150530477Y-92317503D01*
X150531588Y-92319166D01*
X150531255Y-92320408D01*
X150523952Y-92331339D01*
X150520200Y-92350199D01*
X150520200Y-93849801D01*
X150523952Y-93868661D01*
X150531255Y-93879591D01*
X150531386Y-93881587D01*
X150529723Y-93882698D01*
X150528481Y-93882365D01*
X150514688Y-93873149D01*
X150513565Y-93874829D01*
X150511771Y-93875714D01*
X150510620Y-93875253D01*
X150493049Y-93860571D01*
X150424331Y-93851944D01*
X150376500Y-93874832D01*
X150374506Y-93874678D01*
X150373974Y-93874139D01*
X150373312Y-93873149D01*
X150359519Y-93882366D01*
X150357523Y-93882497D01*
X150356412Y-93880834D01*
X150356745Y-93879592D01*
X150364048Y-93868661D01*
X150367800Y-93849801D01*
X150367800Y-92350199D01*
X150364048Y-92331339D01*
X150356745Y-92320409D01*
X150356614Y-92318413D01*
X150358277Y-92317302D01*
X150359519Y-92317635D01*
G37*
G36*
X147159519Y-92317635D02*
G01*
X147173312Y-92326851D01*
X147174435Y-92325171D01*
X147176229Y-92324286D01*
X147177380Y-92324747D01*
X147194951Y-92339429D01*
X147263669Y-92348056D01*
X147311500Y-92325168D01*
X147313494Y-92325322D01*
X147314026Y-92325861D01*
X147314688Y-92326851D01*
X147328481Y-92317634D01*
X147330477Y-92317503D01*
X147331588Y-92319166D01*
X147331255Y-92320408D01*
X147323952Y-92331339D01*
X147320200Y-92350199D01*
X147320200Y-93849801D01*
X147323952Y-93868661D01*
X147331255Y-93879591D01*
X147331386Y-93881587D01*
X147329723Y-93882698D01*
X147328481Y-93882365D01*
X147314688Y-93873149D01*
X147313565Y-93874829D01*
X147311771Y-93875714D01*
X147310620Y-93875253D01*
X147293049Y-93860571D01*
X147224331Y-93851944D01*
X147176500Y-93874832D01*
X147174506Y-93874678D01*
X147173974Y-93874139D01*
X147173312Y-93873149D01*
X147159519Y-93882366D01*
X147157523Y-93882497D01*
X147156412Y-93880834D01*
X147156745Y-93879592D01*
X147164048Y-93868661D01*
X147167800Y-93849801D01*
X147167800Y-92350199D01*
X147164048Y-92331339D01*
X147156745Y-92320409D01*
X147156614Y-92318413D01*
X147158277Y-92317302D01*
X147159519Y-92317635D01*
G37*
G36*
X147959519Y-92317635D02*
G01*
X147973312Y-92326851D01*
X147974435Y-92325171D01*
X147976229Y-92324286D01*
X147977380Y-92324747D01*
X147994951Y-92339429D01*
X148063669Y-92348056D01*
X148111500Y-92325168D01*
X148113494Y-92325322D01*
X148114026Y-92325861D01*
X148114688Y-92326851D01*
X148128481Y-92317634D01*
X148130477Y-92317503D01*
X148131588Y-92319166D01*
X148131255Y-92320408D01*
X148123952Y-92331339D01*
X148120200Y-92350199D01*
X148120200Y-93849801D01*
X148123952Y-93868661D01*
X148131255Y-93879591D01*
X148131386Y-93881587D01*
X148129723Y-93882698D01*
X148128481Y-93882365D01*
X148114688Y-93873149D01*
X148113565Y-93874829D01*
X148111771Y-93875714D01*
X148110620Y-93875253D01*
X148093049Y-93860571D01*
X148024331Y-93851944D01*
X147976500Y-93874832D01*
X147974506Y-93874678D01*
X147973974Y-93874139D01*
X147973312Y-93873149D01*
X147959519Y-93882366D01*
X147957523Y-93882497D01*
X147956412Y-93880834D01*
X147956745Y-93879592D01*
X147964048Y-93868661D01*
X147967800Y-93849801D01*
X147967800Y-92350199D01*
X147964048Y-92331339D01*
X147956745Y-92320409D01*
X147956614Y-92318413D01*
X147958277Y-92317302D01*
X147959519Y-92317635D01*
G37*
G36*
X149559519Y-92317635D02*
G01*
X149573312Y-92326851D01*
X149574435Y-92325171D01*
X149576229Y-92324286D01*
X149577380Y-92324747D01*
X149594951Y-92339429D01*
X149663669Y-92348056D01*
X149711500Y-92325168D01*
X149713494Y-92325322D01*
X149714026Y-92325861D01*
X149714688Y-92326851D01*
X149728481Y-92317634D01*
X149730477Y-92317503D01*
X149731588Y-92319166D01*
X149731255Y-92320408D01*
X149723952Y-92331339D01*
X149720200Y-92350199D01*
X149720200Y-93849801D01*
X149723952Y-93868661D01*
X149731255Y-93879591D01*
X149731386Y-93881587D01*
X149729723Y-93882698D01*
X149728481Y-93882365D01*
X149714688Y-93873149D01*
X149713565Y-93874829D01*
X149711771Y-93875714D01*
X149710620Y-93875253D01*
X149693049Y-93860571D01*
X149624331Y-93851944D01*
X149576500Y-93874832D01*
X149574506Y-93874678D01*
X149573974Y-93874139D01*
X149573312Y-93873149D01*
X149559519Y-93882366D01*
X149557523Y-93882497D01*
X149556412Y-93880834D01*
X149556745Y-93879592D01*
X149564048Y-93868661D01*
X149567800Y-93849801D01*
X149567800Y-92350199D01*
X149564048Y-92331339D01*
X149556745Y-92320409D01*
X149556614Y-92318413D01*
X149558277Y-92317302D01*
X149559519Y-92317635D01*
G37*
G36*
X148759519Y-92317635D02*
G01*
X148773312Y-92326851D01*
X148774435Y-92325171D01*
X148776229Y-92324286D01*
X148777380Y-92324747D01*
X148794951Y-92339429D01*
X148863669Y-92348056D01*
X148911500Y-92325168D01*
X148913494Y-92325322D01*
X148914026Y-92325861D01*
X148914688Y-92326851D01*
X148928481Y-92317634D01*
X148930477Y-92317503D01*
X148931588Y-92319166D01*
X148931255Y-92320408D01*
X148923952Y-92331339D01*
X148920200Y-92350199D01*
X148920200Y-93849801D01*
X148923952Y-93868661D01*
X148931255Y-93879591D01*
X148931386Y-93881587D01*
X148929723Y-93882698D01*
X148928481Y-93882365D01*
X148914688Y-93873149D01*
X148913565Y-93874829D01*
X148911771Y-93875714D01*
X148910620Y-93875253D01*
X148893049Y-93860571D01*
X148824331Y-93851944D01*
X148776500Y-93874832D01*
X148774506Y-93874678D01*
X148773974Y-93874139D01*
X148773312Y-93873149D01*
X148759519Y-93882366D01*
X148757523Y-93882497D01*
X148756412Y-93880834D01*
X148756745Y-93879592D01*
X148764048Y-93868661D01*
X148767800Y-93849801D01*
X148767800Y-92350199D01*
X148764048Y-92331339D01*
X148756745Y-92320409D01*
X148756614Y-92318413D01*
X148758277Y-92317302D01*
X148759519Y-92317635D01*
G37*
G36*
X146359519Y-92317635D02*
G01*
X146373312Y-92326851D01*
X146374435Y-92325171D01*
X146376229Y-92324286D01*
X146377380Y-92324747D01*
X146394951Y-92339429D01*
X146463669Y-92348056D01*
X146511500Y-92325168D01*
X146513494Y-92325322D01*
X146514026Y-92325861D01*
X146514688Y-92326851D01*
X146528481Y-92317634D01*
X146530477Y-92317503D01*
X146531588Y-92319166D01*
X146531255Y-92320408D01*
X146523952Y-92331339D01*
X146520200Y-92350199D01*
X146520200Y-93849801D01*
X146523952Y-93868661D01*
X146531255Y-93879591D01*
X146531386Y-93881587D01*
X146529723Y-93882698D01*
X146528481Y-93882365D01*
X146514688Y-93873149D01*
X146513565Y-93874829D01*
X146511771Y-93875714D01*
X146510620Y-93875253D01*
X146493049Y-93860571D01*
X146424331Y-93851944D01*
X146376500Y-93874832D01*
X146374506Y-93874678D01*
X146373974Y-93874139D01*
X146373312Y-93873149D01*
X146359519Y-93882366D01*
X146357523Y-93882497D01*
X146356412Y-93880834D01*
X146356745Y-93879592D01*
X146364048Y-93868661D01*
X146367800Y-93849801D01*
X146367800Y-92350199D01*
X146364048Y-92331339D01*
X146356745Y-92320409D01*
X146356614Y-92318413D01*
X146358277Y-92317302D01*
X146359519Y-92317635D01*
G37*
G36*
X151159519Y-92317635D02*
G01*
X151173312Y-92326851D01*
X151174435Y-92325171D01*
X151176229Y-92324286D01*
X151177380Y-92324747D01*
X151194951Y-92339429D01*
X151263669Y-92348056D01*
X151311500Y-92325168D01*
X151313494Y-92325322D01*
X151314026Y-92325861D01*
X151314688Y-92326851D01*
X151328481Y-92317634D01*
X151330477Y-92317503D01*
X151331588Y-92319166D01*
X151331255Y-92320408D01*
X151323952Y-92331339D01*
X151320200Y-92350199D01*
X151320200Y-93849801D01*
X151323952Y-93868661D01*
X151331255Y-93879591D01*
X151331386Y-93881587D01*
X151329723Y-93882698D01*
X151328481Y-93882365D01*
X151314688Y-93873149D01*
X151313565Y-93874829D01*
X151311771Y-93875714D01*
X151310620Y-93875253D01*
X151293049Y-93860571D01*
X151224331Y-93851944D01*
X151176500Y-93874832D01*
X151174506Y-93874678D01*
X151173974Y-93874139D01*
X151173312Y-93873149D01*
X151159519Y-93882366D01*
X151157523Y-93882497D01*
X151156412Y-93880834D01*
X151156745Y-93879592D01*
X151164048Y-93868661D01*
X151167800Y-93849801D01*
X151167800Y-92350199D01*
X151164048Y-92331339D01*
X151156745Y-92320409D01*
X151156614Y-92318413D01*
X151158277Y-92317302D01*
X151159519Y-92317635D01*
G37*
G36*
X166677699Y-93390457D02*
G01*
X166721070Y-93419436D01*
X166778199Y-93430800D01*
X166977801Y-93430800D01*
X167034930Y-93419436D01*
X167078301Y-93390457D01*
X167080297Y-93390326D01*
X167081408Y-93391989D01*
X167081075Y-93393231D01*
X167074264Y-93403425D01*
X167053484Y-93469789D01*
X167074273Y-93540589D01*
X167081075Y-93550769D01*
X167081206Y-93552765D01*
X167079543Y-93553876D01*
X167078301Y-93553543D01*
X167034930Y-93524564D01*
X166977801Y-93513200D01*
X166778199Y-93513200D01*
X166721070Y-93524564D01*
X166677699Y-93553543D01*
X166675703Y-93553674D01*
X166674592Y-93552011D01*
X166674925Y-93550769D01*
X166681736Y-93540575D01*
X166702516Y-93474211D01*
X166681727Y-93403411D01*
X166674925Y-93393231D01*
X166674794Y-93391235D01*
X166676457Y-93390124D01*
X166677699Y-93390457D01*
G37*
G36*
X165661699Y-93390457D02*
G01*
X165705070Y-93419436D01*
X165762199Y-93430800D01*
X165961801Y-93430800D01*
X166018930Y-93419436D01*
X166062301Y-93390457D01*
X166064297Y-93390326D01*
X166065408Y-93391989D01*
X166065075Y-93393231D01*
X166058264Y-93403425D01*
X166037484Y-93469789D01*
X166058273Y-93540589D01*
X166065075Y-93550769D01*
X166065206Y-93552765D01*
X166063543Y-93553876D01*
X166062301Y-93553543D01*
X166018930Y-93524564D01*
X165961801Y-93513200D01*
X165762199Y-93513200D01*
X165705070Y-93524564D01*
X165661699Y-93553543D01*
X165659703Y-93553674D01*
X165658592Y-93552011D01*
X165658925Y-93550769D01*
X165665736Y-93540575D01*
X165686516Y-93474211D01*
X165665727Y-93403411D01*
X165658925Y-93393231D01*
X165658794Y-93391235D01*
X165660457Y-93390124D01*
X165661699Y-93390457D01*
G37*
G36*
X167693699Y-93314957D02*
G01*
X167737070Y-93343936D01*
X167794199Y-93355300D01*
X167993801Y-93355300D01*
X168050930Y-93343936D01*
X168094301Y-93314957D01*
X168096297Y-93314826D01*
X168097408Y-93316489D01*
X168097075Y-93317731D01*
X168090264Y-93327925D01*
X168069484Y-93394289D01*
X168090273Y-93465089D01*
X168097075Y-93475269D01*
X168097206Y-93477265D01*
X168095543Y-93478376D01*
X168094301Y-93478043D01*
X168050930Y-93449064D01*
X167993801Y-93437700D01*
X167794199Y-93437700D01*
X167737070Y-93449064D01*
X167693699Y-93478043D01*
X167691703Y-93478174D01*
X167690592Y-93476511D01*
X167690925Y-93475269D01*
X167697736Y-93465075D01*
X167718516Y-93398711D01*
X167697727Y-93327911D01*
X167690925Y-93317731D01*
X167690794Y-93315735D01*
X167692457Y-93314624D01*
X167693699Y-93314957D01*
G37*
G36*
X132509231Y-91490925D02*
G01*
X132519425Y-91497736D01*
X132585789Y-91518516D01*
X132656589Y-91497727D01*
X132666769Y-91490925D01*
X132668765Y-91490794D01*
X132669876Y-91492457D01*
X132669543Y-91493699D01*
X132640564Y-91537070D01*
X132629200Y-91594199D01*
X132629200Y-91793801D01*
X132640564Y-91850930D01*
X132669543Y-91894301D01*
X132669674Y-91896297D01*
X132668011Y-91897408D01*
X132666769Y-91897075D01*
X132656575Y-91890264D01*
X132590211Y-91869484D01*
X132519411Y-91890273D01*
X132509231Y-91897075D01*
X132507235Y-91897206D01*
X132506124Y-91895543D01*
X132506457Y-91894301D01*
X132535436Y-91850930D01*
X132546800Y-91793801D01*
X132546800Y-91594199D01*
X132535436Y-91537070D01*
X132506457Y-91493699D01*
X132506326Y-91491703D01*
X132507989Y-91490592D01*
X132509231Y-91490925D01*
G37*
G36*
X143864408Y-91212745D02*
G01*
X143875339Y-91220048D01*
X143894199Y-91223800D01*
X145393801Y-91223800D01*
X145412661Y-91220048D01*
X145423591Y-91212745D01*
X145425587Y-91212614D01*
X145426698Y-91214277D01*
X145426365Y-91215519D01*
X145417149Y-91229312D01*
X145418829Y-91230435D01*
X145419714Y-91232229D01*
X145419253Y-91233380D01*
X145404571Y-91250951D01*
X145395944Y-91319669D01*
X145418832Y-91367500D01*
X145418678Y-91369494D01*
X145418139Y-91370026D01*
X145417149Y-91370688D01*
X145426366Y-91384481D01*
X145426497Y-91386477D01*
X145424834Y-91387588D01*
X145423592Y-91387255D01*
X145412661Y-91379952D01*
X145393801Y-91376200D01*
X143894199Y-91376200D01*
X143875339Y-91379952D01*
X143864409Y-91387255D01*
X143862413Y-91387386D01*
X143861302Y-91385723D01*
X143861635Y-91384481D01*
X143870851Y-91370688D01*
X143869171Y-91369565D01*
X143868286Y-91367771D01*
X143868747Y-91366620D01*
X143883429Y-91349049D01*
X143892056Y-91280331D01*
X143869168Y-91232500D01*
X143869322Y-91230506D01*
X143869861Y-91229974D01*
X143870851Y-91229312D01*
X143861634Y-91215519D01*
X143861503Y-91213523D01*
X143863166Y-91212412D01*
X143864408Y-91212745D01*
G37*
G36*
X152264408Y-91212745D02*
G01*
X152275339Y-91220048D01*
X152294199Y-91223800D01*
X153793801Y-91223800D01*
X153812661Y-91220048D01*
X153823591Y-91212745D01*
X153825587Y-91212614D01*
X153826698Y-91214277D01*
X153826365Y-91215519D01*
X153817149Y-91229312D01*
X153818829Y-91230435D01*
X153819714Y-91232229D01*
X153819253Y-91233380D01*
X153804571Y-91250951D01*
X153795944Y-91319669D01*
X153818832Y-91367500D01*
X153818678Y-91369494D01*
X153818139Y-91370026D01*
X153817149Y-91370688D01*
X153826366Y-91384481D01*
X153826497Y-91386477D01*
X153824834Y-91387588D01*
X153823592Y-91387255D01*
X153812661Y-91379952D01*
X153793801Y-91376200D01*
X152294199Y-91376200D01*
X152275339Y-91379952D01*
X152264409Y-91387255D01*
X152262413Y-91387386D01*
X152261302Y-91385723D01*
X152261635Y-91384481D01*
X152270851Y-91370688D01*
X152269171Y-91369565D01*
X152268286Y-91367771D01*
X152268747Y-91366620D01*
X152283429Y-91349049D01*
X152292056Y-91280331D01*
X152269168Y-91232500D01*
X152269322Y-91230506D01*
X152269861Y-91229974D01*
X152270851Y-91229312D01*
X152261634Y-91215519D01*
X152261503Y-91213523D01*
X152263166Y-91212412D01*
X152264408Y-91212745D01*
G37*
G36*
X132509231Y-90474925D02*
G01*
X132519425Y-90481736D01*
X132585789Y-90502516D01*
X132656589Y-90481727D01*
X132666769Y-90474925D01*
X132668765Y-90474794D01*
X132669876Y-90476457D01*
X132669543Y-90477699D01*
X132640564Y-90521070D01*
X132629200Y-90578199D01*
X132629200Y-90777801D01*
X132640564Y-90834930D01*
X132669543Y-90878301D01*
X132669674Y-90880297D01*
X132668011Y-90881408D01*
X132666769Y-90881075D01*
X132656575Y-90874264D01*
X132590211Y-90853484D01*
X132519411Y-90874273D01*
X132509231Y-90881075D01*
X132507235Y-90881206D01*
X132506124Y-90879543D01*
X132506457Y-90878301D01*
X132535436Y-90834930D01*
X132546800Y-90777801D01*
X132546800Y-90578199D01*
X132535436Y-90521070D01*
X132506457Y-90477699D01*
X132506326Y-90475703D01*
X132507989Y-90474592D01*
X132509231Y-90474925D01*
G37*
G36*
X143864408Y-90412745D02*
G01*
X143875339Y-90420048D01*
X143894199Y-90423800D01*
X145393801Y-90423800D01*
X145412661Y-90420048D01*
X145423591Y-90412745D01*
X145425587Y-90412614D01*
X145426698Y-90414277D01*
X145426365Y-90415519D01*
X145417149Y-90429312D01*
X145418829Y-90430435D01*
X145419714Y-90432229D01*
X145419253Y-90433380D01*
X145404571Y-90450951D01*
X145395944Y-90519669D01*
X145418832Y-90567500D01*
X145418678Y-90569494D01*
X145418139Y-90570026D01*
X145417149Y-90570688D01*
X145426366Y-90584481D01*
X145426497Y-90586477D01*
X145424834Y-90587588D01*
X145423592Y-90587255D01*
X145412661Y-90579952D01*
X145393801Y-90576200D01*
X143894199Y-90576200D01*
X143875339Y-90579952D01*
X143864409Y-90587255D01*
X143862413Y-90587386D01*
X143861302Y-90585723D01*
X143861635Y-90584481D01*
X143870851Y-90570688D01*
X143869171Y-90569565D01*
X143868286Y-90567771D01*
X143868747Y-90566620D01*
X143883429Y-90549049D01*
X143892056Y-90480331D01*
X143869168Y-90432500D01*
X143869322Y-90430506D01*
X143869861Y-90429974D01*
X143870851Y-90429312D01*
X143861634Y-90415519D01*
X143861503Y-90413523D01*
X143863166Y-90412412D01*
X143864408Y-90412745D01*
G37*
G36*
X152264408Y-90412745D02*
G01*
X152275339Y-90420048D01*
X152294199Y-90423800D01*
X153793801Y-90423800D01*
X153812661Y-90420048D01*
X153823591Y-90412745D01*
X153825587Y-90412614D01*
X153826698Y-90414277D01*
X153826365Y-90415519D01*
X153817149Y-90429312D01*
X153818829Y-90430435D01*
X153819714Y-90432229D01*
X153819253Y-90433380D01*
X153804571Y-90450951D01*
X153795944Y-90519669D01*
X153818832Y-90567500D01*
X153818678Y-90569494D01*
X153818139Y-90570026D01*
X153817149Y-90570688D01*
X153826366Y-90584481D01*
X153826497Y-90586477D01*
X153824834Y-90587588D01*
X153823592Y-90587255D01*
X153812661Y-90579952D01*
X153793801Y-90576200D01*
X152294199Y-90576200D01*
X152275339Y-90579952D01*
X152264409Y-90587255D01*
X152262413Y-90587386D01*
X152261302Y-90585723D01*
X152261635Y-90584481D01*
X152270851Y-90570688D01*
X152269171Y-90569565D01*
X152268286Y-90567771D01*
X152268747Y-90566620D01*
X152283429Y-90549049D01*
X152292056Y-90480331D01*
X152269168Y-90432500D01*
X152269322Y-90430506D01*
X152269861Y-90429974D01*
X152270851Y-90429312D01*
X152261634Y-90415519D01*
X152261503Y-90413523D01*
X152263166Y-90412412D01*
X152264408Y-90412745D01*
G37*
G36*
X143864408Y-89612745D02*
G01*
X143875339Y-89620048D01*
X143894199Y-89623800D01*
X145393801Y-89623800D01*
X145412661Y-89620048D01*
X145423591Y-89612745D01*
X145425587Y-89612614D01*
X145426698Y-89614277D01*
X145426365Y-89615519D01*
X145417149Y-89629312D01*
X145418829Y-89630435D01*
X145419714Y-89632229D01*
X145419253Y-89633380D01*
X145404571Y-89650951D01*
X145395944Y-89719669D01*
X145418832Y-89767500D01*
X145418678Y-89769494D01*
X145418139Y-89770026D01*
X145417149Y-89770688D01*
X145426366Y-89784481D01*
X145426497Y-89786477D01*
X145424834Y-89787588D01*
X145423592Y-89787255D01*
X145412661Y-89779952D01*
X145393801Y-89776200D01*
X143894199Y-89776200D01*
X143875339Y-89779952D01*
X143864409Y-89787255D01*
X143862413Y-89787386D01*
X143861302Y-89785723D01*
X143861635Y-89784481D01*
X143870851Y-89770688D01*
X143869171Y-89769565D01*
X143868286Y-89767771D01*
X143868747Y-89766620D01*
X143883429Y-89749049D01*
X143892056Y-89680331D01*
X143869168Y-89632500D01*
X143869322Y-89630506D01*
X143869861Y-89629974D01*
X143870851Y-89629312D01*
X143861634Y-89615519D01*
X143861503Y-89613523D01*
X143863166Y-89612412D01*
X143864408Y-89612745D01*
G37*
G36*
X152264408Y-89612745D02*
G01*
X152275339Y-89620048D01*
X152294199Y-89623800D01*
X153793801Y-89623800D01*
X153812661Y-89620048D01*
X153823591Y-89612745D01*
X153825587Y-89612614D01*
X153826698Y-89614277D01*
X153826365Y-89615519D01*
X153817149Y-89629312D01*
X153818829Y-89630435D01*
X153819714Y-89632229D01*
X153819253Y-89633380D01*
X153804571Y-89650951D01*
X153795944Y-89719669D01*
X153818832Y-89767500D01*
X153818678Y-89769494D01*
X153818139Y-89770026D01*
X153817149Y-89770688D01*
X153826366Y-89784481D01*
X153826497Y-89786477D01*
X153824834Y-89787588D01*
X153823592Y-89787255D01*
X153812661Y-89779952D01*
X153793801Y-89776200D01*
X152294199Y-89776200D01*
X152275339Y-89779952D01*
X152264409Y-89787255D01*
X152262413Y-89787386D01*
X152261302Y-89785723D01*
X152261635Y-89784481D01*
X152270851Y-89770688D01*
X152269171Y-89769565D01*
X152268286Y-89767771D01*
X152268747Y-89766620D01*
X152283429Y-89749049D01*
X152292056Y-89680331D01*
X152269168Y-89632500D01*
X152269322Y-89630506D01*
X152269861Y-89629974D01*
X152270851Y-89629312D01*
X152261634Y-89615519D01*
X152261503Y-89613523D01*
X152263166Y-89612412D01*
X152264408Y-89612745D01*
G37*
G36*
X121318447Y-89488509D02*
G01*
X121318837Y-89490471D01*
X121318478Y-89491111D01*
X121275159Y-89542944D01*
X121266526Y-89611660D01*
X121296490Y-89674290D01*
X121317525Y-89692517D01*
X121318179Y-89694407D01*
X121316869Y-89695918D01*
X121315825Y-89695990D01*
X121301801Y-89693200D01*
X119302199Y-89693200D01*
X119287447Y-89696134D01*
X119285553Y-89695491D01*
X119285163Y-89693529D01*
X119285522Y-89692889D01*
X119328841Y-89641056D01*
X119337474Y-89572340D01*
X119307510Y-89509710D01*
X119286475Y-89491483D01*
X119285821Y-89489593D01*
X119287131Y-89488082D01*
X119288175Y-89488010D01*
X119302199Y-89490800D01*
X121301801Y-89490800D01*
X121316553Y-89487866D01*
X121318447Y-89488509D01*
G37*
G36*
X143864408Y-88812745D02*
G01*
X143875339Y-88820048D01*
X143894199Y-88823800D01*
X145393801Y-88823800D01*
X145412661Y-88820048D01*
X145423591Y-88812745D01*
X145425587Y-88812614D01*
X145426698Y-88814277D01*
X145426365Y-88815519D01*
X145417149Y-88829312D01*
X145418829Y-88830435D01*
X145419714Y-88832229D01*
X145419253Y-88833380D01*
X145404571Y-88850951D01*
X145395944Y-88919669D01*
X145418832Y-88967500D01*
X145418678Y-88969494D01*
X145418139Y-88970026D01*
X145417149Y-88970688D01*
X145426366Y-88984481D01*
X145426497Y-88986477D01*
X145424834Y-88987588D01*
X145423592Y-88987255D01*
X145412661Y-88979952D01*
X145393801Y-88976200D01*
X143894199Y-88976200D01*
X143875339Y-88979952D01*
X143864409Y-88987255D01*
X143862413Y-88987386D01*
X143861302Y-88985723D01*
X143861635Y-88984481D01*
X143870851Y-88970688D01*
X143869171Y-88969565D01*
X143868286Y-88967771D01*
X143868747Y-88966620D01*
X143883429Y-88949049D01*
X143892056Y-88880331D01*
X143869168Y-88832500D01*
X143869322Y-88830506D01*
X143869861Y-88829974D01*
X143870851Y-88829312D01*
X143861634Y-88815519D01*
X143861503Y-88813523D01*
X143863166Y-88812412D01*
X143864408Y-88812745D01*
G37*
G36*
X152264408Y-88812745D02*
G01*
X152275339Y-88820048D01*
X152294199Y-88823800D01*
X153793801Y-88823800D01*
X153812661Y-88820048D01*
X153823591Y-88812745D01*
X153825587Y-88812614D01*
X153826698Y-88814277D01*
X153826365Y-88815519D01*
X153817149Y-88829312D01*
X153818829Y-88830435D01*
X153819714Y-88832229D01*
X153819253Y-88833380D01*
X153804571Y-88850951D01*
X153795944Y-88919669D01*
X153818832Y-88967500D01*
X153818678Y-88969494D01*
X153818139Y-88970026D01*
X153817149Y-88970688D01*
X153826366Y-88984481D01*
X153826497Y-88986477D01*
X153824834Y-88987588D01*
X153823592Y-88987255D01*
X153812661Y-88979952D01*
X153793801Y-88976200D01*
X152294199Y-88976200D01*
X152275339Y-88979952D01*
X152264409Y-88987255D01*
X152262413Y-88987386D01*
X152261302Y-88985723D01*
X152261635Y-88984481D01*
X152270851Y-88970688D01*
X152269171Y-88969565D01*
X152268286Y-88967771D01*
X152268747Y-88966620D01*
X152283429Y-88949049D01*
X152292056Y-88880331D01*
X152269168Y-88832500D01*
X152269322Y-88830506D01*
X152269861Y-88829974D01*
X152270851Y-88829312D01*
X152261634Y-88815519D01*
X152261503Y-88813523D01*
X152263166Y-88812412D01*
X152264408Y-88812745D01*
G37*
G36*
X121318447Y-88688509D02*
G01*
X121318837Y-88690471D01*
X121318478Y-88691111D01*
X121275159Y-88742944D01*
X121266526Y-88811660D01*
X121296490Y-88874290D01*
X121317525Y-88892517D01*
X121318179Y-88894407D01*
X121316869Y-88895918D01*
X121315825Y-88895990D01*
X121301801Y-88893200D01*
X119302199Y-88893200D01*
X119287447Y-88896134D01*
X119285553Y-88895491D01*
X119285163Y-88893529D01*
X119285522Y-88892889D01*
X119328841Y-88841056D01*
X119337474Y-88772340D01*
X119307510Y-88709710D01*
X119286475Y-88691483D01*
X119285821Y-88689593D01*
X119287131Y-88688082D01*
X119288175Y-88688010D01*
X119302199Y-88690800D01*
X121301801Y-88690800D01*
X121316553Y-88687866D01*
X121318447Y-88688509D01*
G37*
G36*
X166677699Y-88564457D02*
G01*
X166721070Y-88593436D01*
X166778199Y-88604800D01*
X166977801Y-88604800D01*
X167034930Y-88593436D01*
X167078301Y-88564457D01*
X167080297Y-88564326D01*
X167081408Y-88565989D01*
X167081075Y-88567231D01*
X167074264Y-88577425D01*
X167053484Y-88643789D01*
X167074273Y-88714589D01*
X167081075Y-88724769D01*
X167081206Y-88726765D01*
X167079543Y-88727876D01*
X167078301Y-88727543D01*
X167034930Y-88698564D01*
X166977801Y-88687200D01*
X166778199Y-88687200D01*
X166721070Y-88698564D01*
X166677699Y-88727543D01*
X166675703Y-88727674D01*
X166674592Y-88726011D01*
X166674925Y-88724769D01*
X166681736Y-88714575D01*
X166702516Y-88648211D01*
X166681727Y-88577411D01*
X166674925Y-88567231D01*
X166674794Y-88565235D01*
X166676457Y-88564124D01*
X166677699Y-88564457D01*
G37*
G36*
X167693699Y-88564457D02*
G01*
X167737070Y-88593436D01*
X167794199Y-88604800D01*
X167993801Y-88604800D01*
X168050930Y-88593436D01*
X168094301Y-88564457D01*
X168096297Y-88564326D01*
X168097408Y-88565989D01*
X168097075Y-88567231D01*
X168090264Y-88577425D01*
X168069484Y-88643789D01*
X168090273Y-88714589D01*
X168097075Y-88724769D01*
X168097206Y-88726765D01*
X168095543Y-88727876D01*
X168094301Y-88727543D01*
X168050930Y-88698564D01*
X167993801Y-88687200D01*
X167794199Y-88687200D01*
X167737070Y-88698564D01*
X167693699Y-88727543D01*
X167691703Y-88727674D01*
X167690592Y-88726011D01*
X167690925Y-88724769D01*
X167697736Y-88714575D01*
X167718516Y-88648211D01*
X167697727Y-88577411D01*
X167690925Y-88567231D01*
X167690794Y-88565235D01*
X167692457Y-88564124D01*
X167693699Y-88564457D01*
G37*
G36*
X165661699Y-88564457D02*
G01*
X165705070Y-88593436D01*
X165762199Y-88604800D01*
X165961801Y-88604800D01*
X166018930Y-88593436D01*
X166062301Y-88564457D01*
X166064297Y-88564326D01*
X166065408Y-88565989D01*
X166065075Y-88567231D01*
X166058264Y-88577425D01*
X166037484Y-88643789D01*
X166058273Y-88714589D01*
X166065075Y-88724769D01*
X166065206Y-88726765D01*
X166063543Y-88727876D01*
X166062301Y-88727543D01*
X166018930Y-88698564D01*
X165961801Y-88687200D01*
X165762199Y-88687200D01*
X165705070Y-88698564D01*
X165661699Y-88727543D01*
X165659703Y-88727674D01*
X165658592Y-88726011D01*
X165658925Y-88724769D01*
X165665736Y-88714575D01*
X165686516Y-88648211D01*
X165665727Y-88577411D01*
X165658925Y-88567231D01*
X165658794Y-88565235D01*
X165660457Y-88564124D01*
X165661699Y-88564457D01*
G37*
G36*
X143864408Y-88012745D02*
G01*
X143875339Y-88020048D01*
X143894199Y-88023800D01*
X145393801Y-88023800D01*
X145412661Y-88020048D01*
X145423591Y-88012745D01*
X145425587Y-88012614D01*
X145426698Y-88014277D01*
X145426365Y-88015519D01*
X145417149Y-88029312D01*
X145418829Y-88030435D01*
X145419714Y-88032229D01*
X145419253Y-88033380D01*
X145404571Y-88050951D01*
X145395944Y-88119669D01*
X145418832Y-88167500D01*
X145418678Y-88169494D01*
X145418139Y-88170026D01*
X145417149Y-88170688D01*
X145426366Y-88184481D01*
X145426497Y-88186477D01*
X145424834Y-88187588D01*
X145423592Y-88187255D01*
X145412661Y-88179952D01*
X145393801Y-88176200D01*
X143894199Y-88176200D01*
X143875339Y-88179952D01*
X143864409Y-88187255D01*
X143862413Y-88187386D01*
X143861302Y-88185723D01*
X143861635Y-88184481D01*
X143870851Y-88170688D01*
X143869171Y-88169565D01*
X143868286Y-88167771D01*
X143868747Y-88166620D01*
X143883429Y-88149049D01*
X143892056Y-88080331D01*
X143869168Y-88032500D01*
X143869322Y-88030506D01*
X143869861Y-88029974D01*
X143870851Y-88029312D01*
X143861634Y-88015519D01*
X143861503Y-88013523D01*
X143863166Y-88012412D01*
X143864408Y-88012745D01*
G37*
G36*
X152264408Y-88012745D02*
G01*
X152275339Y-88020048D01*
X152294199Y-88023800D01*
X153793801Y-88023800D01*
X153812661Y-88020048D01*
X153823591Y-88012745D01*
X153825587Y-88012614D01*
X153826698Y-88014277D01*
X153826365Y-88015519D01*
X153817149Y-88029312D01*
X153818829Y-88030435D01*
X153819714Y-88032229D01*
X153819253Y-88033380D01*
X153804571Y-88050951D01*
X153795944Y-88119669D01*
X153818832Y-88167500D01*
X153818678Y-88169494D01*
X153818139Y-88170026D01*
X153817149Y-88170688D01*
X153826366Y-88184481D01*
X153826497Y-88186477D01*
X153824834Y-88187588D01*
X153823592Y-88187255D01*
X153812661Y-88179952D01*
X153793801Y-88176200D01*
X152294199Y-88176200D01*
X152275339Y-88179952D01*
X152264409Y-88187255D01*
X152262413Y-88187386D01*
X152261302Y-88185723D01*
X152261635Y-88184481D01*
X152270851Y-88170688D01*
X152269171Y-88169565D01*
X152268286Y-88167771D01*
X152268747Y-88166620D01*
X152283429Y-88149049D01*
X152292056Y-88080331D01*
X152269168Y-88032500D01*
X152269322Y-88030506D01*
X152269861Y-88029974D01*
X152270851Y-88029312D01*
X152261634Y-88015519D01*
X152261503Y-88013523D01*
X152263166Y-88012412D01*
X152264408Y-88012745D01*
G37*
G36*
X121318447Y-87888509D02*
G01*
X121318837Y-87890471D01*
X121318478Y-87891111D01*
X121275159Y-87942944D01*
X121266526Y-88011660D01*
X121296490Y-88074290D01*
X121317525Y-88092517D01*
X121318179Y-88094407D01*
X121316869Y-88095918D01*
X121315825Y-88095990D01*
X121301801Y-88093200D01*
X119302199Y-88093200D01*
X119287447Y-88096134D01*
X119285553Y-88095491D01*
X119285163Y-88093529D01*
X119285522Y-88092889D01*
X119328841Y-88041056D01*
X119337474Y-87972340D01*
X119307510Y-87909710D01*
X119286475Y-87891483D01*
X119285821Y-87889593D01*
X119287131Y-87888082D01*
X119288175Y-87888010D01*
X119302199Y-87890800D01*
X121301801Y-87890800D01*
X121316553Y-87887866D01*
X121318447Y-87888509D01*
G37*
G36*
X143864408Y-87212745D02*
G01*
X143875339Y-87220048D01*
X143894199Y-87223800D01*
X145393801Y-87223800D01*
X145412661Y-87220048D01*
X145423591Y-87212745D01*
X145425587Y-87212614D01*
X145426698Y-87214277D01*
X145426365Y-87215519D01*
X145417149Y-87229312D01*
X145418829Y-87230435D01*
X145419714Y-87232229D01*
X145419253Y-87233380D01*
X145404571Y-87250951D01*
X145395944Y-87319669D01*
X145418832Y-87367500D01*
X145418678Y-87369494D01*
X145418139Y-87370026D01*
X145417149Y-87370688D01*
X145426366Y-87384481D01*
X145426497Y-87386477D01*
X145424834Y-87387588D01*
X145423592Y-87387255D01*
X145412661Y-87379952D01*
X145393801Y-87376200D01*
X143894199Y-87376200D01*
X143875339Y-87379952D01*
X143864409Y-87387255D01*
X143862413Y-87387386D01*
X143861302Y-87385723D01*
X143861635Y-87384481D01*
X143870851Y-87370688D01*
X143869171Y-87369565D01*
X143868286Y-87367771D01*
X143868747Y-87366620D01*
X143883429Y-87349049D01*
X143892056Y-87280331D01*
X143869168Y-87232500D01*
X143869322Y-87230506D01*
X143869861Y-87229974D01*
X143870851Y-87229312D01*
X143861634Y-87215519D01*
X143861503Y-87213523D01*
X143863166Y-87212412D01*
X143864408Y-87212745D01*
G37*
G36*
X152264408Y-87212745D02*
G01*
X152275339Y-87220048D01*
X152294199Y-87223800D01*
X153793801Y-87223800D01*
X153812661Y-87220048D01*
X153823591Y-87212745D01*
X153825587Y-87212614D01*
X153826698Y-87214277D01*
X153826365Y-87215519D01*
X153817149Y-87229312D01*
X153818829Y-87230435D01*
X153819714Y-87232229D01*
X153819253Y-87233380D01*
X153804571Y-87250951D01*
X153795944Y-87319669D01*
X153818832Y-87367500D01*
X153818678Y-87369494D01*
X153818139Y-87370026D01*
X153817149Y-87370688D01*
X153826366Y-87384481D01*
X153826497Y-87386477D01*
X153824834Y-87387588D01*
X153823592Y-87387255D01*
X153812661Y-87379952D01*
X153793801Y-87376200D01*
X152294199Y-87376200D01*
X152275339Y-87379952D01*
X152264409Y-87387255D01*
X152262413Y-87387386D01*
X152261302Y-87385723D01*
X152261635Y-87384481D01*
X152270851Y-87370688D01*
X152269171Y-87369565D01*
X152268286Y-87367771D01*
X152268747Y-87366620D01*
X152283429Y-87349049D01*
X152292056Y-87280331D01*
X152269168Y-87232500D01*
X152269322Y-87230506D01*
X152269861Y-87229974D01*
X152270851Y-87229312D01*
X152261634Y-87215519D01*
X152261503Y-87213523D01*
X152263166Y-87212412D01*
X152264408Y-87212745D01*
G37*
G36*
X121318447Y-87088509D02*
G01*
X121318837Y-87090471D01*
X121318478Y-87091111D01*
X121275159Y-87142944D01*
X121266526Y-87211660D01*
X121296490Y-87274290D01*
X121317525Y-87292517D01*
X121318179Y-87294407D01*
X121316869Y-87295918D01*
X121315825Y-87295990D01*
X121301801Y-87293200D01*
X119302199Y-87293200D01*
X119287447Y-87296134D01*
X119285553Y-87295491D01*
X119285163Y-87293529D01*
X119285522Y-87292889D01*
X119328841Y-87241056D01*
X119337474Y-87172340D01*
X119307510Y-87109710D01*
X119286475Y-87091483D01*
X119285821Y-87089593D01*
X119287131Y-87088082D01*
X119288175Y-87088010D01*
X119302199Y-87090800D01*
X121301801Y-87090800D01*
X121316553Y-87087866D01*
X121318447Y-87088509D01*
G37*
G36*
X152264408Y-86412745D02*
G01*
X152275339Y-86420048D01*
X152294199Y-86423800D01*
X153793801Y-86423800D01*
X153812661Y-86420048D01*
X153823591Y-86412745D01*
X153825587Y-86412614D01*
X153826698Y-86414277D01*
X153826365Y-86415519D01*
X153817149Y-86429312D01*
X153818829Y-86430435D01*
X153819714Y-86432229D01*
X153819253Y-86433380D01*
X153804571Y-86450951D01*
X153795944Y-86519669D01*
X153818832Y-86567500D01*
X153818678Y-86569494D01*
X153818139Y-86570026D01*
X153817149Y-86570688D01*
X153826366Y-86584481D01*
X153826497Y-86586477D01*
X153824834Y-86587588D01*
X153823592Y-86587255D01*
X153812661Y-86579952D01*
X153793801Y-86576200D01*
X152294199Y-86576200D01*
X152275339Y-86579952D01*
X152264409Y-86587255D01*
X152262413Y-86587386D01*
X152261302Y-86585723D01*
X152261635Y-86584481D01*
X152270851Y-86570688D01*
X152269171Y-86569565D01*
X152268286Y-86567771D01*
X152268747Y-86566620D01*
X152283429Y-86549049D01*
X152292056Y-86480331D01*
X152269168Y-86432500D01*
X152269322Y-86430506D01*
X152269861Y-86429974D01*
X152270851Y-86429312D01*
X152261634Y-86415519D01*
X152261503Y-86413523D01*
X152263166Y-86412412D01*
X152264408Y-86412745D01*
G37*
G36*
X143864408Y-86412745D02*
G01*
X143875339Y-86420048D01*
X143894199Y-86423800D01*
X145393801Y-86423800D01*
X145412661Y-86420048D01*
X145423591Y-86412745D01*
X145425587Y-86412614D01*
X145426698Y-86414277D01*
X145426365Y-86415519D01*
X145417149Y-86429312D01*
X145418829Y-86430435D01*
X145419714Y-86432229D01*
X145419253Y-86433380D01*
X145404571Y-86450951D01*
X145395944Y-86519669D01*
X145418832Y-86567500D01*
X145418678Y-86569494D01*
X145418139Y-86570026D01*
X145417149Y-86570688D01*
X145426366Y-86584481D01*
X145426497Y-86586477D01*
X145424834Y-86587588D01*
X145423592Y-86587255D01*
X145412661Y-86579952D01*
X145393801Y-86576200D01*
X143894199Y-86576200D01*
X143875339Y-86579952D01*
X143864409Y-86587255D01*
X143862413Y-86587386D01*
X143861302Y-86585723D01*
X143861635Y-86584481D01*
X143870851Y-86570688D01*
X143869171Y-86569565D01*
X143868286Y-86567771D01*
X143868747Y-86566620D01*
X143883429Y-86549049D01*
X143892056Y-86480331D01*
X143869168Y-86432500D01*
X143869322Y-86430506D01*
X143869861Y-86429974D01*
X143870851Y-86429312D01*
X143861634Y-86415519D01*
X143861503Y-86413523D01*
X143863166Y-86412412D01*
X143864408Y-86412745D01*
G37*
G36*
X150359519Y-83917635D02*
G01*
X150373312Y-83926851D01*
X150374435Y-83925171D01*
X150376229Y-83924286D01*
X150377380Y-83924747D01*
X150394951Y-83939429D01*
X150463669Y-83948056D01*
X150511500Y-83925168D01*
X150513494Y-83925322D01*
X150514026Y-83925861D01*
X150514688Y-83926851D01*
X150528481Y-83917634D01*
X150530477Y-83917503D01*
X150531588Y-83919166D01*
X150531255Y-83920408D01*
X150523952Y-83931339D01*
X150520200Y-83950199D01*
X150520200Y-85449801D01*
X150523952Y-85468661D01*
X150531255Y-85479591D01*
X150531386Y-85481587D01*
X150529723Y-85482698D01*
X150528481Y-85482365D01*
X150514688Y-85473149D01*
X150513565Y-85474829D01*
X150511771Y-85475714D01*
X150510620Y-85475253D01*
X150493049Y-85460571D01*
X150424331Y-85451944D01*
X150376500Y-85474832D01*
X150374506Y-85474678D01*
X150373974Y-85474139D01*
X150373312Y-85473149D01*
X150359519Y-85482366D01*
X150357523Y-85482497D01*
X150356412Y-85480834D01*
X150356745Y-85479592D01*
X150364048Y-85468661D01*
X150367800Y-85449801D01*
X150367800Y-83950199D01*
X150364048Y-83931339D01*
X150356745Y-83920409D01*
X150356614Y-83918413D01*
X150358277Y-83917302D01*
X150359519Y-83917635D01*
G37*
G36*
X146359519Y-83917635D02*
G01*
X146373312Y-83926851D01*
X146374435Y-83925171D01*
X146376229Y-83924286D01*
X146377380Y-83924747D01*
X146394951Y-83939429D01*
X146463669Y-83948056D01*
X146511500Y-83925168D01*
X146513494Y-83925322D01*
X146514026Y-83925861D01*
X146514688Y-83926851D01*
X146528481Y-83917634D01*
X146530477Y-83917503D01*
X146531588Y-83919166D01*
X146531255Y-83920408D01*
X146523952Y-83931339D01*
X146520200Y-83950199D01*
X146520200Y-85449801D01*
X146523952Y-85468661D01*
X146531255Y-85479591D01*
X146531386Y-85481587D01*
X146529723Y-85482698D01*
X146528481Y-85482365D01*
X146514688Y-85473149D01*
X146513565Y-85474829D01*
X146511771Y-85475714D01*
X146510620Y-85475253D01*
X146493049Y-85460571D01*
X146424331Y-85451944D01*
X146376500Y-85474832D01*
X146374506Y-85474678D01*
X146373974Y-85474139D01*
X146373312Y-85473149D01*
X146359519Y-85482366D01*
X146357523Y-85482497D01*
X146356412Y-85480834D01*
X146356745Y-85479592D01*
X146364048Y-85468661D01*
X146367800Y-85449801D01*
X146367800Y-83950199D01*
X146364048Y-83931339D01*
X146356745Y-83920409D01*
X146356614Y-83918413D01*
X146358277Y-83917302D01*
X146359519Y-83917635D01*
G37*
G36*
X151159519Y-83917635D02*
G01*
X151173312Y-83926851D01*
X151174435Y-83925171D01*
X151176229Y-83924286D01*
X151177380Y-83924747D01*
X151194951Y-83939429D01*
X151263669Y-83948056D01*
X151311500Y-83925168D01*
X151313494Y-83925322D01*
X151314026Y-83925861D01*
X151314688Y-83926851D01*
X151328481Y-83917634D01*
X151330477Y-83917503D01*
X151331588Y-83919166D01*
X151331255Y-83920408D01*
X151323952Y-83931339D01*
X151320200Y-83950199D01*
X151320200Y-85449801D01*
X151323952Y-85468661D01*
X151331255Y-85479591D01*
X151331386Y-85481587D01*
X151329723Y-85482698D01*
X151328481Y-85482365D01*
X151314688Y-85473149D01*
X151313565Y-85474829D01*
X151311771Y-85475714D01*
X151310620Y-85475253D01*
X151293049Y-85460571D01*
X151224331Y-85451944D01*
X151176500Y-85474832D01*
X151174506Y-85474678D01*
X151173974Y-85474139D01*
X151173312Y-85473149D01*
X151159519Y-85482366D01*
X151157523Y-85482497D01*
X151156412Y-85480834D01*
X151156745Y-85479592D01*
X151164048Y-85468661D01*
X151167800Y-85449801D01*
X151167800Y-83950199D01*
X151164048Y-83931339D01*
X151156745Y-83920409D01*
X151156614Y-83918413D01*
X151158277Y-83917302D01*
X151159519Y-83917635D01*
G37*
G36*
X147959519Y-83917635D02*
G01*
X147973312Y-83926851D01*
X147974435Y-83925171D01*
X147976229Y-83924286D01*
X147977380Y-83924747D01*
X147994951Y-83939429D01*
X148063669Y-83948056D01*
X148111500Y-83925168D01*
X148113494Y-83925322D01*
X148114026Y-83925861D01*
X148114688Y-83926851D01*
X148128481Y-83917634D01*
X148130477Y-83917503D01*
X148131588Y-83919166D01*
X148131255Y-83920408D01*
X148123952Y-83931339D01*
X148120200Y-83950199D01*
X148120200Y-85449801D01*
X148123952Y-85468661D01*
X148131255Y-85479591D01*
X148131386Y-85481587D01*
X148129723Y-85482698D01*
X148128481Y-85482365D01*
X148114688Y-85473149D01*
X148113565Y-85474829D01*
X148111771Y-85475714D01*
X148110620Y-85475253D01*
X148093049Y-85460571D01*
X148024331Y-85451944D01*
X147976500Y-85474832D01*
X147974506Y-85474678D01*
X147973974Y-85474139D01*
X147973312Y-85473149D01*
X147959519Y-85482366D01*
X147957523Y-85482497D01*
X147956412Y-85480834D01*
X147956745Y-85479592D01*
X147964048Y-85468661D01*
X147967800Y-85449801D01*
X147967800Y-83950199D01*
X147964048Y-83931339D01*
X147956745Y-83920409D01*
X147956614Y-83918413D01*
X147958277Y-83917302D01*
X147959519Y-83917635D01*
G37*
G36*
X149559519Y-83917635D02*
G01*
X149573312Y-83926851D01*
X149574435Y-83925171D01*
X149576229Y-83924286D01*
X149577380Y-83924747D01*
X149594951Y-83939429D01*
X149663669Y-83948056D01*
X149711500Y-83925168D01*
X149713494Y-83925322D01*
X149714026Y-83925861D01*
X149714688Y-83926851D01*
X149728481Y-83917634D01*
X149730477Y-83917503D01*
X149731588Y-83919166D01*
X149731255Y-83920408D01*
X149723952Y-83931339D01*
X149720200Y-83950199D01*
X149720200Y-85449801D01*
X149723952Y-85468661D01*
X149731255Y-85479591D01*
X149731386Y-85481587D01*
X149729723Y-85482698D01*
X149728481Y-85482365D01*
X149714688Y-85473149D01*
X149713565Y-85474829D01*
X149711771Y-85475714D01*
X149710620Y-85475253D01*
X149693049Y-85460571D01*
X149624331Y-85451944D01*
X149576500Y-85474832D01*
X149574506Y-85474678D01*
X149573974Y-85474139D01*
X149573312Y-85473149D01*
X149559519Y-85482366D01*
X149557523Y-85482497D01*
X149556412Y-85480834D01*
X149556745Y-85479592D01*
X149564048Y-85468661D01*
X149567800Y-85449801D01*
X149567800Y-83950199D01*
X149564048Y-83931339D01*
X149556745Y-83920409D01*
X149556614Y-83918413D01*
X149558277Y-83917302D01*
X149559519Y-83917635D01*
G37*
G36*
X148759519Y-83917635D02*
G01*
X148773312Y-83926851D01*
X148774435Y-83925171D01*
X148776229Y-83924286D01*
X148777380Y-83924747D01*
X148794951Y-83939429D01*
X148863669Y-83948056D01*
X148911500Y-83925168D01*
X148913494Y-83925322D01*
X148914026Y-83925861D01*
X148914688Y-83926851D01*
X148928481Y-83917634D01*
X148930477Y-83917503D01*
X148931588Y-83919166D01*
X148931255Y-83920408D01*
X148923952Y-83931339D01*
X148920200Y-83950199D01*
X148920200Y-85449801D01*
X148923952Y-85468661D01*
X148931255Y-85479591D01*
X148931386Y-85481587D01*
X148929723Y-85482698D01*
X148928481Y-85482365D01*
X148914688Y-85473149D01*
X148913565Y-85474829D01*
X148911771Y-85475714D01*
X148910620Y-85475253D01*
X148893049Y-85460571D01*
X148824331Y-85451944D01*
X148776500Y-85474832D01*
X148774506Y-85474678D01*
X148773974Y-85474139D01*
X148773312Y-85473149D01*
X148759519Y-85482366D01*
X148757523Y-85482497D01*
X148756412Y-85480834D01*
X148756745Y-85479592D01*
X148764048Y-85468661D01*
X148767800Y-85449801D01*
X148767800Y-83950199D01*
X148764048Y-83931339D01*
X148756745Y-83920409D01*
X148756614Y-83918413D01*
X148758277Y-83917302D01*
X148759519Y-83917635D01*
G37*
G36*
X147159519Y-83917635D02*
G01*
X147173312Y-83926851D01*
X147174435Y-83925171D01*
X147176229Y-83924286D01*
X147177380Y-83924747D01*
X147194951Y-83939429D01*
X147263669Y-83948056D01*
X147311500Y-83925168D01*
X147313494Y-83925322D01*
X147314026Y-83925861D01*
X147314688Y-83926851D01*
X147328481Y-83917634D01*
X147330477Y-83917503D01*
X147331588Y-83919166D01*
X147331255Y-83920408D01*
X147323952Y-83931339D01*
X147320200Y-83950199D01*
X147320200Y-85449801D01*
X147323952Y-85468661D01*
X147331255Y-85479591D01*
X147331386Y-85481587D01*
X147329723Y-85482698D01*
X147328481Y-85482365D01*
X147314688Y-85473149D01*
X147313565Y-85474829D01*
X147311771Y-85475714D01*
X147310620Y-85475253D01*
X147293049Y-85460571D01*
X147224331Y-85451944D01*
X147176500Y-85474832D01*
X147174506Y-85474678D01*
X147173974Y-85474139D01*
X147173312Y-85473149D01*
X147159519Y-85482366D01*
X147157523Y-85482497D01*
X147156412Y-85480834D01*
X147156745Y-85479592D01*
X147164048Y-85468661D01*
X147167800Y-85449801D01*
X147167800Y-83950199D01*
X147164048Y-83931339D01*
X147156745Y-83920409D01*
X147156614Y-83918413D01*
X147158277Y-83917302D01*
X147159519Y-83917635D01*
G37*
G36*
X167693699Y-84246457D02*
G01*
X167737070Y-84275436D01*
X167794199Y-84286800D01*
X167993801Y-84286800D01*
X168050930Y-84275436D01*
X168094301Y-84246457D01*
X168096297Y-84246326D01*
X168097408Y-84247989D01*
X168097075Y-84249231D01*
X168090264Y-84259425D01*
X168069484Y-84325789D01*
X168090273Y-84396589D01*
X168097075Y-84406769D01*
X168097206Y-84408765D01*
X168095543Y-84409876D01*
X168094301Y-84409543D01*
X168050930Y-84380564D01*
X167993801Y-84369200D01*
X167794199Y-84369200D01*
X167737070Y-84380564D01*
X167693699Y-84409543D01*
X167691703Y-84409674D01*
X167690592Y-84408011D01*
X167690925Y-84406769D01*
X167697736Y-84396575D01*
X167718516Y-84330211D01*
X167697727Y-84259411D01*
X167690925Y-84249231D01*
X167690794Y-84247235D01*
X167692457Y-84246124D01*
X167693699Y-84246457D01*
G37*
G36*
X165661699Y-84246457D02*
G01*
X165705070Y-84275436D01*
X165762199Y-84286800D01*
X165961801Y-84286800D01*
X166018930Y-84275436D01*
X166062301Y-84246457D01*
X166064297Y-84246326D01*
X166065408Y-84247989D01*
X166065075Y-84249231D01*
X166058264Y-84259425D01*
X166037484Y-84325789D01*
X166058273Y-84396589D01*
X166065075Y-84406769D01*
X166065206Y-84408765D01*
X166063543Y-84409876D01*
X166062301Y-84409543D01*
X166018930Y-84380564D01*
X165961801Y-84369200D01*
X165762199Y-84369200D01*
X165705070Y-84380564D01*
X165661699Y-84409543D01*
X165659703Y-84409674D01*
X165658592Y-84408011D01*
X165658925Y-84406769D01*
X165665736Y-84396575D01*
X165686516Y-84330211D01*
X165665727Y-84259411D01*
X165658925Y-84249231D01*
X165658794Y-84247235D01*
X165660457Y-84246124D01*
X165661699Y-84246457D01*
G37*
G36*
X166677699Y-84246457D02*
G01*
X166721070Y-84275436D01*
X166778199Y-84286800D01*
X166977801Y-84286800D01*
X167034930Y-84275436D01*
X167078301Y-84246457D01*
X167080297Y-84246326D01*
X167081408Y-84247989D01*
X167081075Y-84249231D01*
X167074264Y-84259425D01*
X167053484Y-84325789D01*
X167074273Y-84396589D01*
X167081075Y-84406769D01*
X167081206Y-84408765D01*
X167079543Y-84409876D01*
X167078301Y-84409543D01*
X167034930Y-84380564D01*
X166977801Y-84369200D01*
X166778199Y-84369200D01*
X166721070Y-84380564D01*
X166677699Y-84409543D01*
X166675703Y-84409674D01*
X166674592Y-84408011D01*
X166674925Y-84406769D01*
X166681736Y-84396575D01*
X166702516Y-84330211D01*
X166681727Y-84259411D01*
X166674925Y-84249231D01*
X166674794Y-84247235D01*
X166676457Y-84246124D01*
X166677699Y-84246457D01*
G37*
G36*
X149527231Y-81076925D02*
G01*
X149537425Y-81083736D01*
X149603789Y-81104516D01*
X149674589Y-81083727D01*
X149684769Y-81076925D01*
X149686765Y-81076794D01*
X149687876Y-81078457D01*
X149687543Y-81079699D01*
X149658564Y-81123070D01*
X149647200Y-81180199D01*
X149647200Y-81379801D01*
X149658564Y-81436930D01*
X149687543Y-81480301D01*
X149687674Y-81482297D01*
X149686011Y-81483408D01*
X149684769Y-81483075D01*
X149674575Y-81476264D01*
X149608211Y-81455484D01*
X149537411Y-81476273D01*
X149527231Y-81483075D01*
X149525235Y-81483206D01*
X149524124Y-81481543D01*
X149524457Y-81480301D01*
X149553436Y-81436930D01*
X149564800Y-81379801D01*
X149564800Y-81180199D01*
X149553436Y-81123070D01*
X149524457Y-81079699D01*
X149524326Y-81077703D01*
X149525989Y-81076592D01*
X149527231Y-81076925D01*
G37*
G36*
X132039902Y-76529799D02*
G01*
X132039902Y-76531799D01*
X132038499Y-76532772D01*
X132038493Y-76532773D01*
X132038164Y-76532800D01*
X129457836Y-76532800D01*
X129456104Y-76531800D01*
X129456104Y-76529800D01*
X129457836Y-76528800D01*
X132038170Y-76528799D01*
X132039902Y-76529799D01*
G37*
G36*
X132039896Y-73328200D02*
G01*
X132039896Y-73330200D01*
X132038164Y-73331200D01*
X129457830Y-73331201D01*
X129456098Y-73330201D01*
X129456098Y-73328201D01*
X129457501Y-73327228D01*
X129457507Y-73327227D01*
X129457836Y-73327200D01*
X132038164Y-73327200D01*
X132039896Y-73328200D01*
G37*
M02*
