%TF.GenerationSoftware,KiCad,Pcbnew,(6.0.10)*%
%TF.CreationDate,2023-01-31T23:24:51+03:00*%
%TF.ProjectId,001_ESC,3030315f-4553-4432-9e6b-696361645f70,rev?*%
%TF.SameCoordinates,Original*%
%TF.FileFunction,Paste,Top*%
%TF.FilePolarity,Positive*%
%FSLAX46Y46*%
G04 Gerber Fmt 4.6, Leading zero omitted, Abs format (unit mm)*
G04 Created by KiCad (PCBNEW (6.0.10)) date 2023-01-31 23:24:51*
%MOMM*%
%LPD*%
G01*
G04 APERTURE LIST*
G04 Aperture macros list*
%AMRoundRect*
0 Rectangle with rounded corners*
0 $1 Rounding radius*
0 $2 $3 $4 $5 $6 $7 $8 $9 X,Y pos of 4 corners*
0 Add a 4 corners polygon primitive as box body*
4,1,4,$2,$3,$4,$5,$6,$7,$8,$9,$2,$3,0*
0 Add four circle primitives for the rounded corners*
1,1,$1+$1,$2,$3*
1,1,$1+$1,$4,$5*
1,1,$1+$1,$6,$7*
1,1,$1+$1,$8,$9*
0 Add four rect primitives between the rounded corners*
20,1,$1+$1,$2,$3,$4,$5,0*
20,1,$1+$1,$4,$5,$6,$7,0*
20,1,$1+$1,$6,$7,$8,$9,0*
20,1,$1+$1,$8,$9,$2,$3,0*%
G04 Aperture macros list end*
%ADD10C,0.010000*%
%ADD11RoundRect,0.116400X-1.298600X-0.368600X1.298600X-0.368600X1.298600X0.368600X-1.298600X0.368600X0*%
%ADD12RoundRect,0.116400X-0.368600X1.298600X-0.368600X-1.298600X0.368600X-1.298600X0.368600X1.298600X0*%
%ADD13RoundRect,0.116400X0.368600X-1.298600X0.368600X1.298600X-0.368600X1.298600X-0.368600X-1.298600X0*%
%ADD14RoundRect,0.150000X0.825000X0.150000X-0.825000X0.150000X-0.825000X-0.150000X0.825000X-0.150000X0*%
%ADD15R,1.520000X3.050000*%
%ADD16RoundRect,0.090000X-0.090000X0.139000X-0.090000X-0.139000X0.090000X-0.139000X0.090000X0.139000X0*%
%ADD17R,0.600000X0.800000*%
%ADD18R,3.050000X1.520000*%
%ADD19R,0.700000X1.525000*%
%ADD20R,2.000000X4.200000*%
%ADD21R,0.600000X0.450000*%
%ADD22R,1.500000X0.550000*%
%ADD23R,0.550000X1.500000*%
%ADD24R,0.450000X0.600000*%
%ADD25RoundRect,0.090000X0.139000X0.090000X-0.139000X0.090000X-0.139000X-0.090000X0.139000X-0.090000X0*%
%ADD26RoundRect,0.090000X-0.139000X-0.090000X0.139000X-0.090000X0.139000X0.090000X-0.139000X0.090000X0*%
%ADD27RoundRect,0.090000X0.090000X-0.139000X0.090000X0.139000X-0.090000X0.139000X-0.090000X-0.139000X0*%
%ADD28R,1.525000X0.700000*%
%ADD29R,2.000000X0.500000*%
%ADD30R,1.700000X2.000000*%
%ADD31R,1.900000X1.100000*%
%ADD32R,0.800000X0.600000*%
%ADD33R,3.450000X2.560000*%
%ADD34R,1.100000X1.900000*%
%ADD35R,2.200000X1.500000*%
G04 APERTURE END LIST*
%TO.C,Q6*%
G36*
X170832000Y-120872000D02*
G01*
X169512000Y-120872000D01*
X169512000Y-119132000D01*
X170832000Y-119132000D01*
X170832000Y-120872000D01*
G37*
D10*
X170832000Y-120872000D02*
X169512000Y-120872000D01*
X169512000Y-119132000D01*
X170832000Y-119132000D01*
X170832000Y-120872000D01*
G36*
X172872000Y-120872000D02*
G01*
X171552000Y-120872000D01*
X171552000Y-119132000D01*
X172872000Y-119132000D01*
X172872000Y-120872000D01*
G37*
X172872000Y-120872000D02*
X171552000Y-120872000D01*
X171552000Y-119132000D01*
X172872000Y-119132000D01*
X172872000Y-120872000D01*
G36*
X174912000Y-120872000D02*
G01*
X173592000Y-120872000D01*
X173592000Y-119132000D01*
X174912000Y-119132000D01*
X174912000Y-120872000D01*
G37*
X174912000Y-120872000D02*
X173592000Y-120872000D01*
X173592000Y-119132000D01*
X174912000Y-119132000D01*
X174912000Y-120872000D01*
G36*
X170832000Y-123692000D02*
G01*
X169512000Y-123692000D01*
X169512000Y-121952000D01*
X170832000Y-121952000D01*
X170832000Y-123692000D01*
G37*
X170832000Y-123692000D02*
X169512000Y-123692000D01*
X169512000Y-121952000D01*
X170832000Y-121952000D01*
X170832000Y-123692000D01*
G36*
X172872000Y-123692000D02*
G01*
X171552000Y-123692000D01*
X171552000Y-121952000D01*
X172872000Y-121952000D01*
X172872000Y-123692000D01*
G37*
X172872000Y-123692000D02*
X171552000Y-123692000D01*
X171552000Y-121952000D01*
X172872000Y-121952000D01*
X172872000Y-123692000D01*
G36*
X174912000Y-123692000D02*
G01*
X173592000Y-123692000D01*
X173592000Y-121952000D01*
X174912000Y-121952000D01*
X174912000Y-123692000D01*
G37*
X174912000Y-123692000D02*
X173592000Y-123692000D01*
X173592000Y-121952000D01*
X174912000Y-121952000D01*
X174912000Y-123692000D01*
%TO.C,Q5*%
G36*
X170962000Y-104358000D02*
G01*
X169642000Y-104358000D01*
X169642000Y-102618000D01*
X170962000Y-102618000D01*
X170962000Y-104358000D01*
G37*
X170962000Y-104358000D02*
X169642000Y-104358000D01*
X169642000Y-102618000D01*
X170962000Y-102618000D01*
X170962000Y-104358000D01*
G36*
X173002000Y-104358000D02*
G01*
X171682000Y-104358000D01*
X171682000Y-102618000D01*
X173002000Y-102618000D01*
X173002000Y-104358000D01*
G37*
X173002000Y-104358000D02*
X171682000Y-104358000D01*
X171682000Y-102618000D01*
X173002000Y-102618000D01*
X173002000Y-104358000D01*
G36*
X175042000Y-104358000D02*
G01*
X173722000Y-104358000D01*
X173722000Y-102618000D01*
X175042000Y-102618000D01*
X175042000Y-104358000D01*
G37*
X175042000Y-104358000D02*
X173722000Y-104358000D01*
X173722000Y-102618000D01*
X175042000Y-102618000D01*
X175042000Y-104358000D01*
G36*
X170962000Y-107178000D02*
G01*
X169642000Y-107178000D01*
X169642000Y-105438000D01*
X170962000Y-105438000D01*
X170962000Y-107178000D01*
G37*
X170962000Y-107178000D02*
X169642000Y-107178000D01*
X169642000Y-105438000D01*
X170962000Y-105438000D01*
X170962000Y-107178000D01*
G36*
X173002000Y-107178000D02*
G01*
X171682000Y-107178000D01*
X171682000Y-105438000D01*
X173002000Y-105438000D01*
X173002000Y-107178000D01*
G37*
X173002000Y-107178000D02*
X171682000Y-107178000D01*
X171682000Y-105438000D01*
X173002000Y-105438000D01*
X173002000Y-107178000D01*
G36*
X175042000Y-107178000D02*
G01*
X173722000Y-107178000D01*
X173722000Y-105438000D01*
X175042000Y-105438000D01*
X175042000Y-107178000D01*
G37*
X175042000Y-107178000D02*
X173722000Y-107178000D01*
X173722000Y-105438000D01*
X175042000Y-105438000D01*
X175042000Y-107178000D01*
%TO.C,Q4*%
G36*
X141472000Y-122732000D02*
G01*
X139732000Y-122732000D01*
X139732000Y-121412000D01*
X141472000Y-121412000D01*
X141472000Y-122732000D01*
G37*
X141472000Y-122732000D02*
X139732000Y-122732000D01*
X139732000Y-121412000D01*
X141472000Y-121412000D01*
X141472000Y-122732000D01*
G36*
X141472000Y-124772000D02*
G01*
X139732000Y-124772000D01*
X139732000Y-123452000D01*
X141472000Y-123452000D01*
X141472000Y-124772000D01*
G37*
X141472000Y-124772000D02*
X139732000Y-124772000D01*
X139732000Y-123452000D01*
X141472000Y-123452000D01*
X141472000Y-124772000D01*
G36*
X141472000Y-126812000D02*
G01*
X139732000Y-126812000D01*
X139732000Y-125492000D01*
X141472000Y-125492000D01*
X141472000Y-126812000D01*
G37*
X141472000Y-126812000D02*
X139732000Y-126812000D01*
X139732000Y-125492000D01*
X141472000Y-125492000D01*
X141472000Y-126812000D01*
G36*
X138652000Y-122732000D02*
G01*
X136912000Y-122732000D01*
X136912000Y-121412000D01*
X138652000Y-121412000D01*
X138652000Y-122732000D01*
G37*
X138652000Y-122732000D02*
X136912000Y-122732000D01*
X136912000Y-121412000D01*
X138652000Y-121412000D01*
X138652000Y-122732000D01*
G36*
X138652000Y-124772000D02*
G01*
X136912000Y-124772000D01*
X136912000Y-123452000D01*
X138652000Y-123452000D01*
X138652000Y-124772000D01*
G37*
X138652000Y-124772000D02*
X136912000Y-124772000D01*
X136912000Y-123452000D01*
X138652000Y-123452000D01*
X138652000Y-124772000D01*
G36*
X138652000Y-126812000D02*
G01*
X136912000Y-126812000D01*
X136912000Y-125492000D01*
X138652000Y-125492000D01*
X138652000Y-126812000D01*
G37*
X138652000Y-126812000D02*
X136912000Y-126812000D01*
X136912000Y-125492000D01*
X138652000Y-125492000D01*
X138652000Y-126812000D01*
%TO.C,Q3*%
G36*
X157728000Y-122826000D02*
G01*
X155988000Y-122826000D01*
X155988000Y-121506000D01*
X157728000Y-121506000D01*
X157728000Y-122826000D01*
G37*
X157728000Y-122826000D02*
X155988000Y-122826000D01*
X155988000Y-121506000D01*
X157728000Y-121506000D01*
X157728000Y-122826000D01*
G36*
X157728000Y-124866000D02*
G01*
X155988000Y-124866000D01*
X155988000Y-123546000D01*
X157728000Y-123546000D01*
X157728000Y-124866000D01*
G37*
X157728000Y-124866000D02*
X155988000Y-124866000D01*
X155988000Y-123546000D01*
X157728000Y-123546000D01*
X157728000Y-124866000D01*
G36*
X157728000Y-126906000D02*
G01*
X155988000Y-126906000D01*
X155988000Y-125586000D01*
X157728000Y-125586000D01*
X157728000Y-126906000D01*
G37*
X157728000Y-126906000D02*
X155988000Y-126906000D01*
X155988000Y-125586000D01*
X157728000Y-125586000D01*
X157728000Y-126906000D01*
G36*
X154908000Y-122826000D02*
G01*
X153168000Y-122826000D01*
X153168000Y-121506000D01*
X154908000Y-121506000D01*
X154908000Y-122826000D01*
G37*
X154908000Y-122826000D02*
X153168000Y-122826000D01*
X153168000Y-121506000D01*
X154908000Y-121506000D01*
X154908000Y-122826000D01*
G36*
X154908000Y-124866000D02*
G01*
X153168000Y-124866000D01*
X153168000Y-123546000D01*
X154908000Y-123546000D01*
X154908000Y-124866000D01*
G37*
X154908000Y-124866000D02*
X153168000Y-124866000D01*
X153168000Y-123546000D01*
X154908000Y-123546000D01*
X154908000Y-124866000D01*
G36*
X154908000Y-126906000D02*
G01*
X153168000Y-126906000D01*
X153168000Y-125586000D01*
X154908000Y-125586000D01*
X154908000Y-126906000D01*
G37*
X154908000Y-126906000D02*
X153168000Y-126906000D01*
X153168000Y-125586000D01*
X154908000Y-125586000D01*
X154908000Y-126906000D01*
%TO.C,Q2*%
G36*
X154400000Y-105062000D02*
G01*
X152660000Y-105062000D01*
X152660000Y-103742000D01*
X154400000Y-103742000D01*
X154400000Y-105062000D01*
G37*
X154400000Y-105062000D02*
X152660000Y-105062000D01*
X152660000Y-103742000D01*
X154400000Y-103742000D01*
X154400000Y-105062000D01*
G36*
X154400000Y-103022000D02*
G01*
X152660000Y-103022000D01*
X152660000Y-101702000D01*
X154400000Y-101702000D01*
X154400000Y-103022000D01*
G37*
X154400000Y-103022000D02*
X152660000Y-103022000D01*
X152660000Y-101702000D01*
X154400000Y-101702000D01*
X154400000Y-103022000D01*
G36*
X154400000Y-100982000D02*
G01*
X152660000Y-100982000D01*
X152660000Y-99662000D01*
X154400000Y-99662000D01*
X154400000Y-100982000D01*
G37*
X154400000Y-100982000D02*
X152660000Y-100982000D01*
X152660000Y-99662000D01*
X154400000Y-99662000D01*
X154400000Y-100982000D01*
G36*
X157220000Y-105062000D02*
G01*
X155480000Y-105062000D01*
X155480000Y-103742000D01*
X157220000Y-103742000D01*
X157220000Y-105062000D01*
G37*
X157220000Y-105062000D02*
X155480000Y-105062000D01*
X155480000Y-103742000D01*
X157220000Y-103742000D01*
X157220000Y-105062000D01*
G36*
X157220000Y-103022000D02*
G01*
X155480000Y-103022000D01*
X155480000Y-101702000D01*
X157220000Y-101702000D01*
X157220000Y-103022000D01*
G37*
X157220000Y-103022000D02*
X155480000Y-103022000D01*
X155480000Y-101702000D01*
X157220000Y-101702000D01*
X157220000Y-103022000D01*
G36*
X157220000Y-100982000D02*
G01*
X155480000Y-100982000D01*
X155480000Y-99662000D01*
X157220000Y-99662000D01*
X157220000Y-100982000D01*
G37*
X157220000Y-100982000D02*
X155480000Y-100982000D01*
X155480000Y-99662000D01*
X157220000Y-99662000D01*
X157220000Y-100982000D01*
%TO.C,Q1*%
G36*
X137128000Y-105316000D02*
G01*
X135388000Y-105316000D01*
X135388000Y-103996000D01*
X137128000Y-103996000D01*
X137128000Y-105316000D01*
G37*
X137128000Y-105316000D02*
X135388000Y-105316000D01*
X135388000Y-103996000D01*
X137128000Y-103996000D01*
X137128000Y-105316000D01*
G36*
X137128000Y-103276000D02*
G01*
X135388000Y-103276000D01*
X135388000Y-101956000D01*
X137128000Y-101956000D01*
X137128000Y-103276000D01*
G37*
X137128000Y-103276000D02*
X135388000Y-103276000D01*
X135388000Y-101956000D01*
X137128000Y-101956000D01*
X137128000Y-103276000D01*
G36*
X137128000Y-101236000D02*
G01*
X135388000Y-101236000D01*
X135388000Y-99916000D01*
X137128000Y-99916000D01*
X137128000Y-101236000D01*
G37*
X137128000Y-101236000D02*
X135388000Y-101236000D01*
X135388000Y-99916000D01*
X137128000Y-99916000D01*
X137128000Y-101236000D01*
G36*
X139948000Y-105316000D02*
G01*
X138208000Y-105316000D01*
X138208000Y-103996000D01*
X139948000Y-103996000D01*
X139948000Y-105316000D01*
G37*
X139948000Y-105316000D02*
X138208000Y-105316000D01*
X138208000Y-103996000D01*
X139948000Y-103996000D01*
X139948000Y-105316000D01*
G36*
X139948000Y-103276000D02*
G01*
X138208000Y-103276000D01*
X138208000Y-101956000D01*
X139948000Y-101956000D01*
X139948000Y-103276000D01*
G37*
X139948000Y-103276000D02*
X138208000Y-103276000D01*
X138208000Y-101956000D01*
X139948000Y-101956000D01*
X139948000Y-103276000D01*
G36*
X139948000Y-101236000D02*
G01*
X138208000Y-101236000D01*
X138208000Y-99916000D01*
X139948000Y-99916000D01*
X139948000Y-101236000D01*
G37*
X139948000Y-101236000D02*
X138208000Y-101236000D01*
X138208000Y-99916000D01*
X139948000Y-99916000D01*
X139948000Y-101236000D01*
%TD*%
D11*
%TO.C,Q6*%
X165562000Y-119122000D03*
X165562000Y-123702000D03*
%TD*%
%TO.C,Q5*%
X165692000Y-102608000D03*
X165692000Y-107188000D03*
%TD*%
D12*
%TO.C,Q4*%
X141482000Y-117462000D03*
X136902000Y-117462000D03*
%TD*%
%TO.C,Q3*%
X157738000Y-117556000D03*
X153158000Y-117556000D03*
%TD*%
D13*
%TO.C,Q2*%
X152650000Y-109012000D03*
X157230000Y-109012000D03*
%TD*%
%TO.C,Q1*%
X135378000Y-109266000D03*
X139958000Y-109266000D03*
%TD*%
D14*
%TO.C,U1*%
X129729000Y-93091000D03*
X129729000Y-91821000D03*
X129729000Y-90551000D03*
X129729000Y-89281000D03*
X129729000Y-88011000D03*
X129729000Y-86741000D03*
X129729000Y-85471000D03*
X129729000Y-84201000D03*
X124779000Y-84201000D03*
X124779000Y-85471000D03*
X124779000Y-86741000D03*
X124779000Y-88011000D03*
X124779000Y-89281000D03*
X124779000Y-90551000D03*
X124779000Y-91821000D03*
X124779000Y-93091000D03*
%TD*%
D15*
%TO.C,C8*%
X115953000Y-126238000D03*
X113663000Y-126238000D03*
%TD*%
D16*
%TO.C,R11*%
X165862000Y-88213500D03*
X165862000Y-89078500D03*
%TD*%
D17*
%TO.C,C14*%
X156402000Y-89408000D03*
X155002000Y-89408000D03*
%TD*%
%TO.C,C13*%
X138492000Y-93472000D03*
X139892000Y-93472000D03*
%TD*%
D18*
%TO.C,C16*%
X145034000Y-104445000D03*
X145034000Y-102155000D03*
%TD*%
D19*
%TO.C,IC4*%
X167467000Y-110568000D03*
X166197000Y-110568000D03*
X164927000Y-110568000D03*
X163657000Y-110568000D03*
X163657000Y-115992000D03*
X164927000Y-115992000D03*
X166197000Y-115992000D03*
X167467000Y-115992000D03*
%TD*%
D20*
%TO.C,BZ1*%
X125032000Y-123190000D03*
X133032000Y-123190000D03*
%TD*%
D16*
%TO.C,R12*%
X165862000Y-93904500D03*
X165862000Y-93039500D03*
%TD*%
D17*
%TO.C,C12*%
X148652000Y-82550000D03*
X150052000Y-82550000D03*
%TD*%
D21*
%TO.C,D4*%
X144238000Y-125730000D03*
X146338000Y-125730000D03*
%TD*%
D22*
%TO.C,U2*%
X144644000Y-86100000D03*
X144644000Y-86900000D03*
X144644000Y-87700000D03*
X144644000Y-88500000D03*
X144644000Y-89300000D03*
X144644000Y-90100000D03*
X144644000Y-90900000D03*
X144644000Y-91700000D03*
D23*
X146044000Y-93100000D03*
X146844000Y-93100000D03*
X147644000Y-93100000D03*
X148444000Y-93100000D03*
X149244000Y-93100000D03*
X150044000Y-93100000D03*
X150844000Y-93100000D03*
X151644000Y-93100000D03*
D22*
X153044000Y-91700000D03*
X153044000Y-90900000D03*
X153044000Y-90100000D03*
X153044000Y-89300000D03*
X153044000Y-88500000D03*
X153044000Y-87700000D03*
X153044000Y-86900000D03*
X153044000Y-86100000D03*
D23*
X151644000Y-84700000D03*
X150844000Y-84700000D03*
X150044000Y-84700000D03*
X149244000Y-84700000D03*
X148444000Y-84700000D03*
X147644000Y-84700000D03*
X146844000Y-84700000D03*
X146044000Y-84700000D03*
%TD*%
D24*
%TO.C,D5*%
X173020000Y-116586000D03*
X173020000Y-114486000D03*
%TD*%
D25*
%TO.C,R8*%
X132155500Y-90678000D03*
X133020500Y-90678000D03*
%TD*%
D17*
%TO.C,C18*%
X144334000Y-123190000D03*
X145734000Y-123190000D03*
%TD*%
D25*
%TO.C,R16*%
X139775500Y-111682000D03*
X140640500Y-111682000D03*
%TD*%
D15*
%TO.C,C20*%
X170005000Y-111502000D03*
X172295000Y-111502000D03*
%TD*%
%TO.C,C6*%
X118489000Y-122428000D03*
X120779000Y-122428000D03*
%TD*%
D26*
%TO.C,R4*%
X122606500Y-110998000D03*
X121741500Y-110998000D03*
%TD*%
D15*
%TO.C,C10*%
X115953000Y-118618000D03*
X113663000Y-118618000D03*
%TD*%
D16*
%TO.C,R10*%
X165862000Y-83895500D03*
X165862000Y-84760500D03*
%TD*%
D15*
%TO.C,C2*%
X126617000Y-100838000D03*
X128907000Y-100838000D03*
%TD*%
D27*
%TO.C,R13*%
X166878000Y-84760500D03*
X166878000Y-83895500D03*
%TD*%
%TO.C,R18*%
X167894000Y-83895500D03*
X167894000Y-84760500D03*
%TD*%
D28*
%TO.C,IC2*%
X144354000Y-107237000D03*
X144354000Y-108507000D03*
X144354000Y-109777000D03*
X144354000Y-111047000D03*
X149778000Y-111047000D03*
X149778000Y-109777000D03*
X149778000Y-108507000D03*
X149778000Y-107237000D03*
%TD*%
D26*
%TO.C,R22*%
X141553500Y-114347000D03*
X142418500Y-114347000D03*
%TD*%
D29*
%TO.C,J1*%
X120302000Y-86792000D03*
X120302000Y-87592000D03*
X120302000Y-88392000D03*
X120302000Y-89192000D03*
X120302000Y-89992000D03*
D30*
X114752000Y-83942000D03*
X120202000Y-92842000D03*
X114752000Y-92842000D03*
X120202000Y-83942000D03*
%TD*%
D26*
%TO.C,R21*%
X153340500Y-115046000D03*
X152475500Y-115046000D03*
%TD*%
D27*
%TO.C,R14*%
X166878000Y-89078500D03*
X166878000Y-88213500D03*
%TD*%
D15*
%TO.C,C9*%
X115953000Y-122428000D03*
X113663000Y-122428000D03*
%TD*%
D17*
%TO.C,D1*%
X127824000Y-106680000D03*
X129224000Y-106680000D03*
%TD*%
D15*
%TO.C,C5*%
X118489000Y-126238000D03*
X120779000Y-126238000D03*
%TD*%
D27*
%TO.C,R23*%
X163276000Y-106827000D03*
X163276000Y-107692000D03*
%TD*%
D31*
%TO.C,XTAL1*%
X141986000Y-90997000D03*
X141986000Y-93407000D03*
%TD*%
D26*
%TO.C,R9*%
X124535500Y-117856000D03*
X125400500Y-117856000D03*
%TD*%
D32*
%TO.C,C21*%
X170434000Y-116520000D03*
X170434000Y-115120000D03*
%TD*%
D15*
%TO.C,C7*%
X118489000Y-118618000D03*
X120779000Y-118618000D03*
%TD*%
D17*
%TO.C,C11*%
X138492000Y-90932000D03*
X139892000Y-90932000D03*
%TD*%
%TO.C,D2*%
X126808000Y-117602000D03*
X128208000Y-117602000D03*
%TD*%
D16*
%TO.C,R24*%
X162306000Y-118593000D03*
X162306000Y-119458000D03*
%TD*%
D26*
%TO.C,R3*%
X122606500Y-112014000D03*
X121741500Y-112014000D03*
%TD*%
D17*
%TO.C,C1*%
X127824000Y-103632000D03*
X129224000Y-103632000D03*
%TD*%
D18*
%TO.C,C19*%
X149352000Y-123823000D03*
X149352000Y-126113000D03*
%TD*%
D27*
%TO.C,R19*%
X167894000Y-88213500D03*
X167894000Y-89078500D03*
%TD*%
D28*
%TO.C,IC3*%
X150286000Y-119315000D03*
X150286000Y-118045000D03*
X150286000Y-116775000D03*
X150286000Y-115505000D03*
X144862000Y-115505000D03*
X144862000Y-116775000D03*
X144862000Y-118045000D03*
X144862000Y-119315000D03*
%TD*%
D19*
%TO.C,IC1*%
X126111000Y-103968000D03*
X124841000Y-103968000D03*
X123571000Y-103968000D03*
X122301000Y-103968000D03*
X122301000Y-109392000D03*
X123571000Y-109392000D03*
X124841000Y-109392000D03*
X126111000Y-109392000D03*
D33*
X124206000Y-106680000D03*
%TD*%
D17*
%TO.C,C3*%
X127824000Y-108458000D03*
X129224000Y-108458000D03*
%TD*%
D26*
%TO.C,R6*%
X149173500Y-81280000D03*
X150038500Y-81280000D03*
%TD*%
D34*
%TO.C,XTAL2*%
X127827000Y-81788000D03*
X130237000Y-81788000D03*
%TD*%
D17*
%TO.C,C17*%
X150052000Y-105078000D03*
X148652000Y-105078000D03*
%TD*%
D21*
%TO.C,D3*%
X150402000Y-102792000D03*
X148302000Y-102792000D03*
%TD*%
D27*
%TO.C,R20*%
X167894000Y-93829000D03*
X167894000Y-92964000D03*
%TD*%
D32*
%TO.C,C23*%
X132080000Y-82488000D03*
X132080000Y-81088000D03*
%TD*%
D26*
%TO.C,R1*%
X126162500Y-111252000D03*
X125297500Y-111252000D03*
%TD*%
D25*
%TO.C,R7*%
X133020500Y-91694000D03*
X132155500Y-91694000D03*
%TD*%
D32*
%TO.C,C4*%
X123952000Y-111314000D03*
X123952000Y-112714000D03*
%TD*%
D27*
%TO.C,R15*%
X166878000Y-93039500D03*
X166878000Y-93904500D03*
%TD*%
D26*
%TO.C,R2*%
X121741500Y-113030000D03*
X122606500Y-113030000D03*
%TD*%
%TO.C,R5*%
X128702500Y-105156000D03*
X127837500Y-105156000D03*
%TD*%
D25*
%TO.C,R17*%
X152832500Y-111428000D03*
X151967500Y-111428000D03*
%TD*%
D17*
%TO.C,C22*%
X124268000Y-80772000D03*
X125668000Y-80772000D03*
%TD*%
D35*
%TO.C,L1*%
X116840000Y-110388000D03*
X116840000Y-103988000D03*
%TD*%
D17*
%TO.C,C15*%
X133542000Y-89154000D03*
X132142000Y-89154000D03*
%TD*%
M02*
