M48
; DRILL file {KiCad (6.0.10)} date Tue Jan 31 23:24:41 2023
; FORMAT={-:-/ absolute / inch / decimal}
; #@! TF.CreationDate,2023-01-31T23:24:41+03:00
; #@! TF.GenerationSoftware,Kicad,Pcbnew,(6.0.10)
; #@! TF.FileFunction,Plated,1,2,PTH
FMAT,2
INCH
; #@! TA.AperFunction,Plated,PTH,ViaDrill
T1C0.0118
; #@! TA.AperFunction,Plated,PTH,ViaDrill
T2C0.0236
; #@! TA.AperFunction,Plated,PTH,ComponentDrill
T3C0.0433
; #@! TA.AperFunction,Plated,PTH,ComponentDrill
T4C0.0827
%
G90
G05
T1
X6.78Y-4.97
X6.84Y-3.93
T2
X4.6Y-4.01
X4.8Y-3.14
X4.83Y-3.52
X4.89Y-3.99
X4.91Y-4.59
X4.99Y-3.51
X5.04Y-4.38
X5.16Y-4.08
X5.54Y-3.19
X5.56Y-3.51
X5.58Y-3.22
X5.61Y-3.51
X5.61Y-4.28
X5.62Y-4.23
X5.75Y-3.74
X5.77Y-4.59
X5.78Y-3.18
X5.78Y-3.58
X5.8Y-3.45
X5.8Y-4.23
X5.81Y-4.43
X5.82Y-3.8
X5.82Y-4.27
X5.84Y-4.65
X5.85Y-3.59
X5.86Y-4.56
X5.87Y-3.45
X6.1Y-4.67
X6.15Y-4.51
X6.28Y-3.9032
X6.3Y-4.89
X6.38Y-3.09
X6.43Y-4.29
X6.46Y-3.3
X6.46Y-3.47
X6.46Y-3.66
X6.49Y-3.4
X6.49Y-3.57
X6.49Y-4.42
X6.54Y-4.43
X6.6Y-4.49
X6.83Y-3.46
X6.86Y-3.54
T3
X6.321Y-2.96
X6.51Y-2.96
X6.5194Y-3.13
X6.699Y-2.96
X6.7006Y-3.13
X6.72Y-3.351
X6.72Y-3.54
X6.72Y-3.729
T4
X5.1476Y-2.95
X5.3838Y-2.95
X5.62Y-2.95
X5.8562Y-2.95
X6.0924Y-2.95
T0
M30
